<svg width="590" height="890" viewBox="0 0 590 890" fill="none" xmlns="http://www.w3.org/2000/svg">
<g opacity="0.8">
<g clip-path="url(#clip0_173_779)">
<rect width="590" height="890" fill="url(#paint0_linear_173_779)"/>
<g opacity="0.4" filter="url(#filter0_b_173_779)">
<rect x="295" y="-5" width="100" height="900" fill="black"/>
<rect x="294.5" y="-5.5" width="101" height="901" stroke="url(#paint1_linear_173_779)"/>
</g>
<g opacity="0.4" filter="url(#filter1_b_173_779)">
<rect x="395" y="-5" width="100" height="900" fill="black"/>
<rect x="394.5" y="-5.5" width="101" height="901" stroke="url(#paint2_linear_173_779)"/>
</g>
<g opacity="0.4" filter="url(#filter2_b_173_779)">
<rect x="495" y="-5" width="100" height="900" fill="black"/>
<rect x="494.5" y="-5.5" width="101" height="901" stroke="url(#paint3_linear_173_779)"/>
</g>
<g opacity="0.4" filter="url(#filter3_b_173_779)">
<rect x="195" y="-5" width="100" height="900" fill="black"/>
<rect x="194.5" y="-5.5" width="101" height="901" stroke="url(#paint4_linear_173_779)"/>
</g>
<g opacity="0.4" filter="url(#filter4_b_173_779)">
<rect x="95" y="-5" width="100" height="900" fill="black"/>
<rect x="94.5" y="-5.5" width="101" height="901" stroke="url(#paint5_linear_173_779)"/>
</g>
<g opacity="0.4" filter="url(#filter5_b_173_779)">
<rect x="-5" y="-5" width="100" height="900" fill="black"/>
<rect x="-5.5" y="-5.5" width="101" height="901" stroke="url(#paint6_linear_173_779)"/>
</g>
<g opacity="0.4" filter="url(#filter6_b_173_779)">
<rect x="-5" y="85" width="90" height="600" transform="rotate(-90 -5 85)" fill="black"/>
<rect x="-4.5" y="84.5" width="89" height="599" transform="rotate(-90 -4.5 84.5)" stroke="url(#paint7_linear_173_779)"/>
</g>
<g opacity="0.4" filter="url(#filter7_b_173_779)">
<rect x="-5" y="355" width="90" height="600" transform="rotate(-90 -5 355)" fill="black"/>
<rect x="-4.5" y="354.5" width="89" height="599" transform="rotate(-90 -4.5 354.5)" stroke="url(#paint8_linear_173_779)"/>
</g>
<g opacity="0.4" filter="url(#filter8_b_173_779)">
<rect x="-5" y="175" width="90" height="600" transform="rotate(-90 -5 175)" fill="black"/>
<rect x="-4.5" y="174.5" width="89" height="599" transform="rotate(-90 -4.5 174.5)" stroke="url(#paint9_linear_173_779)"/>
</g>
<g opacity="0.4" filter="url(#filter9_b_173_779)">
<rect x="-5" y="445" width="90" height="600" transform="rotate(-90 -5 445)" fill="black"/>
<rect x="-4.5" y="444.5" width="89" height="599" transform="rotate(-90 -4.5 444.5)" stroke="url(#paint10_linear_173_779)"/>
</g>
<g opacity="0.4" filter="url(#filter10_b_173_779)">
<rect x="-5" y="805" width="90" height="600" transform="rotate(-90 -5 805)" fill="black"/>
<rect x="-4.5" y="804.5" width="89" height="599" transform="rotate(-90 -4.5 804.5)" stroke="url(#paint11_linear_173_779)"/>
</g>
<g opacity="0.4" filter="url(#filter11_b_173_779)">
<rect x="-5" y="715" width="90" height="600" transform="rotate(-90 -5 715)" fill="black"/>
<rect x="-4.5" y="714.5" width="89" height="599" transform="rotate(-90 -4.5 714.5)" stroke="url(#paint12_linear_173_779)"/>
</g>
<g opacity="0.4" filter="url(#filter12_b_173_779)">
<rect x="-5" y="625" width="90" height="600" transform="rotate(-90 -5 625)" fill="black"/>
<rect x="-4.5" y="624.5" width="89" height="599" transform="rotate(-90 -4.5 624.5)" stroke="url(#paint13_linear_173_779)"/>
</g>
<g opacity="0.4" filter="url(#filter13_b_173_779)">
<rect x="-5" y="535" width="90" height="600" transform="rotate(-90 -5 535)" fill="black"/>
<rect x="-4.5" y="534.5" width="89" height="599" transform="rotate(-90 -4.5 534.5)" stroke="url(#paint14_linear_173_779)"/>
</g>
<g opacity="0.4" filter="url(#filter14_b_173_779)">
<rect x="-5" y="265" width="90" height="600" transform="rotate(-90 -5 265)" fill="black"/>
<rect x="-4.5" y="264.5" width="89" height="599" transform="rotate(-90 -4.5 264.5)" stroke="url(#paint15_linear_173_779)"/>
</g>
<g opacity="0.4" filter="url(#filter15_b_173_779)">
<rect x="-5" y="895" width="90" height="600" transform="rotate(-90 -5 895)" fill="black"/>
<rect x="-4.5" y="894.5" width="89" height="599" transform="rotate(-90 -4.5 894.5)" stroke="url(#paint16_linear_173_779)"/>
</g>
<rect opacity="0.95" x="-0.5" y="0.5" width="399" height="199" rx="11.5" transform="matrix(-1 0 0 1 494 348)" fill="url(#paint17_linear_173_779)" stroke="url(#paint18_linear_173_779)"/>
<rect opacity="0.95" x="95.5" y="615.5" width="399" height="199" rx="11.5" fill="url(#paint19_linear_173_779)" stroke="url(#paint20_linear_173_779)"/>
<g filter="url(#filter16_i_173_779)">
<path d="M170.453 779H168.332V761.867H177.895V763.73H170.453V769.848H177.438V771.699H170.453V779ZM186.461 765.898C186.711 765.898 186.973 765.914 187.246 765.945C187.527 765.969 187.777 766.004 187.996 766.051L187.75 767.984C187.547 767.93 187.316 767.887 187.059 767.855C186.801 767.824 186.562 767.809 186.344 767.809C185.836 767.809 185.352 767.91 184.891 768.113C184.438 768.309 184.039 768.598 183.695 768.98C183.352 769.355 183.082 769.809 182.887 770.34C182.691 770.871 182.594 771.469 182.594 772.133V779H180.508V766.133H182.207L182.453 768.488H182.535C182.801 768.012 183.121 767.578 183.496 767.188C183.871 766.797 184.305 766.484 184.797 766.25C185.297 766.016 185.852 765.898 186.461 765.898ZM192.496 766.133V779H190.422V766.133H192.496ZM191.477 761.305C191.82 761.305 192.113 761.41 192.355 761.621C192.598 761.832 192.719 762.164 192.719 762.617C192.719 763.07 192.598 763.406 192.355 763.625C192.113 763.836 191.82 763.941 191.477 763.941C191.125 763.941 190.832 763.836 190.598 763.625C190.363 763.406 190.246 763.07 190.246 762.617C190.246 762.164 190.363 761.832 190.598 761.621C190.832 761.41 191.125 761.305 191.477 761.305ZM201.742 779.234C200.578 779.234 199.551 778.996 198.66 778.52C197.777 778.043 197.09 777.316 196.598 776.34C196.105 775.363 195.859 774.129 195.859 772.637C195.859 771.082 196.121 769.809 196.645 768.816C197.168 767.824 197.887 767.09 198.801 766.613C199.723 766.137 200.77 765.898 201.941 765.898C202.605 765.898 203.238 765.965 203.84 766.098C204.441 766.23 204.938 766.398 205.328 766.602L204.707 768.324C204.301 768.16 203.844 768.016 203.336 767.891C202.828 767.758 202.348 767.691 201.895 767.691C201.027 767.691 200.305 767.883 199.727 768.266C199.156 768.641 198.727 769.191 198.438 769.918C198.156 770.645 198.016 771.543 198.016 772.613C198.016 773.637 198.152 774.512 198.426 775.238C198.707 775.957 199.125 776.508 199.68 776.891C200.234 777.266 200.926 777.453 201.754 777.453C202.441 777.453 203.059 777.379 203.605 777.23C204.16 777.074 204.664 776.895 205.117 776.691V778.531C204.672 778.758 204.184 778.93 203.652 779.047C203.121 779.172 202.484 779.234 201.742 779.234ZM212.418 777.535C212.746 777.535 213.078 777.508 213.414 777.453C213.758 777.398 214.043 777.328 214.27 777.242V778.848C214.027 778.957 213.695 779.047 213.273 779.117C212.859 779.195 212.449 779.234 212.043 779.234C211.355 779.234 210.73 779.117 210.168 778.883C209.613 778.641 209.168 778.23 208.832 777.652C208.496 777.074 208.328 776.277 208.328 775.262V767.75H206.512V766.754L208.363 765.957L209.16 763.18H210.426V766.133H214.176V767.75H210.426V775.215C210.426 775.988 210.605 776.57 210.965 776.961C211.332 777.344 211.816 777.535 212.418 777.535ZM218.957 766.133V779H216.883V766.133H218.957ZM217.938 761.305C218.281 761.305 218.574 761.41 218.816 761.621C219.059 761.832 219.18 762.164 219.18 762.617C219.18 763.07 219.059 763.406 218.816 763.625C218.574 763.836 218.281 763.941 217.938 763.941C217.586 763.941 217.293 763.836 217.059 763.625C216.824 763.406 216.707 763.07 216.707 762.617C216.707 762.164 216.824 761.832 217.059 761.621C217.293 761.41 217.586 761.305 217.938 761.305ZM234.191 772.543C234.191 773.605 234.051 774.551 233.77 775.379C233.496 776.207 233.098 776.906 232.574 777.477C232.059 778.047 231.434 778.484 230.699 778.789C229.965 779.086 229.133 779.234 228.203 779.234C227.344 779.234 226.555 779.086 225.836 778.789C225.117 778.484 224.496 778.047 223.973 777.477C223.449 776.906 223.043 776.207 222.754 775.379C222.465 774.551 222.32 773.605 222.32 772.543C222.32 771.137 222.559 769.938 223.035 768.945C223.52 767.953 224.207 767.199 225.098 766.684C225.988 766.16 227.051 765.898 228.285 765.898C229.465 765.898 230.496 766.16 231.379 766.684C232.262 767.207 232.949 767.965 233.441 768.957C233.941 769.949 234.191 771.145 234.191 772.543ZM224.477 772.543C224.477 773.559 224.609 774.441 224.875 775.191C225.141 775.934 225.551 776.508 226.105 776.914C226.66 777.312 227.375 777.512 228.25 777.512C229.125 777.512 229.84 777.312 230.395 776.914C230.957 776.508 231.371 775.934 231.637 775.191C231.902 774.441 232.035 773.559 232.035 772.543C232.035 771.535 231.902 770.664 231.637 769.93C231.371 769.195 230.961 768.633 230.406 768.242C229.852 767.844 229.129 767.645 228.238 767.645C226.941 767.645 225.988 768.078 225.379 768.945C224.777 769.805 224.477 771.004 224.477 772.543ZM243.719 765.898C245.234 765.898 246.383 766.273 247.164 767.023C247.953 767.766 248.348 768.965 248.348 770.621V779H246.297V770.809C246.297 769.754 246.059 768.965 245.582 768.441C245.105 767.91 244.375 767.645 243.391 767.645C241.992 767.645 241.012 768.043 240.449 768.84C239.887 769.637 239.605 770.797 239.605 772.32V779H237.531V766.133H239.195L239.5 767.973H239.617C239.891 767.52 240.238 767.141 240.66 766.836C241.082 766.531 241.555 766.301 242.078 766.145C242.602 765.98 243.148 765.898 243.719 765.898ZM254.43 779H252.344V760.766H254.43V779ZM263.488 765.898C264.59 765.898 265.535 766.141 266.324 766.625C267.113 767.109 267.719 767.789 268.141 768.664C268.562 769.531 268.773 770.551 268.773 771.723V772.977H259.926C259.957 774.445 260.328 775.566 261.039 776.34C261.75 777.105 262.754 777.488 264.051 777.488C264.863 777.488 265.586 777.414 266.219 777.266C266.852 777.109 267.504 776.887 268.176 776.598V778.391C267.527 778.688 266.883 778.902 266.242 779.035C265.602 779.168 264.84 779.234 263.957 779.234C262.723 779.234 261.641 778.984 260.711 778.484C259.789 777.977 259.07 777.234 258.555 776.258C258.039 775.281 257.781 774.082 257.781 772.66C257.781 771.27 258.016 770.066 258.484 769.051C258.953 768.035 259.613 767.258 260.465 766.719C261.324 766.172 262.332 765.898 263.488 765.898ZM263.465 767.574C262.457 767.574 261.648 767.906 261.039 768.57C260.438 769.227 260.082 770.152 259.973 771.348H266.617C266.609 770.605 266.492 769.949 266.266 769.379C266.039 768.809 265.695 768.367 265.234 768.055C264.773 767.734 264.184 767.574 263.465 767.574ZM280.434 775.449C280.434 776.277 280.227 776.973 279.812 777.535C279.398 778.098 278.809 778.523 278.043 778.812C277.277 779.094 276.359 779.234 275.289 779.234C274.391 779.234 273.613 779.164 272.957 779.023C272.301 778.883 271.719 778.684 271.211 778.426V776.539C271.75 776.805 272.387 777.043 273.121 777.254C273.855 777.465 274.598 777.57 275.348 777.57C276.418 777.57 277.195 777.398 277.68 777.055C278.164 776.703 278.406 776.23 278.406 775.637C278.406 775.293 278.309 774.992 278.113 774.734C277.926 774.469 277.598 774.211 277.129 773.961C276.668 773.711 276.023 773.43 275.195 773.117C274.375 772.805 273.668 772.492 273.074 772.18C272.48 771.867 272.023 771.488 271.703 771.043C271.391 770.59 271.234 770.008 271.234 769.297C271.234 768.203 271.676 767.363 272.559 766.777C273.441 766.191 274.605 765.898 276.051 765.898C276.824 765.898 277.551 765.977 278.23 766.133C278.918 766.281 279.562 766.488 280.164 766.754L279.473 768.406C278.926 768.172 278.352 767.977 277.75 767.82C277.156 767.664 276.547 767.586 275.922 767.586C275.055 767.586 274.391 767.727 273.93 768.008C273.469 768.289 273.238 768.68 273.238 769.18C273.238 769.562 273.344 769.879 273.555 770.129C273.773 770.379 274.125 770.617 274.609 770.844C275.094 771.062 275.738 771.324 276.543 771.629C277.34 771.926 278.027 772.234 278.605 772.555C279.191 772.875 279.641 773.262 279.953 773.715C280.273 774.168 280.434 774.746 280.434 775.449ZM291.918 775.449C291.918 776.277 291.711 776.973 291.297 777.535C290.883 778.098 290.293 778.523 289.527 778.812C288.762 779.094 287.844 779.234 286.773 779.234C285.875 779.234 285.098 779.164 284.441 779.023C283.785 778.883 283.203 778.684 282.695 778.426V776.539C283.234 776.805 283.871 777.043 284.605 777.254C285.34 777.465 286.082 777.57 286.832 777.57C287.902 777.57 288.68 777.398 289.164 777.055C289.648 776.703 289.891 776.23 289.891 775.637C289.891 775.293 289.793 774.992 289.598 774.734C289.41 774.469 289.082 774.211 288.613 773.961C288.152 773.711 287.508 773.43 286.68 773.117C285.859 772.805 285.152 772.492 284.559 772.18C283.965 771.867 283.508 771.488 283.188 771.043C282.875 770.59 282.719 770.008 282.719 769.297C282.719 768.203 283.16 767.363 284.043 766.777C284.926 766.191 286.09 765.898 287.535 765.898C288.309 765.898 289.035 765.977 289.715 766.133C290.402 766.281 291.047 766.488 291.648 766.754L290.957 768.406C290.41 768.172 289.836 767.977 289.234 767.82C288.641 767.664 288.031 767.586 287.406 767.586C286.539 767.586 285.875 767.727 285.414 768.008C284.953 768.289 284.723 768.68 284.723 769.18C284.723 769.562 284.828 769.879 285.039 770.129C285.258 770.379 285.609 770.617 286.094 770.844C286.578 771.062 287.223 771.324 288.027 771.629C288.824 771.926 289.512 772.234 290.09 772.555C290.676 772.875 291.125 773.262 291.438 773.715C291.758 774.168 291.918 774.746 291.918 775.449ZM306.238 765.898C307.34 765.898 308.285 766.141 309.074 766.625C309.863 767.109 310.469 767.789 310.891 768.664C311.312 769.531 311.523 770.551 311.523 771.723V772.977H302.676C302.707 774.445 303.078 775.566 303.789 776.34C304.5 777.105 305.504 777.488 306.801 777.488C307.613 777.488 308.336 777.414 308.969 777.266C309.602 777.109 310.254 776.887 310.926 776.598V778.391C310.277 778.688 309.633 778.902 308.992 779.035C308.352 779.168 307.59 779.234 306.707 779.234C305.473 779.234 304.391 778.984 303.461 778.484C302.539 777.977 301.82 777.234 301.305 776.258C300.789 775.281 300.531 774.082 300.531 772.66C300.531 771.27 300.766 770.066 301.234 769.051C301.703 768.035 302.363 767.258 303.215 766.719C304.074 766.172 305.082 765.898 306.238 765.898ZM306.215 767.574C305.207 767.574 304.398 767.906 303.789 768.57C303.188 769.227 302.832 770.152 302.723 771.348H309.367C309.359 770.605 309.242 769.949 309.016 769.379C308.789 768.809 308.445 768.367 307.984 768.055C307.523 767.734 306.934 767.574 306.215 767.574ZM317.828 772.414L313.41 766.133H315.789L319.105 771.02L322.41 766.133H324.766L320.336 772.414L325.012 779H322.633L319.105 773.82L315.555 779H313.199L317.828 772.414ZM333.625 765.898C335.211 765.898 336.477 766.453 337.422 767.562C338.375 768.664 338.852 770.32 338.852 772.531C338.852 773.992 338.633 775.223 338.195 776.223C337.766 777.215 337.152 777.965 336.355 778.473C335.566 778.98 334.637 779.234 333.566 779.234C332.895 779.234 332.301 779.145 331.785 778.965C331.277 778.785 330.84 778.547 330.473 778.25C330.113 777.945 329.812 777.617 329.57 777.266H329.43C329.453 777.57 329.48 777.934 329.512 778.355C329.551 778.777 329.57 779.148 329.57 779.469V784.742H327.484V766.133H329.195L329.477 768.02H329.57C329.82 767.629 330.121 767.273 330.473 766.953C330.832 766.633 331.27 766.379 331.785 766.191C332.301 765.996 332.914 765.898 333.625 765.898ZM333.215 767.645C332.348 767.645 331.648 767.812 331.117 768.148C330.586 768.484 330.199 768.988 329.957 769.66C329.715 770.324 329.586 771.164 329.57 772.18V772.555C329.57 773.617 329.684 774.52 329.91 775.262C330.145 775.996 330.531 776.555 331.07 776.938C331.609 777.32 332.332 777.512 333.238 777.512C334.012 777.512 334.656 777.305 335.172 776.891C335.695 776.469 336.082 775.879 336.332 775.121C336.59 774.363 336.719 773.492 336.719 772.508C336.719 771.008 336.43 769.824 335.852 768.957C335.281 768.082 334.402 767.645 333.215 767.645ZM347.207 765.898C348.309 765.898 349.254 766.141 350.043 766.625C350.832 767.109 351.438 767.789 351.859 768.664C352.281 769.531 352.492 770.551 352.492 771.723V772.977H343.645C343.676 774.445 344.047 775.566 344.758 776.34C345.469 777.105 346.473 777.488 347.77 777.488C348.582 777.488 349.305 777.414 349.938 777.266C350.57 777.109 351.223 776.887 351.895 776.598V778.391C351.246 778.688 350.602 778.902 349.961 779.035C349.32 779.168 348.559 779.234 347.676 779.234C346.441 779.234 345.359 778.984 344.43 778.484C343.508 777.977 342.789 777.234 342.273 776.258C341.758 775.281 341.5 774.082 341.5 772.66C341.5 771.27 341.734 770.066 342.203 769.051C342.672 768.035 343.332 767.258 344.184 766.719C345.043 766.172 346.051 765.898 347.207 765.898ZM347.184 767.574C346.176 767.574 345.367 767.906 344.758 768.57C344.156 769.227 343.801 770.152 343.691 771.348H350.336C350.328 770.605 350.211 769.949 349.984 769.379C349.758 768.809 349.414 768.367 348.953 768.055C348.492 767.734 347.902 767.574 347.184 767.574ZM361.727 765.898C361.977 765.898 362.238 765.914 362.512 765.945C362.793 765.969 363.043 766.004 363.262 766.051L363.016 767.984C362.812 767.93 362.582 767.887 362.324 767.855C362.066 767.824 361.828 767.809 361.609 767.809C361.102 767.809 360.617 767.91 360.156 768.113C359.703 768.309 359.305 768.598 358.961 768.98C358.617 769.355 358.348 769.809 358.152 770.34C357.957 770.871 357.859 771.469 357.859 772.133V779H355.773V766.133H357.473L357.719 768.488H357.801C358.066 768.012 358.387 767.578 358.762 767.188C359.137 766.797 359.57 766.484 360.062 766.25C360.562 766.016 361.117 765.898 361.727 765.898ZM367.762 766.133V779H365.688V766.133H367.762ZM366.742 761.305C367.086 761.305 367.379 761.41 367.621 761.621C367.863 761.832 367.984 762.164 367.984 762.617C367.984 763.07 367.863 763.406 367.621 763.625C367.379 763.836 367.086 763.941 366.742 763.941C366.391 763.941 366.098 763.836 365.863 763.625C365.629 763.406 365.512 763.07 365.512 762.617C365.512 762.164 365.629 761.832 365.863 761.621C366.098 761.41 366.391 761.305 366.742 761.305ZM376.832 765.898C377.934 765.898 378.879 766.141 379.668 766.625C380.457 767.109 381.062 767.789 381.484 768.664C381.906 769.531 382.117 770.551 382.117 771.723V772.977H373.27C373.301 774.445 373.672 775.566 374.383 776.34C375.094 777.105 376.098 777.488 377.395 777.488C378.207 777.488 378.93 777.414 379.562 777.266C380.195 777.109 380.848 776.887 381.52 776.598V778.391C380.871 778.688 380.227 778.902 379.586 779.035C378.945 779.168 378.184 779.234 377.301 779.234C376.066 779.234 374.984 778.984 374.055 778.484C373.133 777.977 372.414 777.234 371.898 776.258C371.383 775.281 371.125 774.082 371.125 772.66C371.125 771.27 371.359 770.066 371.828 769.051C372.297 768.035 372.957 767.258 373.809 766.719C374.668 766.172 375.676 765.898 376.832 765.898ZM376.809 767.574C375.801 767.574 374.992 767.906 374.383 768.57C373.781 769.227 373.426 770.152 373.316 771.348H379.961C379.953 770.605 379.836 769.949 379.609 769.379C379.383 768.809 379.039 768.367 378.578 768.055C378.117 767.734 377.527 767.574 376.809 767.574ZM391.586 765.898C393.102 765.898 394.25 766.273 395.031 767.023C395.82 767.766 396.215 768.965 396.215 770.621V779H394.164V770.809C394.164 769.754 393.926 768.965 393.449 768.441C392.973 767.91 392.242 767.645 391.258 767.645C389.859 767.645 388.879 768.043 388.316 768.84C387.754 769.637 387.473 770.797 387.473 772.32V779H385.398V766.133H387.062L387.367 767.973H387.484C387.758 767.52 388.105 767.141 388.527 766.836C388.949 766.531 389.422 766.301 389.945 766.145C390.469 765.98 391.016 765.898 391.586 765.898ZM405.367 779.234C404.203 779.234 403.176 778.996 402.285 778.52C401.402 778.043 400.715 777.316 400.223 776.34C399.73 775.363 399.484 774.129 399.484 772.637C399.484 771.082 399.746 769.809 400.27 768.816C400.793 767.824 401.512 767.09 402.426 766.613C403.348 766.137 404.395 765.898 405.566 765.898C406.23 765.898 406.863 765.965 407.465 766.098C408.066 766.23 408.562 766.398 408.953 766.602L408.332 768.324C407.926 768.16 407.469 768.016 406.961 767.891C406.453 767.758 405.973 767.691 405.52 767.691C404.652 767.691 403.93 767.883 403.352 768.266C402.781 768.641 402.352 769.191 402.062 769.918C401.781 770.645 401.641 771.543 401.641 772.613C401.641 773.637 401.777 774.512 402.051 775.238C402.332 775.957 402.75 776.508 403.305 776.891C403.859 777.266 404.551 777.453 405.379 777.453C406.066 777.453 406.684 777.379 407.23 777.23C407.785 777.074 408.289 776.895 408.742 776.691V778.531C408.297 778.758 407.809 778.93 407.277 779.047C406.746 779.172 406.109 779.234 405.367 779.234ZM416.77 765.898C417.871 765.898 418.816 766.141 419.605 766.625C420.395 767.109 421 767.789 421.422 768.664C421.844 769.531 422.055 770.551 422.055 771.723V772.977H413.207C413.238 774.445 413.609 775.566 414.32 776.34C415.031 777.105 416.035 777.488 417.332 777.488C418.145 777.488 418.867 777.414 419.5 777.266C420.133 777.109 420.785 776.887 421.457 776.598V778.391C420.809 778.688 420.164 778.902 419.523 779.035C418.883 779.168 418.121 779.234 417.238 779.234C416.004 779.234 414.922 778.984 413.992 778.484C413.07 777.977 412.352 777.234 411.836 776.258C411.32 775.281 411.062 774.082 411.062 772.66C411.062 771.27 411.297 770.066 411.766 769.051C412.234 768.035 412.895 767.258 413.746 766.719C414.605 766.172 415.613 765.898 416.77 765.898ZM416.746 767.574C415.738 767.574 414.93 767.906 414.32 768.57C413.719 769.227 413.363 770.152 413.254 771.348H419.898C419.891 770.605 419.773 769.949 419.547 769.379C419.32 768.809 418.977 768.367 418.516 768.055C418.055 767.734 417.465 767.574 416.746 767.574Z" fill="white"/>
</g>
<rect opacity="0.95" x="94.5" y="85.5" width="399" height="199" rx="11.5" fill="url(#paint21_linear_173_779)" stroke="url(#paint22_linear_173_779)"/>
<g opacity="0.9" filter="url(#filter17_d_173_779)">
<circle cx="293.5" cy="151.5" r="37.5" fill="#B4B8BD" fill-opacity="0.65"/>
<rect x="234" y="139" width="120" height="70" fill="#D9D9D9"/>
<rect x="249" y="139" width="90" height="25" fill="#636363"/>
<circle cx="294" cy="181" r="5" fill="#B4B8BD" fill-opacity="0.65"/>
</g>
<g filter="url(#filter18_i_173_779)">
<path d="M190.332 230.867H195.219C197.375 230.867 198.996 231.188 200.082 231.828C201.168 232.469 201.711 233.562 201.711 235.109C201.711 235.773 201.586 236.367 201.336 236.891C201.086 237.414 200.719 237.848 200.234 238.191C199.758 238.535 199.172 238.773 198.477 238.906V239.023C199.211 239.141 199.863 239.355 200.434 239.668C201.004 239.973 201.449 240.406 201.77 240.969C202.098 241.531 202.262 242.246 202.262 243.113C202.262 244.168 202.016 245.062 201.523 245.797C201.031 246.523 200.336 247.074 199.438 247.449C198.547 247.816 197.488 248 196.262 248H190.332V230.867ZM192.453 238.168H195.641C197.094 238.168 198.102 237.93 198.664 237.453C199.227 236.969 199.508 236.27 199.508 235.355C199.508 234.402 199.172 233.719 198.5 233.305C197.836 232.883 196.777 232.672 195.324 232.672H192.453V238.168ZM192.453 239.949V246.195H195.922C197.406 246.195 198.457 245.906 199.074 245.328C199.691 244.742 200 243.953 200 242.961C200 242.328 199.859 241.789 199.578 241.344C199.305 240.891 198.855 240.547 198.23 240.312C197.613 240.07 196.785 239.949 195.746 239.949H192.453ZM210.453 234.922C212 234.922 213.152 235.27 213.91 235.965C214.668 236.652 215.047 237.754 215.047 239.27V248H213.547L213.137 246.113H213.043C212.684 246.582 212.309 246.973 211.918 247.285C211.527 247.598 211.074 247.836 210.559 248C210.051 248.156 209.43 248.234 208.695 248.234C207.914 248.234 207.219 248.098 206.609 247.824C206 247.551 205.52 247.133 205.168 246.57C204.824 246.008 204.652 245.297 204.652 244.438C204.652 243.148 205.16 242.164 206.176 241.484C207.191 240.797 208.73 240.422 210.793 240.359L213.02 240.266V239.492C213.02 238.422 212.785 237.668 212.316 237.23C211.848 236.793 211.188 236.574 210.336 236.574C209.672 236.574 209.035 236.672 208.426 236.867C207.816 237.062 207.234 237.293 206.68 237.559L206.035 236.012C206.621 235.707 207.293 235.449 208.051 235.238C208.816 235.027 209.617 234.922 210.453 234.922ZM212.996 241.695L211.086 241.777C209.523 241.832 208.422 242.09 207.781 242.551C207.141 243.004 206.82 243.641 206.82 244.461C206.82 245.18 207.035 245.711 207.465 246.055C207.902 246.398 208.48 246.57 209.199 246.57C210.309 246.57 211.219 246.262 211.93 245.645C212.641 245.027 212.996 244.102 212.996 242.867V241.695ZM225.219 234.898C226.734 234.898 227.883 235.273 228.664 236.023C229.453 236.766 229.848 237.965 229.848 239.621V248H227.797V239.809C227.797 238.754 227.559 237.965 227.082 237.441C226.605 236.91 225.875 236.645 224.891 236.645C223.492 236.645 222.512 237.043 221.949 237.84C221.387 238.637 221.105 239.797 221.105 241.32V248H219.031V235.133H220.695L221 236.973H221.117C221.391 236.52 221.738 236.141 222.16 235.836C222.582 235.531 223.055 235.301 223.578 235.145C224.102 234.98 224.648 234.898 225.219 234.898ZM235.906 229.766V239.129C235.906 239.457 235.895 239.848 235.871 240.301C235.848 240.754 235.828 241.156 235.812 241.508H235.883C236.055 241.297 236.297 240.996 236.609 240.605C236.922 240.207 237.191 239.883 237.418 239.633L241.625 235.133H244.062L238.883 240.641L244.426 248H241.941L237.465 241.977L235.906 243.395V248H233.844V229.766H235.906ZM245.539 242.469V240.641H251.398V242.469H245.539ZM256.461 248H254.375V229.766H256.461V248ZM265.52 234.898C266.621 234.898 267.566 235.141 268.355 235.625C269.145 236.109 269.75 236.789 270.172 237.664C270.594 238.531 270.805 239.551 270.805 240.723V241.977H261.957C261.988 243.445 262.359 244.566 263.07 245.34C263.781 246.105 264.785 246.488 266.082 246.488C266.895 246.488 267.617 246.414 268.25 246.266C268.883 246.109 269.535 245.887 270.207 245.598V247.391C269.559 247.688 268.914 247.902 268.273 248.035C267.633 248.168 266.871 248.234 265.988 248.234C264.754 248.234 263.672 247.984 262.742 247.484C261.82 246.977 261.102 246.234 260.586 245.258C260.07 244.281 259.812 243.082 259.812 241.66C259.812 240.27 260.047 239.066 260.516 238.051C260.984 237.035 261.645 236.258 262.496 235.719C263.355 235.172 264.363 234.898 265.52 234.898ZM265.496 236.574C264.488 236.574 263.68 236.906 263.07 237.57C262.469 238.227 262.113 239.152 262.004 240.348H268.648C268.641 239.605 268.523 238.949 268.297 238.379C268.07 237.809 267.727 237.367 267.266 237.055C266.805 236.734 266.215 236.574 265.496 236.574ZM276.934 248L272.047 235.133H274.273L277.074 242.879C277.262 243.402 277.449 243.98 277.637 244.613C277.832 245.238 277.969 245.746 278.047 246.137H278.129C278.215 245.738 278.363 245.227 278.574 244.602C278.785 243.969 278.977 243.395 279.148 242.879L281.949 235.133H284.176L279.277 248H276.934ZM291.207 234.898C292.309 234.898 293.254 235.141 294.043 235.625C294.832 236.109 295.438 236.789 295.859 237.664C296.281 238.531 296.492 239.551 296.492 240.723V241.977H287.645C287.676 243.445 288.047 244.566 288.758 245.34C289.469 246.105 290.473 246.488 291.77 246.488C292.582 246.488 293.305 246.414 293.938 246.266C294.57 246.109 295.223 245.887 295.895 245.598V247.391C295.246 247.688 294.602 247.902 293.961 248.035C293.32 248.168 292.559 248.234 291.676 248.234C290.441 248.234 289.359 247.984 288.43 247.484C287.508 246.977 286.789 246.234 286.273 245.258C285.758 244.281 285.5 243.082 285.5 241.66C285.5 240.27 285.734 239.066 286.203 238.051C286.672 237.035 287.332 236.258 288.184 235.719C289.043 235.172 290.051 234.898 291.207 234.898ZM291.184 236.574C290.176 236.574 289.367 236.906 288.758 237.57C288.156 238.227 287.801 239.152 287.691 240.348H294.336C294.328 239.605 294.211 238.949 293.984 238.379C293.758 237.809 293.414 237.367 292.953 237.055C292.492 236.734 291.902 236.574 291.184 236.574ZM301.859 248H299.773V229.766H301.859V248ZM320.551 244.449C320.551 245.277 320.344 245.973 319.93 246.535C319.516 247.098 318.926 247.523 318.16 247.812C317.395 248.094 316.477 248.234 315.406 248.234C314.508 248.234 313.73 248.164 313.074 248.023C312.418 247.883 311.836 247.684 311.328 247.426V245.539C311.867 245.805 312.504 246.043 313.238 246.254C313.973 246.465 314.715 246.57 315.465 246.57C316.535 246.57 317.312 246.398 317.797 246.055C318.281 245.703 318.523 245.23 318.523 244.637C318.523 244.293 318.426 243.992 318.23 243.734C318.043 243.469 317.715 243.211 317.246 242.961C316.785 242.711 316.141 242.43 315.312 242.117C314.492 241.805 313.785 241.492 313.191 241.18C312.598 240.867 312.141 240.488 311.82 240.043C311.508 239.59 311.352 239.008 311.352 238.297C311.352 237.203 311.793 236.363 312.676 235.777C313.559 235.191 314.723 234.898 316.168 234.898C316.941 234.898 317.668 234.977 318.348 235.133C319.035 235.281 319.68 235.488 320.281 235.754L319.59 237.406C319.043 237.172 318.469 236.977 317.867 236.82C317.273 236.664 316.664 236.586 316.039 236.586C315.172 236.586 314.508 236.727 314.047 237.008C313.586 237.289 313.355 237.68 313.355 238.18C313.355 238.562 313.461 238.879 313.672 239.129C313.891 239.379 314.242 239.617 314.727 239.844C315.211 240.062 315.855 240.324 316.66 240.629C317.457 240.926 318.145 241.234 318.723 241.555C319.309 241.875 319.758 242.262 320.07 242.715C320.391 243.168 320.551 243.746 320.551 244.449ZM328.637 234.898C329.738 234.898 330.684 235.141 331.473 235.625C332.262 236.109 332.867 236.789 333.289 237.664C333.711 238.531 333.922 239.551 333.922 240.723V241.977H325.074C325.105 243.445 325.477 244.566 326.188 245.34C326.898 246.105 327.902 246.488 329.199 246.488C330.012 246.488 330.734 246.414 331.367 246.266C332 246.109 332.652 245.887 333.324 245.598V247.391C332.676 247.688 332.031 247.902 331.391 248.035C330.75 248.168 329.988 248.234 329.105 248.234C327.871 248.234 326.789 247.984 325.859 247.484C324.938 246.977 324.219 246.234 323.703 245.258C323.188 244.281 322.93 243.082 322.93 241.66C322.93 240.27 323.164 239.066 323.633 238.051C324.102 237.035 324.762 236.258 325.613 235.719C326.473 235.172 327.48 234.898 328.637 234.898ZM328.613 236.574C327.605 236.574 326.797 236.906 326.188 237.57C325.586 238.227 325.23 239.152 325.121 240.348H331.766C331.758 239.605 331.641 238.949 331.414 238.379C331.188 237.809 330.844 237.367 330.383 237.055C329.922 236.734 329.332 236.574 328.613 236.574ZM342.359 248.234C341.195 248.234 340.168 247.996 339.277 247.52C338.395 247.043 337.707 246.316 337.215 245.34C336.723 244.363 336.477 243.129 336.477 241.637C336.477 240.082 336.738 238.809 337.262 237.816C337.785 236.824 338.504 236.09 339.418 235.613C340.34 235.137 341.387 234.898 342.559 234.898C343.223 234.898 343.855 234.965 344.457 235.098C345.059 235.23 345.555 235.398 345.945 235.602L345.324 237.324C344.918 237.16 344.461 237.016 343.953 236.891C343.445 236.758 342.965 236.691 342.512 236.691C341.645 236.691 340.922 236.883 340.344 237.266C339.773 237.641 339.344 238.191 339.055 238.918C338.773 239.645 338.633 240.543 338.633 241.613C338.633 242.637 338.77 243.512 339.043 244.238C339.324 244.957 339.742 245.508 340.297 245.891C340.852 246.266 341.543 246.453 342.371 246.453C343.059 246.453 343.676 246.379 344.223 246.23C344.777 246.074 345.281 245.895 345.734 245.691V247.531C345.289 247.758 344.801 247.93 344.27 248.047C343.738 248.172 343.102 248.234 342.359 248.234ZM359.504 235.133V248H357.816L357.512 246.207H357.406C357.141 246.652 356.797 247.027 356.375 247.332C355.953 247.629 355.477 247.852 354.945 248C354.422 248.156 353.863 248.234 353.27 248.234C352.262 248.234 351.414 248.07 350.727 247.742C350.039 247.414 349.52 246.906 349.168 246.219C348.816 245.531 348.641 244.645 348.641 243.559V235.133H350.75V243.359C350.75 244.414 350.984 245.203 351.453 245.727C351.922 246.25 352.645 246.512 353.621 246.512C354.551 246.512 355.293 246.336 355.848 245.984C356.402 245.625 356.801 245.098 357.043 244.402C357.285 243.707 357.406 242.855 357.406 241.848V235.133H359.504ZM369.547 234.898C369.797 234.898 370.059 234.914 370.332 234.945C370.613 234.969 370.863 235.004 371.082 235.051L370.836 236.984C370.633 236.93 370.402 236.887 370.145 236.855C369.887 236.824 369.648 236.809 369.43 236.809C368.922 236.809 368.438 236.91 367.977 237.113C367.523 237.309 367.125 237.598 366.781 237.98C366.438 238.355 366.168 238.809 365.973 239.34C365.777 239.871 365.68 240.469 365.68 241.133V248H363.594V235.133H365.293L365.539 237.488H365.621C365.887 237.012 366.207 236.578 366.582 236.188C366.957 235.797 367.391 235.484 367.883 235.25C368.383 235.016 368.938 234.898 369.547 234.898ZM375.582 235.133V248H373.508V235.133H375.582ZM374.562 230.305C374.906 230.305 375.199 230.41 375.441 230.621C375.684 230.832 375.805 231.164 375.805 231.617C375.805 232.07 375.684 232.406 375.441 232.625C375.199 232.836 374.906 232.941 374.562 232.941C374.211 232.941 373.918 232.836 373.684 232.625C373.449 232.406 373.332 232.07 373.332 231.617C373.332 231.164 373.449 230.832 373.684 230.621C373.918 230.41 374.211 230.305 374.562 230.305ZM383.926 246.535C384.254 246.535 384.586 246.508 384.922 246.453C385.266 246.398 385.551 246.328 385.777 246.242V247.848C385.535 247.957 385.203 248.047 384.781 248.117C384.367 248.195 383.957 248.234 383.551 248.234C382.863 248.234 382.238 248.117 381.676 247.883C381.121 247.641 380.676 247.23 380.34 246.652C380.004 246.074 379.836 245.277 379.836 244.262V236.75H378.02V235.754L379.871 234.957L380.668 232.18H381.934V235.133H385.684V236.75H381.934V244.215C381.934 244.988 382.113 245.57 382.473 245.961C382.84 246.344 383.324 246.535 383.926 246.535ZM386.375 235.133H388.613L391.414 242.586C391.57 243 391.715 243.402 391.848 243.793C391.98 244.184 392.098 244.559 392.199 244.918C392.309 245.277 392.395 245.625 392.457 245.961H392.527C392.637 245.57 392.785 245.066 392.973 244.449C393.168 243.832 393.379 243.207 393.605 242.574L396.266 235.133H398.504L392.926 249.875C392.621 250.672 392.266 251.363 391.859 251.949C391.453 252.535 390.961 252.984 390.383 253.297C389.812 253.617 389.129 253.777 388.332 253.777C387.965 253.777 387.637 253.754 387.348 253.707C387.066 253.668 386.824 253.621 386.621 253.566V251.902C386.793 251.941 387 251.977 387.242 252.008C387.492 252.039 387.75 252.055 388.016 252.055C388.5 252.055 388.922 251.961 389.281 251.773C389.641 251.586 389.945 251.316 390.195 250.965C390.453 250.613 390.676 250.199 390.863 249.723L391.52 248.012L386.375 235.133Z" fill="white"/>
</g>
<path d="M348 390H268C265.791 390 264 391.791 264 394V434.192C264 436.401 265.791 438.192 268 438.192H333.688C334.84 438.192 335.935 438.689 336.695 439.554L344.993 449.013C347.427 451.788 352 450.066 352 446.375V438.192V394C352 391.791 350.209 390 348 390Z" fill="#B4B8BD"/>
<path d="M268 391H348C349.657 391 351 392.343 351 394V438.192V446.375C351 449.143 347.57 450.435 345.745 448.354L337.447 438.895C336.497 437.813 335.128 437.192 333.688 437.192H268C266.343 437.192 265 435.849 265 434.192V394C265 392.343 266.343 391 268 391Z" stroke="url(#paint23_linear_173_779)" stroke-opacity="0.8" stroke-width="2" stroke-linecap="round"/>
<path d="M241 418.5H321C323.209 418.5 325 420.291 325 422.5V462.692C325 464.901 323.209 466.692 321 466.692H255.312C254.16 466.692 253.065 467.189 252.305 468.054L244.007 477.513C241.573 480.288 237 478.566 237 474.875V466.692V422.5C237 420.291 238.791 418.5 241 418.5Z" fill="url(#paint24_linear_173_779)"/>
<path d="M321 419.5H241C239.343 419.5 238 420.843 238 422.5V466.692V474.875C238 477.643 241.43 478.935 243.255 476.854L251.553 467.395C252.503 466.313 253.872 465.692 255.312 465.692H321C322.657 465.692 324 464.349 324 462.692V422.5C324 420.843 322.657 419.5 321 419.5Z" stroke="url(#paint25_linear_173_779)" stroke-opacity="0.8" stroke-width="2" stroke-linecap="round"/>
<path d="M266 421H321C322.105 421 323 421.895 323 423V436H268C266.895 436 266 435.105 266 434V421Z" fill="#5F5F5F"/>
<rect x="233" y="700.686" width="32" height="32" transform="rotate(-45 233 700.686)" fill="#D9D9D9"/>
<rect x="255.627" y="723.313" width="32" height="32" transform="rotate(-45 255.627 723.313)" fill="#5F5F5F"/>
<rect x="277.627" y="700.568" width="80" height="32" transform="rotate(-45 277.627 700.568)" fill="#6F7073"/>
<g filter="url(#filter19_i_173_779)">
<path d="M204.926 494.867L200.355 512H198.176L194.871 500.68C194.777 500.359 194.684 500.035 194.59 499.707C194.504 499.371 194.422 499.051 194.344 498.746C194.266 498.434 194.199 498.156 194.145 497.914C194.09 497.672 194.051 497.488 194.027 497.363C194.012 497.488 193.98 497.672 193.934 497.914C193.895 498.148 193.84 498.418 193.77 498.723C193.699 499.027 193.621 499.352 193.535 499.695C193.449 500.031 193.355 500.363 193.254 500.691L190.031 512H187.852L183.328 494.867H185.52L188.227 505.496C188.32 505.848 188.406 506.199 188.484 506.551C188.57 506.902 188.645 507.246 188.707 507.582C188.777 507.918 188.84 508.246 188.895 508.566C188.949 508.887 189 509.195 189.047 509.492C189.086 509.188 189.137 508.867 189.199 508.531C189.262 508.195 189.328 507.852 189.398 507.5C189.477 507.148 189.559 506.797 189.645 506.445C189.738 506.094 189.836 505.75 189.938 505.414L192.961 494.867H195.129L198.281 505.484C198.391 505.844 198.488 506.203 198.574 506.562C198.668 506.914 198.75 507.266 198.82 507.617C198.898 507.961 198.965 508.293 199.02 508.613C199.082 508.926 199.137 509.219 199.184 509.492C199.238 509.109 199.305 508.703 199.383 508.273C199.469 507.836 199.562 507.383 199.664 506.914C199.773 506.445 199.887 505.969 200.004 505.484L202.711 494.867H204.926ZM209.355 493.766V499.074C209.355 499.41 209.348 499.75 209.332 500.094C209.316 500.43 209.289 500.73 209.25 500.996H209.379C209.645 500.543 209.98 500.164 210.387 499.859C210.801 499.547 211.266 499.312 211.781 499.156C212.305 499 212.855 498.922 213.434 498.922C214.457 498.922 215.316 499.086 216.012 499.414C216.707 499.742 217.227 500.25 217.57 500.938C217.922 501.625 218.098 502.52 218.098 503.621V512H216.047V503.809C216.047 502.754 215.809 501.965 215.332 501.441C214.855 500.91 214.125 500.645 213.141 500.645C212.203 500.645 211.457 500.824 210.902 501.184C210.355 501.543 209.961 502.074 209.719 502.777C209.477 503.473 209.355 504.324 209.355 505.332V512H207.281V493.766H209.355ZM224.168 499.133V512H222.094V499.133H224.168ZM223.148 494.305C223.492 494.305 223.785 494.41 224.027 494.621C224.27 494.832 224.391 495.164 224.391 495.617C224.391 496.07 224.27 496.406 224.027 496.625C223.785 496.836 223.492 496.941 223.148 496.941C222.797 496.941 222.504 496.836 222.27 496.625C222.035 496.406 221.918 496.07 221.918 495.617C221.918 495.164 222.035 494.832 222.27 494.621C222.504 494.41 222.797 494.305 223.148 494.305ZM232.512 510.535C232.84 510.535 233.172 510.508 233.508 510.453C233.852 510.398 234.137 510.328 234.363 510.242V511.848C234.121 511.957 233.789 512.047 233.367 512.117C232.953 512.195 232.543 512.234 232.137 512.234C231.449 512.234 230.824 512.117 230.262 511.883C229.707 511.641 229.262 511.23 228.926 510.652C228.59 510.074 228.422 509.277 228.422 508.262V500.75H226.605V499.754L228.457 498.957L229.254 496.18H230.52V499.133H234.27V500.75H230.52V508.215C230.52 508.988 230.699 509.57 231.059 509.961C231.426 510.344 231.91 510.535 232.512 510.535ZM241.957 498.898C243.059 498.898 244.004 499.141 244.793 499.625C245.582 500.109 246.188 500.789 246.609 501.664C247.031 502.531 247.242 503.551 247.242 504.723V505.977H238.395C238.426 507.445 238.797 508.566 239.508 509.34C240.219 510.105 241.223 510.488 242.52 510.488C243.332 510.488 244.055 510.414 244.688 510.266C245.32 510.109 245.973 509.887 246.645 509.598V511.391C245.996 511.688 245.352 511.902 244.711 512.035C244.07 512.168 243.309 512.234 242.426 512.234C241.191 512.234 240.109 511.984 239.18 511.484C238.258 510.977 237.539 510.234 237.023 509.258C236.508 508.281 236.25 507.082 236.25 505.66C236.25 504.27 236.484 503.066 236.953 502.051C237.422 501.035 238.082 500.258 238.934 499.719C239.793 499.172 240.801 498.898 241.957 498.898ZM241.934 500.574C240.926 500.574 240.117 500.906 239.508 501.57C238.906 502.227 238.551 503.152 238.441 504.348H245.086C245.078 503.605 244.961 502.949 244.734 502.379C244.508 501.809 244.164 501.367 243.703 501.055C243.242 500.734 242.652 500.574 241.934 500.574ZM249.422 506.469V504.641H255.281V506.469H249.422ZM261.855 517.766C260.16 517.766 258.852 517.449 257.93 516.816C257.016 516.191 256.559 515.312 256.559 514.18C256.559 513.375 256.812 512.688 257.32 512.117C257.836 511.555 258.547 511.176 259.453 510.98C259.117 510.824 258.828 510.59 258.586 510.277C258.344 509.957 258.223 509.594 258.223 509.188C258.223 508.719 258.355 508.309 258.621 507.957C258.887 507.605 259.289 507.266 259.828 506.938C259.148 506.656 258.602 506.191 258.188 505.543C257.773 504.887 257.566 504.125 257.566 503.258C257.566 502.336 257.758 501.547 258.141 500.891C258.531 500.234 259.09 499.734 259.816 499.391C260.551 499.047 261.438 498.875 262.477 498.875C262.703 498.875 262.934 498.887 263.168 498.91C263.41 498.934 263.641 498.965 263.859 499.004C264.078 499.035 264.262 499.07 264.41 499.109H268.828V500.41L266.484 500.727C266.719 501.031 266.91 501.395 267.059 501.816C267.215 502.238 267.293 502.703 267.293 503.211C267.293 504.5 266.852 505.523 265.969 506.281C265.094 507.039 263.891 507.418 262.359 507.418C261.992 507.418 261.621 507.387 261.246 507.324C260.879 507.527 260.602 507.754 260.414 508.004C260.227 508.254 260.133 508.539 260.133 508.859C260.133 509.109 260.207 509.309 260.355 509.457C260.504 509.598 260.723 509.703 261.012 509.773C261.309 509.836 261.66 509.867 262.066 509.867H264.328C265.727 509.867 266.797 510.16 267.539 510.746C268.289 511.332 268.664 512.191 268.664 513.324C268.664 514.754 268.082 515.852 266.918 516.617C265.754 517.383 264.066 517.766 261.855 517.766ZM261.926 516.172C262.973 516.172 263.84 516.066 264.527 515.855C265.223 515.645 265.742 515.344 266.086 514.953C266.438 514.562 266.613 514.094 266.613 513.547C266.613 513.047 266.496 512.668 266.262 512.41C266.035 512.16 265.695 511.992 265.242 511.906C264.797 511.812 264.25 511.766 263.602 511.766H261.398C260.836 511.766 260.34 511.852 259.91 512.023C259.488 512.203 259.164 512.465 258.938 512.809C258.711 513.152 258.598 513.578 258.598 514.086C258.598 514.766 258.887 515.281 259.465 515.633C260.043 515.992 260.863 516.172 261.926 516.172ZM262.441 505.941C263.348 505.941 264.027 505.711 264.48 505.25C264.941 504.781 265.172 504.105 265.172 503.223C265.172 502.277 264.938 501.566 264.469 501.09C264.008 500.613 263.324 500.375 262.418 500.375C261.543 500.375 260.871 500.621 260.402 501.113C259.941 501.598 259.711 502.312 259.711 503.258C259.711 504.117 259.945 504.781 260.414 505.25C260.883 505.711 261.559 505.941 262.441 505.941ZM273.422 512H271.336V493.766H273.422V512ZM288.645 505.543C288.645 506.605 288.504 507.551 288.223 508.379C287.949 509.207 287.551 509.906 287.027 510.477C286.512 511.047 285.887 511.484 285.152 511.789C284.418 512.086 283.586 512.234 282.656 512.234C281.797 512.234 281.008 512.086 280.289 511.789C279.57 511.484 278.949 511.047 278.426 510.477C277.902 509.906 277.496 509.207 277.207 508.379C276.918 507.551 276.773 506.605 276.773 505.543C276.773 504.137 277.012 502.938 277.488 501.945C277.973 500.953 278.66 500.199 279.551 499.684C280.441 499.16 281.504 498.898 282.738 498.898C283.918 498.898 284.949 499.16 285.832 499.684C286.715 500.207 287.402 500.965 287.895 501.957C288.395 502.949 288.645 504.145 288.645 505.543ZM278.93 505.543C278.93 506.559 279.062 507.441 279.328 508.191C279.594 508.934 280.004 509.508 280.559 509.914C281.113 510.312 281.828 510.512 282.703 510.512C283.578 510.512 284.293 510.312 284.848 509.914C285.41 509.508 285.824 508.934 286.09 508.191C286.355 507.441 286.488 506.559 286.488 505.543C286.488 504.535 286.355 503.664 286.09 502.93C285.824 502.195 285.414 501.633 284.859 501.242C284.305 500.844 283.582 500.645 282.691 500.645C281.395 500.645 280.441 501.078 279.832 501.945C279.23 502.805 278.93 504.004 278.93 505.543ZM294.832 512L289.945 499.133H292.172L294.973 506.879C295.16 507.402 295.348 507.98 295.535 508.613C295.73 509.238 295.867 509.746 295.945 510.137H296.027C296.113 509.738 296.262 509.227 296.473 508.602C296.684 507.969 296.875 507.395 297.047 506.879L299.848 499.133H302.074L297.176 512H294.832ZM309.105 498.898C310.207 498.898 311.152 499.141 311.941 499.625C312.73 500.109 313.336 500.789 313.758 501.664C314.18 502.531 314.391 503.551 314.391 504.723V505.977H305.543C305.574 507.445 305.945 508.566 306.656 509.34C307.367 510.105 308.371 510.488 309.668 510.488C310.48 510.488 311.203 510.414 311.836 510.266C312.469 510.109 313.121 509.887 313.793 509.598V511.391C313.145 511.688 312.5 511.902 311.859 512.035C311.219 512.168 310.457 512.234 309.574 512.234C308.34 512.234 307.258 511.984 306.328 511.484C305.406 510.977 304.688 510.234 304.172 509.258C303.656 508.281 303.398 507.082 303.398 505.66C303.398 504.27 303.633 503.066 304.102 502.051C304.57 501.035 305.23 500.258 306.082 499.719C306.941 499.172 307.949 498.898 309.105 498.898ZM309.082 500.574C308.074 500.574 307.266 500.906 306.656 501.57C306.055 502.227 305.699 503.152 305.59 504.348H312.234C312.227 503.605 312.109 502.949 311.883 502.379C311.656 501.809 311.312 501.367 310.852 501.055C310.391 500.734 309.801 500.574 309.082 500.574ZM332.285 508.449C332.285 509.277 332.078 509.973 331.664 510.535C331.25 511.098 330.66 511.523 329.895 511.812C329.129 512.094 328.211 512.234 327.141 512.234C326.242 512.234 325.465 512.164 324.809 512.023C324.152 511.883 323.57 511.684 323.062 511.426V509.539C323.602 509.805 324.238 510.043 324.973 510.254C325.707 510.465 326.449 510.57 327.199 510.57C328.27 510.57 329.047 510.398 329.531 510.055C330.016 509.703 330.258 509.23 330.258 508.637C330.258 508.293 330.16 507.992 329.965 507.734C329.777 507.469 329.449 507.211 328.98 506.961C328.52 506.711 327.875 506.43 327.047 506.117C326.227 505.805 325.52 505.492 324.926 505.18C324.332 504.867 323.875 504.488 323.555 504.043C323.242 503.59 323.086 503.008 323.086 502.297C323.086 501.203 323.527 500.363 324.41 499.777C325.293 499.191 326.457 498.898 327.902 498.898C328.676 498.898 329.402 498.977 330.082 499.133C330.77 499.281 331.414 499.488 332.016 499.754L331.324 501.406C330.777 501.172 330.203 500.977 329.602 500.82C329.008 500.664 328.398 500.586 327.773 500.586C326.906 500.586 326.242 500.727 325.781 501.008C325.32 501.289 325.09 501.68 325.09 502.18C325.09 502.562 325.195 502.879 325.406 503.129C325.625 503.379 325.977 503.617 326.461 503.844C326.945 504.062 327.59 504.324 328.395 504.629C329.191 504.926 329.879 505.234 330.457 505.555C331.043 505.875 331.492 506.262 331.805 506.715C332.125 507.168 332.285 507.746 332.285 508.449ZM346.113 499.133V512H344.426L344.121 510.207H344.016C343.75 510.652 343.406 511.027 342.984 511.332C342.562 511.629 342.086 511.852 341.555 512C341.031 512.156 340.473 512.234 339.879 512.234C338.871 512.234 338.023 512.07 337.336 511.742C336.648 511.414 336.129 510.906 335.777 510.219C335.426 509.531 335.25 508.645 335.25 507.559V499.133H337.359V507.359C337.359 508.414 337.594 509.203 338.062 509.727C338.531 510.25 339.254 510.512 340.23 510.512C341.16 510.512 341.902 510.336 342.457 509.984C343.012 509.625 343.41 509.098 343.652 508.402C343.895 507.707 344.016 506.855 344.016 505.848V499.133H346.113ZM356.344 498.898C357.93 498.898 359.195 499.453 360.141 500.562C361.094 501.664 361.57 503.32 361.57 505.531C361.57 506.992 361.352 508.223 360.914 509.223C360.484 510.215 359.871 510.965 359.074 511.473C358.285 511.98 357.355 512.234 356.285 512.234C355.613 512.234 355.02 512.145 354.504 511.965C353.996 511.785 353.559 511.547 353.191 511.25C352.832 510.945 352.531 510.617 352.289 510.266H352.148C352.172 510.57 352.199 510.934 352.23 511.355C352.27 511.777 352.289 512.148 352.289 512.469V517.742H350.203V499.133H351.914L352.195 501.02H352.289C352.539 500.629 352.84 500.273 353.191 499.953C353.551 499.633 353.988 499.379 354.504 499.191C355.02 498.996 355.633 498.898 356.344 498.898ZM355.934 500.645C355.066 500.645 354.367 500.812 353.836 501.148C353.305 501.484 352.918 501.988 352.676 502.66C352.434 503.324 352.305 504.164 352.289 505.18V505.555C352.289 506.617 352.402 507.52 352.629 508.262C352.863 508.996 353.25 509.555 353.789 509.938C354.328 510.32 355.051 510.512 355.957 510.512C356.73 510.512 357.375 510.305 357.891 509.891C358.414 509.469 358.801 508.879 359.051 508.121C359.309 507.363 359.438 506.492 359.438 505.508C359.438 504.008 359.148 502.824 358.57 501.957C358 501.082 357.121 500.645 355.934 500.645ZM371.086 498.898C372.672 498.898 373.938 499.453 374.883 500.562C375.836 501.664 376.312 503.32 376.312 505.531C376.312 506.992 376.094 508.223 375.656 509.223C375.227 510.215 374.613 510.965 373.816 511.473C373.027 511.98 372.098 512.234 371.027 512.234C370.355 512.234 369.762 512.145 369.246 511.965C368.738 511.785 368.301 511.547 367.934 511.25C367.574 510.945 367.273 510.617 367.031 510.266H366.891C366.914 510.57 366.941 510.934 366.973 511.355C367.012 511.777 367.031 512.148 367.031 512.469V517.742H364.945V499.133H366.656L366.938 501.02H367.031C367.281 500.629 367.582 500.273 367.934 499.953C368.293 499.633 368.73 499.379 369.246 499.191C369.762 498.996 370.375 498.898 371.086 498.898ZM370.676 500.645C369.809 500.645 369.109 500.812 368.578 501.148C368.047 501.484 367.66 501.988 367.418 502.66C367.176 503.324 367.047 504.164 367.031 505.18V505.555C367.031 506.617 367.145 507.52 367.371 508.262C367.605 508.996 367.992 509.555 368.531 509.938C369.07 510.32 369.793 510.512 370.699 510.512C371.473 510.512 372.117 510.305 372.633 509.891C373.156 509.469 373.543 508.879 373.793 508.121C374.051 507.363 374.18 506.492 374.18 505.508C374.18 504.008 373.891 502.824 373.312 501.957C372.742 501.082 371.863 500.645 370.676 500.645ZM390.832 505.543C390.832 506.605 390.691 507.551 390.41 508.379C390.137 509.207 389.738 509.906 389.215 510.477C388.699 511.047 388.074 511.484 387.34 511.789C386.605 512.086 385.773 512.234 384.844 512.234C383.984 512.234 383.195 512.086 382.477 511.789C381.758 511.484 381.137 511.047 380.613 510.477C380.09 509.906 379.684 509.207 379.395 508.379C379.105 507.551 378.961 506.605 378.961 505.543C378.961 504.137 379.199 502.938 379.676 501.945C380.16 500.953 380.848 500.199 381.738 499.684C382.629 499.16 383.691 498.898 384.926 498.898C386.105 498.898 387.137 499.16 388.02 499.684C388.902 500.207 389.59 500.965 390.082 501.957C390.582 502.949 390.832 504.145 390.832 505.543ZM381.117 505.543C381.117 506.559 381.25 507.441 381.516 508.191C381.781 508.934 382.191 509.508 382.746 509.914C383.301 510.312 384.016 510.512 384.891 510.512C385.766 510.512 386.48 510.312 387.035 509.914C387.598 509.508 388.012 508.934 388.277 508.191C388.543 507.441 388.676 506.559 388.676 505.543C388.676 504.535 388.543 503.664 388.277 502.93C388.012 502.195 387.602 501.633 387.047 501.242C386.492 500.844 385.77 500.645 384.879 500.645C383.582 500.645 382.629 501.078 382.02 501.945C381.418 502.805 381.117 504.004 381.117 505.543ZM400.125 498.898C400.375 498.898 400.637 498.914 400.91 498.945C401.191 498.969 401.441 499.004 401.66 499.051L401.414 500.984C401.211 500.93 400.98 500.887 400.723 500.855C400.465 500.824 400.227 500.809 400.008 500.809C399.5 500.809 399.016 500.91 398.555 501.113C398.102 501.309 397.703 501.598 397.359 501.98C397.016 502.355 396.746 502.809 396.551 503.34C396.355 503.871 396.258 504.469 396.258 505.133V512H394.172V499.133H395.871L396.117 501.488H396.199C396.465 501.012 396.785 500.578 397.16 500.188C397.535 499.797 397.969 499.484 398.461 499.25C398.961 499.016 399.516 498.898 400.125 498.898ZM408.34 510.535C408.668 510.535 409 510.508 409.336 510.453C409.68 510.398 409.965 510.328 410.191 510.242V511.848C409.949 511.957 409.617 512.047 409.195 512.117C408.781 512.195 408.371 512.234 407.965 512.234C407.277 512.234 406.652 512.117 406.09 511.883C405.535 511.641 405.09 511.23 404.754 510.652C404.418 510.074 404.25 509.277 404.25 508.262V500.75H402.434V499.754L404.285 498.957L405.082 496.18H406.348V499.133H410.098V500.75H406.348V508.215C406.348 508.988 406.527 509.57 406.887 509.961C407.254 510.344 407.738 510.535 408.34 510.535Z" fill="white"/>
</g>
</g>
</g>
<defs>
<filter id="filter0_b_173_779" x="290" y="-10" width="110" height="910" filterUnits="userSpaceOnUse" color-interpolation-filters="sRGB">
<feFlood flood-opacity="0" result="BackgroundImageFix"/>
<feGaussianBlur in="BackgroundImageFix" stdDeviation="2"/>
<feComposite in2="SourceAlpha" operator="in" result="effect1_backgroundBlur_173_779"/>
<feBlend mode="normal" in="SourceGraphic" in2="effect1_backgroundBlur_173_779" result="shape"/>
</filter>
<filter id="filter1_b_173_779" x="390" y="-10" width="110" height="910" filterUnits="userSpaceOnUse" color-interpolation-filters="sRGB">
<feFlood flood-opacity="0" result="BackgroundImageFix"/>
<feGaussianBlur in="BackgroundImageFix" stdDeviation="2"/>
<feComposite in2="SourceAlpha" operator="in" result="effect1_backgroundBlur_173_779"/>
<feBlend mode="normal" in="SourceGraphic" in2="effect1_backgroundBlur_173_779" result="shape"/>
</filter>
<filter id="filter2_b_173_779" x="490" y="-10" width="110" height="910" filterUnits="userSpaceOnUse" color-interpolation-filters="sRGB">
<feFlood flood-opacity="0" result="BackgroundImageFix"/>
<feGaussianBlur in="BackgroundImageFix" stdDeviation="2"/>
<feComposite in2="SourceAlpha" operator="in" result="effect1_backgroundBlur_173_779"/>
<feBlend mode="normal" in="SourceGraphic" in2="effect1_backgroundBlur_173_779" result="shape"/>
</filter>
<filter id="filter3_b_173_779" x="190" y="-10" width="110" height="910" filterUnits="userSpaceOnUse" color-interpolation-filters="sRGB">
<feFlood flood-opacity="0" result="BackgroundImageFix"/>
<feGaussianBlur in="BackgroundImageFix" stdDeviation="2"/>
<feComposite in2="SourceAlpha" operator="in" result="effect1_backgroundBlur_173_779"/>
<feBlend mode="normal" in="SourceGraphic" in2="effect1_backgroundBlur_173_779" result="shape"/>
</filter>
<filter id="filter4_b_173_779" x="90" y="-10" width="110" height="910" filterUnits="userSpaceOnUse" color-interpolation-filters="sRGB">
<feFlood flood-opacity="0" result="BackgroundImageFix"/>
<feGaussianBlur in="BackgroundImageFix" stdDeviation="2"/>
<feComposite in2="SourceAlpha" operator="in" result="effect1_backgroundBlur_173_779"/>
<feBlend mode="normal" in="SourceGraphic" in2="effect1_backgroundBlur_173_779" result="shape"/>
</filter>
<filter id="filter5_b_173_779" x="-10" y="-10" width="110" height="910" filterUnits="userSpaceOnUse" color-interpolation-filters="sRGB">
<feFlood flood-opacity="0" result="BackgroundImageFix"/>
<feGaussianBlur in="BackgroundImageFix" stdDeviation="2"/>
<feComposite in2="SourceAlpha" operator="in" result="effect1_backgroundBlur_173_779"/>
<feBlend mode="normal" in="SourceGraphic" in2="effect1_backgroundBlur_173_779" result="shape"/>
</filter>
<filter id="filter6_b_173_779" x="-9" y="-9" width="608" height="98" filterUnits="userSpaceOnUse" color-interpolation-filters="sRGB">
<feFlood flood-opacity="0" result="BackgroundImageFix"/>
<feGaussianBlur in="BackgroundImageFix" stdDeviation="2"/>
<feComposite in2="SourceAlpha" operator="in" result="effect1_backgroundBlur_173_779"/>
<feBlend mode="normal" in="SourceGraphic" in2="effect1_backgroundBlur_173_779" result="shape"/>
</filter>
<filter id="filter7_b_173_779" x="-9" y="261" width="608" height="98" filterUnits="userSpaceOnUse" color-interpolation-filters="sRGB">
<feFlood flood-opacity="0" result="BackgroundImageFix"/>
<feGaussianBlur in="BackgroundImageFix" stdDeviation="2"/>
<feComposite in2="SourceAlpha" operator="in" result="effect1_backgroundBlur_173_779"/>
<feBlend mode="normal" in="SourceGraphic" in2="effect1_backgroundBlur_173_779" result="shape"/>
</filter>
<filter id="filter8_b_173_779" x="-9" y="81" width="608" height="98" filterUnits="userSpaceOnUse" color-interpolation-filters="sRGB">
<feFlood flood-opacity="0" result="BackgroundImageFix"/>
<feGaussianBlur in="BackgroundImageFix" stdDeviation="2"/>
<feComposite in2="SourceAlpha" operator="in" result="effect1_backgroundBlur_173_779"/>
<feBlend mode="normal" in="SourceGraphic" in2="effect1_backgroundBlur_173_779" result="shape"/>
</filter>
<filter id="filter9_b_173_779" x="-9" y="351" width="608" height="98" filterUnits="userSpaceOnUse" color-interpolation-filters="sRGB">
<feFlood flood-opacity="0" result="BackgroundImageFix"/>
<feGaussianBlur in="BackgroundImageFix" stdDeviation="2"/>
<feComposite in2="SourceAlpha" operator="in" result="effect1_backgroundBlur_173_779"/>
<feBlend mode="normal" in="SourceGraphic" in2="effect1_backgroundBlur_173_779" result="shape"/>
</filter>
<filter id="filter10_b_173_779" x="-9" y="711" width="608" height="98" filterUnits="userSpaceOnUse" color-interpolation-filters="sRGB">
<feFlood flood-opacity="0" result="BackgroundImageFix"/>
<feGaussianBlur in="BackgroundImageFix" stdDeviation="2"/>
<feComposite in2="SourceAlpha" operator="in" result="effect1_backgroundBlur_173_779"/>
<feBlend mode="normal" in="SourceGraphic" in2="effect1_backgroundBlur_173_779" result="shape"/>
</filter>
<filter id="filter11_b_173_779" x="-9" y="621" width="608" height="98" filterUnits="userSpaceOnUse" color-interpolation-filters="sRGB">
<feFlood flood-opacity="0" result="BackgroundImageFix"/>
<feGaussianBlur in="BackgroundImageFix" stdDeviation="2"/>
<feComposite in2="SourceAlpha" operator="in" result="effect1_backgroundBlur_173_779"/>
<feBlend mode="normal" in="SourceGraphic" in2="effect1_backgroundBlur_173_779" result="shape"/>
</filter>
<filter id="filter12_b_173_779" x="-9" y="531" width="608" height="98" filterUnits="userSpaceOnUse" color-interpolation-filters="sRGB">
<feFlood flood-opacity="0" result="BackgroundImageFix"/>
<feGaussianBlur in="BackgroundImageFix" stdDeviation="2"/>
<feComposite in2="SourceAlpha" operator="in" result="effect1_backgroundBlur_173_779"/>
<feBlend mode="normal" in="SourceGraphic" in2="effect1_backgroundBlur_173_779" result="shape"/>
</filter>
<filter id="filter13_b_173_779" x="-9" y="441" width="608" height="98" filterUnits="userSpaceOnUse" color-interpolation-filters="sRGB">
<feFlood flood-opacity="0" result="BackgroundImageFix"/>
<feGaussianBlur in="BackgroundImageFix" stdDeviation="2"/>
<feComposite in2="SourceAlpha" operator="in" result="effect1_backgroundBlur_173_779"/>
<feBlend mode="normal" in="SourceGraphic" in2="effect1_backgroundBlur_173_779" result="shape"/>
</filter>
<filter id="filter14_b_173_779" x="-9" y="171" width="608" height="98" filterUnits="userSpaceOnUse" color-interpolation-filters="sRGB">
<feFlood flood-opacity="0" result="BackgroundImageFix"/>
<feGaussianBlur in="BackgroundImageFix" stdDeviation="2"/>
<feComposite in2="SourceAlpha" operator="in" result="effect1_backgroundBlur_173_779"/>
<feBlend mode="normal" in="SourceGraphic" in2="effect1_backgroundBlur_173_779" result="shape"/>
</filter>
<filter id="filter15_b_173_779" x="-9" y="801" width="608" height="98" filterUnits="userSpaceOnUse" color-interpolation-filters="sRGB">
<feFlood flood-opacity="0" result="BackgroundImageFix"/>
<feGaussianBlur in="BackgroundImageFix" stdDeviation="2"/>
<feComposite in2="SourceAlpha" operator="in" result="effect1_backgroundBlur_173_779"/>
<feBlend mode="normal" in="SourceGraphic" in2="effect1_backgroundBlur_173_779" result="shape"/>
</filter>
<filter id="filter16_i_173_779" x="168.332" y="760.766" width="253.723" height="27.9766" filterUnits="userSpaceOnUse" color-interpolation-filters="sRGB">
<feFlood flood-opacity="0" result="BackgroundImageFix"/>
<feBlend mode="normal" in="SourceGraphic" in2="BackgroundImageFix" result="shape"/>
<feColorMatrix in="SourceAlpha" type="matrix" values="0 0 0 0 0 0 0 0 0 0 0 0 0 0 0 0 0 0 127 0" result="hardAlpha"/>
<feOffset dy="4"/>
<feGaussianBlur stdDeviation="2"/>
<feComposite in2="hardAlpha" operator="arithmetic" k2="-1" k3="1"/>
<feColorMatrix type="matrix" values="0 0 0 0 0 0 0 0 0 0 0 0 0 0 0 0 0 0 0.25 0"/>
<feBlend mode="normal" in2="shape" result="effect1_innerShadow_173_779"/>
</filter>
<filter id="filter17_d_173_779" x="226" y="110" width="136" height="111" filterUnits="userSpaceOnUse" color-interpolation-filters="sRGB">
<feFlood flood-opacity="0" result="BackgroundImageFix"/>
<feColorMatrix in="SourceAlpha" type="matrix" values="0 0 0 0 0 0 0 0 0 0 0 0 0 0 0 0 0 0 127 0" result="hardAlpha"/>
<feOffset dy="4"/>
<feGaussianBlur stdDeviation="4"/>
<feComposite in2="hardAlpha" operator="out"/>
<feColorMatrix type="matrix" values="0 0 0 0 0 0 0 0 0 0 0 0 0 0 0 0 0 0 0.25 0"/>
<feBlend mode="normal" in2="BackgroundImageFix" result="effect1_dropShadow_173_779"/>
<feBlend mode="normal" in="SourceGraphic" in2="effect1_dropShadow_173_779" result="shape"/>
</filter>
<filter id="filter18_i_173_779" x="190.332" y="229.766" width="208.172" height="28.0117" filterUnits="userSpaceOnUse" color-interpolation-filters="sRGB">
<feFlood flood-opacity="0" result="BackgroundImageFix"/>
<feBlend mode="normal" in="SourceGraphic" in2="BackgroundImageFix" result="shape"/>
<feColorMatrix in="SourceAlpha" type="matrix" values="0 0 0 0 0 0 0 0 0 0 0 0 0 0 0 0 0 0 127 0" result="hardAlpha"/>
<feOffset dy="4"/>
<feGaussianBlur stdDeviation="2"/>
<feComposite in2="hardAlpha" operator="arithmetic" k2="-1" k3="1"/>
<feColorMatrix type="matrix" values="0 0 0 0 0 0 0 0 0 0 0 0 0 0 0 0 0 0 0.25 0"/>
<feBlend mode="normal" in2="shape" result="effect1_innerShadow_173_779"/>
</filter>
<filter id="filter19_i_173_779" x="183.328" y="493.766" width="226.863" height="28" filterUnits="userSpaceOnUse" color-interpolation-filters="sRGB">
<feFlood flood-opacity="0" result="BackgroundImageFix"/>
<feBlend mode="normal" in="SourceGraphic" in2="BackgroundImageFix" result="shape"/>
<feColorMatrix in="SourceAlpha" type="matrix" values="0 0 0 0 0 0 0 0 0 0 0 0 0 0 0 0 0 0 127 0" result="hardAlpha"/>
<feOffset dy="4"/>
<feGaussianBlur stdDeviation="2"/>
<feComposite in2="hardAlpha" operator="arithmetic" k2="-1" k3="1"/>
<feColorMatrix type="matrix" values="0 0 0 0 0 0 0 0 0 0 0 0 0 0 0 0 0 0 0.25 0"/>
<feBlend mode="normal" in2="shape" result="effect1_innerShadow_173_779"/>
</filter>
<linearGradient id="paint0_linear_173_779" x1="0" y1="445" x2="590" y2="445" gradientUnits="userSpaceOnUse">
<stop offset="0.267145" stop-opacity="0.5"/>
<stop offset="0.731459" stop-opacity="0.5"/>
</linearGradient>
<linearGradient id="paint1_linear_173_779" x1="345" y1="-5" x2="345" y2="895" gradientUnits="userSpaceOnUse">
<stop stop-color="#B4B8BD"/>
<stop offset="1" stop-color="#B4B8BD" stop-opacity="0.4"/>
</linearGradient>
<linearGradient id="paint2_linear_173_779" x1="445" y1="-5" x2="445" y2="895" gradientUnits="userSpaceOnUse">
<stop stop-color="#B4B8BD"/>
<stop offset="1" stop-color="#B4B8BD" stop-opacity="0.4"/>
</linearGradient>
<linearGradient id="paint3_linear_173_779" x1="545" y1="-5" x2="545" y2="895" gradientUnits="userSpaceOnUse">
<stop stop-color="#B4B8BD"/>
<stop offset="1" stop-color="#B4B8BD" stop-opacity="0.4"/>
</linearGradient>
<linearGradient id="paint4_linear_173_779" x1="245" y1="-5" x2="245" y2="895" gradientUnits="userSpaceOnUse">
<stop stop-color="#B4B8BD"/>
<stop offset="1" stop-color="#B4B8BD" stop-opacity="0.4"/>
</linearGradient>
<linearGradient id="paint5_linear_173_779" x1="145" y1="-5" x2="145" y2="895" gradientUnits="userSpaceOnUse">
<stop stop-color="#B4B8BD"/>
<stop offset="1" stop-color="#B4B8BD" stop-opacity="0.4"/>
</linearGradient>
<linearGradient id="paint6_linear_173_779" x1="45" y1="-5" x2="45" y2="895" gradientUnits="userSpaceOnUse">
<stop stop-color="#B4B8BD"/>
<stop offset="1" stop-color="#B4B8BD" stop-opacity="0.4"/>
</linearGradient>
<linearGradient id="paint7_linear_173_779" x1="40" y1="85" x2="40" y2="685" gradientUnits="userSpaceOnUse">
<stop stop-color="#B4B8BD"/>
<stop offset="1" stop-color="#B4B8BD" stop-opacity="0.4"/>
</linearGradient>
<linearGradient id="paint8_linear_173_779" x1="40" y1="355" x2="40" y2="955" gradientUnits="userSpaceOnUse">
<stop stop-color="#B4B8BD"/>
<stop offset="1" stop-color="#B4B8BD" stop-opacity="0.4"/>
</linearGradient>
<linearGradient id="paint9_linear_173_779" x1="40" y1="175" x2="40" y2="775" gradientUnits="userSpaceOnUse">
<stop stop-color="#B4B8BD"/>
<stop offset="1" stop-color="#B4B8BD" stop-opacity="0.4"/>
</linearGradient>
<linearGradient id="paint10_linear_173_779" x1="40" y1="445" x2="40" y2="1045" gradientUnits="userSpaceOnUse">
<stop stop-color="#B4B8BD"/>
<stop offset="1" stop-color="#B4B8BD" stop-opacity="0.4"/>
</linearGradient>
<linearGradient id="paint11_linear_173_779" x1="40" y1="805" x2="40" y2="1405" gradientUnits="userSpaceOnUse">
<stop stop-color="#B4B8BD"/>
<stop offset="1" stop-color="#B4B8BD" stop-opacity="0.4"/>
</linearGradient>
<linearGradient id="paint12_linear_173_779" x1="40" y1="715" x2="40" y2="1315" gradientUnits="userSpaceOnUse">
<stop stop-color="#B4B8BD"/>
<stop offset="1" stop-color="#B4B8BD" stop-opacity="0.4"/>
</linearGradient>
<linearGradient id="paint13_linear_173_779" x1="40" y1="625" x2="40" y2="1225" gradientUnits="userSpaceOnUse">
<stop stop-color="#B4B8BD"/>
<stop offset="1" stop-color="#B4B8BD" stop-opacity="0.4"/>
</linearGradient>
<linearGradient id="paint14_linear_173_779" x1="40" y1="535" x2="40" y2="1135" gradientUnits="userSpaceOnUse">
<stop stop-color="#B4B8BD"/>
<stop offset="1" stop-color="#B4B8BD" stop-opacity="0.4"/>
</linearGradient>
<linearGradient id="paint15_linear_173_779" x1="40" y1="265" x2="40" y2="865" gradientUnits="userSpaceOnUse">
<stop stop-color="#B4B8BD"/>
<stop offset="1" stop-color="#B4B8BD" stop-opacity="0.4"/>
</linearGradient>
<linearGradient id="paint16_linear_173_779" x1="40" y1="895" x2="40" y2="1495" gradientUnits="userSpaceOnUse">
<stop stop-color="#B4B8BD"/>
<stop offset="1" stop-color="#B4B8BD" stop-opacity="0.4"/>
</linearGradient>
<linearGradient id="paint17_linear_173_779" x1="200" y1="0" x2="200" y2="266.667" gradientUnits="userSpaceOnUse">
<stop/>
<stop offset="0.299659" stop-color="#333333"/>
<stop offset="0.614292" stop-color="#636363"/>
<stop offset="0.876487" stop-color="#9C9C9C"/>
<stop offset="1" stop-color="#D9D9D9"/>
</linearGradient>
<linearGradient id="paint18_linear_173_779" x1="-1.81137e-06" y1="85.3333" x2="400" y2="85.3333" gradientUnits="userSpaceOnUse">
<stop stop-color="#595959"/>
<stop offset="1" stop-color="#595959" stop-opacity="0"/>
</linearGradient>
<linearGradient id="paint19_linear_173_779" x1="295" y1="615" x2="295" y2="881.667" gradientUnits="userSpaceOnUse">
<stop/>
<stop offset="0.299659" stop-color="#333333"/>
<stop offset="0.614292" stop-color="#636363"/>
<stop offset="0.876487" stop-color="#9C9C9C"/>
<stop offset="1" stop-color="#D9D9D9"/>
</linearGradient>
<linearGradient id="paint20_linear_173_779" x1="95" y1="700.333" x2="495" y2="700.333" gradientUnits="userSpaceOnUse">
<stop stop-color="#595959"/>
<stop offset="1" stop-color="#595959" stop-opacity="0"/>
</linearGradient>
<linearGradient id="paint21_linear_173_779" x1="294" y1="85" x2="294" y2="351.667" gradientUnits="userSpaceOnUse">
<stop/>
<stop offset="0.299659" stop-color="#333333"/>
<stop offset="0.614292" stop-color="#636363"/>
<stop offset="0.876487" stop-color="#9C9C9C"/>
<stop offset="1" stop-color="#D9D9D9"/>
</linearGradient>
<linearGradient id="paint22_linear_173_779" x1="94" y1="170.333" x2="494" y2="170.333" gradientUnits="userSpaceOnUse">
<stop stop-color="#595959"/>
<stop offset="1" stop-color="#595959" stop-opacity="0"/>
</linearGradient>
<linearGradient id="paint23_linear_173_779" x1="255.707" y1="386.963" x2="425.717" y2="386.964" gradientUnits="userSpaceOnUse">
<stop stop-color="#B4B8BD"/>
<stop offset="1" stop-color="white" stop-opacity="0"/>
</linearGradient>
<linearGradient id="paint24_linear_173_779" x1="281" y1="419" x2="281" y2="465" gradientUnits="userSpaceOnUse">
<stop stop-color="#D9D9D9"/>
<stop offset="1" stop-color="#B4B8BD" stop-opacity="0"/>
</linearGradient>
<linearGradient id="paint25_linear_173_779" x1="333.293" y1="415.463" x2="163.283" y2="415.464" gradientUnits="userSpaceOnUse">
<stop stop-color="#B4B8BD"/>
<stop offset="1" stop-color="white" stop-opacity="0"/>
</linearGradient>
<clipPath id="clip0_173_779">
<rect width="590" height="890" fill="white"/>
</clipPath>
</defs>
</svg>
