<svg width="1090" height="512" viewBox="0 0 1090 512" fill="none" xmlns="http://www.w3.org/2000/svg">
<g clip-path="url(#clip0_155_897)">
<circle cx="2" cy="2" r="2" fill="#B4B8BD" fill-opacity="0.4"/>
<circle cx="66" cy="2" r="2" fill="#B4B8BD" fill-opacity="0.4"/>
<circle cx="130" cy="2" r="2" fill="#B4B8BD" fill-opacity="0.4"/>
<circle cx="194" cy="2" r="2" fill="#B4B8BD" fill-opacity="0.4"/>
<circle cx="258" cy="2" r="2" fill="#B4B8BD" fill-opacity="0.4"/>
<circle cx="322" cy="2" r="2" fill="#B4B8BD" fill-opacity="0.4"/>
<circle cx="386" cy="2" r="2" fill="#B4B8BD" fill-opacity="0.4"/>
<circle cx="450" cy="2" r="2" fill="#B4B8BD" fill-opacity="0.4"/>
<circle cx="514" cy="2" r="2" fill="#B4B8BD" fill-opacity="0.4"/>
<circle cx="578" cy="2" r="2" fill="#B4B8BD" fill-opacity="0.4"/>
<circle cx="642" cy="2" r="2" fill="#B4B8BD" fill-opacity="0.4"/>
<circle cx="706" cy="2" r="2" fill="#B4B8BD" fill-opacity="0.4"/>
<circle cx="770" cy="2" r="2" fill="#B4B8BD" fill-opacity="0.4"/>
<circle cx="834" cy="2" r="2" fill="#B4B8BD" fill-opacity="0.4"/>
<circle cx="898" cy="2" r="2" fill="#B4B8BD" fill-opacity="0.4"/>
<circle cx="962" cy="2" r="2" fill="#B4B8BD" fill-opacity="0.4"/>
<circle cx="1026" cy="2" r="2" fill="#B4B8BD" fill-opacity="0.4"/>
<circle cx="2" cy="66" r="2" fill="#B4B8BD" fill-opacity="0.4"/>
<circle cx="66" cy="66" r="2" fill="#B4B8BD" fill-opacity="0.4"/>
<circle cx="130" cy="66" r="2" fill="#B4B8BD" fill-opacity="0.4"/>
<circle cx="194" cy="66" r="2" fill="#B4B8BD" fill-opacity="0.4"/>
<circle cx="258" cy="66" r="2" fill="#B4B8BD" fill-opacity="0.4"/>
<circle cx="322" cy="66" r="2" fill="#B4B8BD" fill-opacity="0.4"/>
<circle cx="386" cy="66" r="2" fill="#B4B8BD" fill-opacity="0.4"/>
<circle cx="450" cy="66" r="2" fill="#B4B8BD" fill-opacity="0.4"/>
<circle cx="514" cy="66" r="2" fill="#B4B8BD" fill-opacity="0.4"/>
<circle cx="578" cy="66" r="2" fill="#B4B8BD" fill-opacity="0.4"/>
<circle cx="642" cy="66" r="2" fill="#B4B8BD" fill-opacity="0.4"/>
<circle cx="706" cy="66" r="2" fill="#B4B8BD" fill-opacity="0.4"/>
<circle cx="770" cy="66" r="2" fill="#B4B8BD" fill-opacity="0.4"/>
<circle cx="834" cy="66" r="2" fill="#B4B8BD" fill-opacity="0.4"/>
<circle cx="898" cy="66" r="2" fill="#B4B8BD" fill-opacity="0.4"/>
<circle cx="962" cy="66" r="2" fill="#B4B8BD" fill-opacity="0.4"/>
<circle cx="1026" cy="66" r="2" fill="#B4B8BD" fill-opacity="0.4"/>
<circle cx="2" cy="130" r="2" fill="#B4B8BD" fill-opacity="0.4"/>
<circle cx="66" cy="130" r="2" fill="#B4B8BD" fill-opacity="0.4"/>
<circle cx="130" cy="130" r="2" fill="#B4B8BD" fill-opacity="0.4"/>
<circle cx="194" cy="130" r="2" fill="#B4B8BD" fill-opacity="0.4"/>
<circle cx="258" cy="130" r="2" fill="#B4B8BD" fill-opacity="0.4"/>
<circle cx="322" cy="130" r="2" fill="#B4B8BD" fill-opacity="0.4"/>
<circle cx="386" cy="130" r="2" fill="#B4B8BD" fill-opacity="0.4"/>
<circle cx="450" cy="130" r="2" fill="#B4B8BD" fill-opacity="0.4"/>
<circle cx="514" cy="130" r="2" fill="#B4B8BD" fill-opacity="0.4"/>
<circle cx="578" cy="130" r="2" fill="#B4B8BD" fill-opacity="0.4"/>
<circle cx="642" cy="130" r="2" fill="#B4B8BD" fill-opacity="0.4"/>
<circle cx="706" cy="130" r="2" fill="#B4B8BD" fill-opacity="0.4"/>
<circle cx="770" cy="130" r="2" fill="#B4B8BD" fill-opacity="0.4"/>
<circle cx="834" cy="130" r="2" fill="#B4B8BD" fill-opacity="0.4"/>
<circle cx="898" cy="130" r="2" fill="#B4B8BD" fill-opacity="0.4"/>
<circle cx="962" cy="130" r="2" fill="#B4B8BD" fill-opacity="0.4"/>
<circle cx="1026" cy="130" r="2" fill="#B4B8BD" fill-opacity="0.4"/>
<circle cx="2" cy="194" r="2" fill="#B4B8BD" fill-opacity="0.4"/>
<circle cx="66" cy="194" r="2" fill="#B4B8BD" fill-opacity="0.4"/>
<circle cx="130" cy="194" r="2" fill="#B4B8BD" fill-opacity="0.4"/>
<circle cx="194" cy="194" r="2" fill="#B4B8BD" fill-opacity="0.4"/>
<circle cx="258" cy="194" r="2" fill="#B4B8BD" fill-opacity="0.4"/>
<circle cx="322" cy="194" r="2" fill="#B4B8BD" fill-opacity="0.4"/>
<circle cx="386" cy="194" r="2" fill="#B4B8BD" fill-opacity="0.4"/>
<circle cx="450" cy="194" r="2" fill="#B4B8BD" fill-opacity="0.4"/>
<circle cx="514" cy="194" r="2" fill="#B4B8BD" fill-opacity="0.4"/>
<circle cx="578" cy="194" r="2" fill="#B4B8BD" fill-opacity="0.4"/>
<circle cx="642" cy="194" r="2" fill="#B4B8BD" fill-opacity="0.4"/>
<circle cx="706" cy="194" r="2" fill="#B4B8BD" fill-opacity="0.4"/>
<circle cx="770" cy="194" r="2" fill="#B4B8BD" fill-opacity="0.4"/>
<circle cx="834" cy="194" r="2" fill="#B4B8BD" fill-opacity="0.4"/>
<circle cx="898" cy="194" r="2" fill="#B4B8BD" fill-opacity="0.4"/>
<circle cx="962" cy="194" r="2" fill="#B4B8BD" fill-opacity="0.4"/>
<circle cx="1026" cy="194" r="2" fill="#B4B8BD" fill-opacity="0.4"/>
<circle cx="2" cy="258" r="2" fill="#B4B8BD" fill-opacity="0.4"/>
<circle cx="66" cy="258" r="2" fill="#B4B8BD" fill-opacity="0.4"/>
<circle cx="130" cy="258" r="2" fill="#B4B8BD" fill-opacity="0.4"/>
<circle cx="194" cy="258" r="2" fill="#B4B8BD" fill-opacity="0.4"/>
<circle cx="258" cy="258" r="2" fill="#B4B8BD" fill-opacity="0.4"/>
<circle cx="322" cy="258" r="2" fill="#B4B8BD" fill-opacity="0.4"/>
<circle cx="386" cy="258" r="2" fill="#B4B8BD" fill-opacity="0.4"/>
<circle cx="450" cy="258" r="2" fill="#B4B8BD" fill-opacity="0.4"/>
<circle cx="514" cy="258" r="2" fill="#B4B8BD" fill-opacity="0.4"/>
<circle cx="578" cy="258" r="2" fill="#B4B8BD" fill-opacity="0.4"/>
<circle cx="642" cy="258" r="2" fill="#B4B8BD" fill-opacity="0.4"/>
<circle cx="706" cy="258" r="2" fill="#B4B8BD" fill-opacity="0.4"/>
<circle cx="770" cy="258" r="2" fill="#B4B8BD" fill-opacity="0.4"/>
<circle cx="834" cy="258" r="2" fill="#B4B8BD" fill-opacity="0.4"/>
<circle cx="898" cy="258" r="2" fill="#B4B8BD" fill-opacity="0.4"/>
<circle cx="962" cy="258" r="2" fill="#B4B8BD" fill-opacity="0.4"/>
<circle cx="1026" cy="258" r="2" fill="#B4B8BD" fill-opacity="0.4"/>
<circle cx="2" cy="322" r="2" fill="#B4B8BD" fill-opacity="0.4"/>
<circle cx="66" cy="322" r="2" fill="#B4B8BD" fill-opacity="0.4"/>
<circle cx="130" cy="322" r="2" fill="#B4B8BD" fill-opacity="0.4"/>
<circle cx="194" cy="322" r="2" fill="#B4B8BD" fill-opacity="0.4"/>
<circle cx="258" cy="322" r="2" fill="#B4B8BD" fill-opacity="0.4"/>
<circle cx="322" cy="322" r="2" fill="#B4B8BD" fill-opacity="0.4"/>
<circle cx="386" cy="322" r="2" fill="#B4B8BD" fill-opacity="0.4"/>
<circle cx="450" cy="322" r="2" fill="#B4B8BD" fill-opacity="0.4"/>
<circle cx="514" cy="322" r="2" fill="#B4B8BD" fill-opacity="0.4"/>
<circle cx="578" cy="322" r="2" fill="#B4B8BD" fill-opacity="0.4"/>
<circle cx="642" cy="322" r="2" fill="#B4B8BD" fill-opacity="0.4"/>
<circle cx="706" cy="322" r="2" fill="#B4B8BD" fill-opacity="0.4"/>
<circle cx="770" cy="322" r="2" fill="#B4B8BD" fill-opacity="0.4"/>
<circle cx="834" cy="322" r="2" fill="#B4B8BD" fill-opacity="0.4"/>
<circle cx="898" cy="322" r="2" fill="#B4B8BD" fill-opacity="0.4"/>
<circle cx="962" cy="322" r="2" fill="#B4B8BD" fill-opacity="0.4"/>
<circle cx="1026" cy="322" r="2" fill="#B4B8BD" fill-opacity="0.4"/>
<circle cx="2" cy="386" r="2" fill="#B4B8BD" fill-opacity="0.4"/>
<circle cx="66" cy="386" r="2" fill="#B4B8BD" fill-opacity="0.4"/>
<circle cx="130" cy="386" r="2" fill="#B4B8BD" fill-opacity="0.4"/>
<circle cx="194" cy="386" r="2" fill="#B4B8BD" fill-opacity="0.4"/>
<circle cx="258" cy="386" r="2" fill="#B4B8BD" fill-opacity="0.4"/>
<circle cx="322" cy="386" r="2" fill="#B4B8BD" fill-opacity="0.4"/>
<circle cx="386" cy="386" r="2" fill="#B4B8BD" fill-opacity="0.4"/>
<circle cx="450" cy="386" r="2" fill="#B4B8BD" fill-opacity="0.4"/>
<circle cx="514" cy="386" r="2" fill="#B4B8BD" fill-opacity="0.4"/>
<circle cx="578" cy="386" r="2" fill="#B4B8BD" fill-opacity="0.4"/>
<circle cx="642" cy="386" r="2" fill="#B4B8BD" fill-opacity="0.4"/>
<circle cx="706" cy="386" r="2" fill="#B4B8BD" fill-opacity="0.4"/>
<circle cx="770" cy="386" r="2" fill="#B4B8BD" fill-opacity="0.4"/>
<circle cx="834" cy="386" r="2" fill="#B4B8BD" fill-opacity="0.4"/>
<circle cx="898" cy="386" r="2" fill="#B4B8BD" fill-opacity="0.4"/>
<circle cx="962" cy="386" r="2" fill="#B4B8BD" fill-opacity="0.4"/>
<circle cx="1026" cy="386" r="2" fill="#B4B8BD" fill-opacity="0.4"/>
<circle cx="2" cy="450" r="2" fill="#B4B8BD" fill-opacity="0.4"/>
<circle cx="66" cy="450" r="2" fill="#B4B8BD" fill-opacity="0.4"/>
<circle cx="130" cy="450" r="2" fill="#B4B8BD" fill-opacity="0.4"/>
<circle cx="194" cy="450" r="2" fill="#B4B8BD" fill-opacity="0.4"/>
<circle cx="258" cy="450" r="2" fill="#B4B8BD" fill-opacity="0.4"/>
<circle cx="322" cy="450" r="2" fill="#B4B8BD" fill-opacity="0.4"/>
<circle cx="386" cy="450" r="2" fill="#B4B8BD" fill-opacity="0.4"/>
<circle cx="450" cy="450" r="2" fill="#B4B8BD" fill-opacity="0.4"/>
<circle cx="514" cy="450" r="2" fill="#B4B8BD" fill-opacity="0.4"/>
<circle cx="578" cy="450" r="2" fill="#B4B8BD" fill-opacity="0.4"/>
<circle cx="642" cy="450" r="2" fill="#B4B8BD" fill-opacity="0.4"/>
<circle cx="706" cy="450" r="2" fill="#B4B8BD" fill-opacity="0.4"/>
<circle cx="770" cy="450" r="2" fill="#B4B8BD" fill-opacity="0.4"/>
<circle cx="834" cy="450" r="2" fill="#B4B8BD" fill-opacity="0.4"/>
<circle cx="898" cy="450" r="2" fill="#B4B8BD" fill-opacity="0.4"/>
<circle cx="962" cy="450" r="2" fill="#B4B8BD" fill-opacity="0.4"/>
<circle cx="1026" cy="450" r="2" fill="#B4B8BD" fill-opacity="0.4"/>
</g>
<defs>
<clipPath id="clip0_155_897">
<rect width="1090" height="512" fill="white"/>
</clipPath>
</defs>
</svg>
