<svg width="544" height="544" viewBox="0 0 544 544" fill="none" xmlns="http://www.w3.org/2000/svg">
<g clip-path="url(#clip0_186_1537)">
<circle cx="24" cy="24" r="2" fill="#B4B8BD" fill-opacity="0.2"/>
<circle cx="88" cy="24" r="2" fill="#B4B8BD" fill-opacity="0.2"/>
<circle cx="152" cy="24" r="2" fill="#B4B8BD" fill-opacity="0.2"/>
<circle cx="216" cy="24" r="2" fill="#B4B8BD" fill-opacity="0.2"/>
<circle cx="280" cy="24" r="2" fill="#B4B8BD" fill-opacity="0.2"/>
<circle cx="344" cy="24" r="2" fill="#B4B8BD" fill-opacity="0.2"/>
<circle cx="408" cy="24" r="2" fill="#B4B8BD" fill-opacity="0.2"/>
<circle cx="472" cy="24" r="2" fill="#B4B8BD" fill-opacity="0.2"/>
<circle cx="24" cy="88" r="2" fill="#B4B8BD" fill-opacity="0.2"/>
<circle cx="88" cy="88" r="2" fill="#B4B8BD" fill-opacity="0.2"/>
<circle cx="152" cy="88" r="2" fill="#B4B8BD" fill-opacity="0.2"/>
<circle cx="216" cy="88" r="2" fill="#B4B8BD" fill-opacity="0.2"/>
<circle cx="280" cy="88" r="2" fill="#B4B8BD" fill-opacity="0.2"/>
<circle cx="344" cy="88" r="2" fill="#B4B8BD" fill-opacity="0.2"/>
<circle cx="408" cy="88" r="2" fill="#B4B8BD" fill-opacity="0.2"/>
<circle cx="472" cy="88" r="2" fill="#B4B8BD" fill-opacity="0.2"/>
<circle cx="24" cy="152" r="2" fill="#B4B8BD" fill-opacity="0.2"/>
<circle cx="88" cy="152" r="2" fill="#B4B8BD" fill-opacity="0.2"/>
<circle cx="152" cy="152" r="2" fill="#B4B8BD" fill-opacity="0.2"/>
<circle cx="216" cy="152" r="2" fill="#B4B8BD" fill-opacity="0.2"/>
<circle cx="280" cy="152" r="2" fill="#B4B8BD" fill-opacity="0.2"/>
<circle cx="344" cy="152" r="2" fill="#B4B8BD" fill-opacity="0.2"/>
<circle cx="408" cy="152" r="2" fill="#B4B8BD" fill-opacity="0.2"/>
<circle cx="472" cy="152" r="2" fill="#B4B8BD" fill-opacity="0.2"/>
<circle cx="24" cy="216" r="2" fill="#B4B8BD" fill-opacity="0.2"/>
<circle cx="88" cy="216" r="2" fill="#B4B8BD" fill-opacity="0.2"/>
<circle cx="152" cy="216" r="2" fill="#B4B8BD" fill-opacity="0.2"/>
<circle cx="216" cy="216" r="2" fill="#B4B8BD" fill-opacity="0.2"/>
<circle cx="280" cy="216" r="2" fill="#B4B8BD" fill-opacity="0.2"/>
<circle cx="344" cy="216" r="2" fill="#B4B8BD" fill-opacity="0.2"/>
<circle cx="408" cy="216" r="2" fill="#B4B8BD" fill-opacity="0.2"/>
<circle cx="472" cy="216" r="2" fill="#B4B8BD" fill-opacity="0.2"/>
<circle cx="24" cy="280" r="2" fill="#B4B8BD" fill-opacity="0.2"/>
<circle cx="88" cy="280" r="2" fill="#B4B8BD" fill-opacity="0.2"/>
<circle cx="152" cy="280" r="2" fill="#B4B8BD" fill-opacity="0.2"/>
<circle cx="216" cy="280" r="2" fill="#B4B8BD" fill-opacity="0.2"/>
<circle cx="280" cy="280" r="2" fill="#B4B8BD" fill-opacity="0.2"/>
<circle cx="344" cy="280" r="2" fill="#B4B8BD" fill-opacity="0.2"/>
<circle cx="408" cy="280" r="2" fill="#B4B8BD" fill-opacity="0.2"/>
<circle cx="472" cy="280" r="2" fill="#B4B8BD" fill-opacity="0.2"/>
<circle cx="24" cy="344" r="2" fill="#B4B8BD" fill-opacity="0.2"/>
<circle cx="88" cy="344" r="2" fill="#B4B8BD" fill-opacity="0.2"/>
<circle cx="152" cy="344" r="2" fill="#B4B8BD" fill-opacity="0.2"/>
<circle cx="216" cy="344" r="2" fill="#B4B8BD" fill-opacity="0.2"/>
<circle cx="280" cy="344" r="2" fill="#B4B8BD" fill-opacity="0.2"/>
<circle cx="344" cy="344" r="2" fill="#B4B8BD" fill-opacity="0.2"/>
<circle cx="408" cy="344" r="2" fill="#B4B8BD" fill-opacity="0.2"/>
<circle cx="472" cy="344" r="2" fill="#B4B8BD" fill-opacity="0.2"/>
<circle cx="24" cy="408" r="2" fill="#B4B8BD" fill-opacity="0.2"/>
<circle cx="88" cy="408" r="2" fill="#B4B8BD" fill-opacity="0.2"/>
<circle cx="152" cy="408" r="2" fill="#B4B8BD" fill-opacity="0.2"/>
<circle cx="216" cy="408" r="2" fill="#B4B8BD" fill-opacity="0.2"/>
<circle cx="280" cy="408" r="2" fill="#B4B8BD" fill-opacity="0.2"/>
<circle cx="344" cy="408" r="2" fill="#B4B8BD" fill-opacity="0.2"/>
<circle cx="408" cy="408" r="2" fill="#B4B8BD" fill-opacity="0.2"/>
<circle cx="472" cy="408" r="2" fill="#B4B8BD" fill-opacity="0.2"/>
<circle cx="24" cy="472" r="2" fill="#B4B8BD" fill-opacity="0.2"/>
<circle cx="88" cy="472" r="2" fill="#B4B8BD" fill-opacity="0.2"/>
<circle cx="152" cy="472" r="2" fill="#B4B8BD" fill-opacity="0.2"/>
<circle cx="216" cy="472" r="2" fill="#B4B8BD" fill-opacity="0.2"/>
<circle cx="280" cy="472" r="2" fill="#B4B8BD" fill-opacity="0.2"/>
<circle cx="344" cy="472" r="2" fill="#B4B8BD" fill-opacity="0.2"/>
<circle cx="408" cy="472" r="2" fill="#B4B8BD" fill-opacity="0.2"/>
<circle cx="472" cy="472" r="2" fill="#B4B8BD" fill-opacity="0.2"/>
</g>
<defs>
<clipPath id="clip0_186_1537">
<rect width="500" height="500" fill="white" transform="translate(22 22)"/>
</clipPath>
</defs>
</svg>
