<svg width="1117" height="700" viewBox="0 0 1117 700" fill="none" xmlns="http://www.w3.org/2000/svg">
<g clip-path="url(#clip0_166_51)">
<rect width="1117" height="700" fill="url(#paint0_linear_166_51)"/>
<rect opacity="0.25" x="51" y="200" width="300" height="300" rx="32" fill="url(#paint1_linear_166_51)"/>
<g filter="url(#filter0_i_166_51)">
<line y1="-0.4" x2="320" y2="-0.4" transform="matrix(-4.37114e-08 -1 -1 4.37114e-08 281 914)" stroke="url(#paint2_linear_166_51)" stroke-width="0.8"/>
<line y1="-0.4" x2="300" y2="-0.4" transform="matrix(-4.37114e-08 -1 -1 4.37114e-08 231 914)" stroke="url(#paint3_linear_166_51)" stroke-width="0.8"/>
<line y1="-0.4" x2="280" y2="-0.4" transform="matrix(-4.37114e-08 -1 -1 4.37114e-08 181 914)" stroke="url(#paint4_linear_166_51)" stroke-width="0.8"/>
<line y1="-0.4" x2="260" y2="-0.4" transform="matrix(-4.37114e-08 -1 -1 4.37114e-08 131 914)" stroke="url(#paint5_linear_166_51)" stroke-width="0.8"/>
<line y1="-0.4" x2="20" y2="-0.4" transform="matrix(-4.37114e-08 -1 -1 4.37114e-08 31 700)" stroke="url(#paint6_linear_166_51)" stroke-width="0.8"/>
<line y1="-0.4" x2="240" y2="-0.4" transform="matrix(-4.37114e-08 -1 -1 4.37114e-08 81 914)" stroke="url(#paint7_linear_166_51)" stroke-width="0.8"/>
<line y1="-0.4" x2="400" y2="-0.4" transform="matrix(-4.37114e-08 -1 -1 4.37114e-08 481 914)" stroke="url(#paint8_linear_166_51)" stroke-width="0.8"/>
<line y1="-0.4" x2="380" y2="-0.4" transform="matrix(-4.37114e-08 -1 -1 4.37114e-08 431 914)" stroke="url(#paint9_linear_166_51)" stroke-width="0.8"/>
<line y1="-0.4" x2="360" y2="-0.4" transform="matrix(-4.37114e-08 -1 -1 4.37114e-08 381 914)" stroke="url(#paint10_linear_166_51)" stroke-width="0.8"/>
<line y1="-0.4" x2="340" y2="-0.4" transform="matrix(-4.37114e-08 -1 -1 4.37114e-08 331 914)" stroke="url(#paint11_linear_166_51)" stroke-width="0.8"/>
<line y1="-0.4" x2="640" y2="-0.4" transform="matrix(-4.37114e-08 -1 -1 4.37114e-08 1081 914)" stroke="url(#paint12_linear_166_51)" stroke-width="0.8"/>
<line y1="-0.4" x2="620" y2="-0.4" transform="matrix(-4.37114e-08 -1 -1 4.37114e-08 1031 914)" stroke="url(#paint13_linear_166_51)" stroke-width="0.8"/>
<line y1="-0.4" x2="600" y2="-0.4" transform="matrix(-4.37114e-08 -1 -1 4.37114e-08 981 914)" stroke="url(#paint14_linear_166_51)" stroke-width="0.8"/>
<line y1="-0.4" x2="580" y2="-0.4" transform="matrix(-4.37114e-08 -1 -1 4.37114e-08 931 914)" stroke="url(#paint15_linear_166_51)" stroke-width="0.8"/>
<line y1="-0.4" x2="560" y2="-0.4" transform="matrix(-4.37114e-08 -1 -1 4.37114e-08 881 914)" stroke="url(#paint16_linear_166_51)" stroke-width="0.8"/>
<line y1="-0.4" x2="540" y2="-0.4" transform="matrix(-4.37114e-08 -1 -1 4.37114e-08 831 914)" stroke="url(#paint17_linear_166_51)" stroke-width="0.8"/>
<line y1="-0.4" x2="520" y2="-0.4" transform="matrix(-4.37114e-08 -1 -1 4.37114e-08 781 914)" stroke="url(#paint18_linear_166_51)" stroke-width="0.8"/>
<line y1="-0.4" x2="500" y2="-0.4" transform="matrix(-4.37114e-08 -1 -1 4.37114e-08 731 914)" stroke="url(#paint19_linear_166_51)" stroke-width="0.8"/>
<line y1="-0.4" x2="480" y2="-0.4" transform="matrix(-4.37114e-08 -1 -1 4.37114e-08 681 914)" stroke="url(#paint20_linear_166_51)" stroke-width="0.8"/>
<line y1="-0.4" x2="460" y2="-0.4" transform="matrix(-4.37114e-08 -1 -1 4.37114e-08 631 914)" stroke="url(#paint21_linear_166_51)" stroke-width="0.8"/>
<line y1="-0.4" x2="440" y2="-0.4" transform="matrix(-4.37114e-08 -1 -1 4.37114e-08 581 914)" stroke="url(#paint22_linear_166_51)" stroke-width="0.8"/>
<line y1="-0.4" x2="420" y2="-0.4" transform="matrix(-4.37114e-08 -1 -1 4.37114e-08 531 914)" stroke="url(#paint23_linear_166_51)" stroke-width="0.8"/>
</g>
<g opacity="0.8" filter="url(#filter1_b_166_51)">
<path d="M171.516 315.734C171.516 325.005 170.812 333.286 169.406 340.578C168 347.87 165.786 354.042 162.766 359.094C159.745 364.146 155.812 368 150.969 370.656C146.177 373.26 140.396 374.562 133.625 374.562C125.083 374.562 118.026 372.245 112.453 367.609C106.88 362.974 102.714 356.281 99.9531 347.531C97.2448 338.729 95.8906 328.13 95.8906 315.734C95.8906 303.547 97.1146 293.078 99.5625 284.328C102.062 275.526 106.073 268.781 111.594 264.094C117.167 259.354 124.51 256.984 133.625 256.984C142.271 256.984 149.38 259.328 154.953 264.016C160.578 268.651 164.745 275.37 167.453 284.172C170.161 292.922 171.516 303.443 171.516 315.734ZM109.797 315.734C109.797 326.203 110.578 334.927 112.141 341.906C113.703 348.885 116.229 354.12 119.719 357.609C123.26 361.047 127.896 362.766 133.625 362.766C139.354 362.766 143.964 361.047 147.453 357.609C150.995 354.172 153.547 348.964 155.109 341.984C156.724 335.005 157.531 326.255 157.531 315.734C157.531 305.422 156.75 296.802 155.188 289.875C153.625 282.896 151.099 277.661 147.609 274.172C144.12 270.63 139.458 268.859 133.625 268.859C127.792 268.859 123.13 270.63 119.641 274.172C116.151 277.661 113.625 282.896 112.062 289.875C110.552 296.802 109.797 305.422 109.797 315.734ZM210.812 257.141C218.729 257.141 224.719 260.266 228.781 266.516C232.844 272.714 234.875 281.49 234.875 292.844C234.875 304.198 232.896 313.052 228.938 319.406C225.031 325.708 218.99 328.859 210.812 328.859C203.208 328.859 197.375 325.708 193.312 319.406C189.302 313.052 187.297 304.198 187.297 292.844C187.297 281.49 189.198 272.714 193 266.516C196.854 260.266 202.792 257.141 210.812 257.141ZM210.812 266.984C206.75 266.984 203.755 269.146 201.828 273.469C199.901 277.792 198.938 284.25 198.938 292.844C198.938 301.49 199.901 308 201.828 312.375C203.755 316.75 206.75 318.938 210.812 318.938C215.031 318.938 218.156 316.75 220.188 312.375C222.271 308 223.312 301.49 223.312 292.844C223.312 284.302 222.297 277.87 220.266 273.547C218.234 269.172 215.083 266.984 210.812 266.984ZM283.859 258.781L220.5 373H208.469L271.828 258.781H283.859ZM280.969 302.922C288.833 302.922 294.823 306.047 298.938 312.297C303.052 318.495 305.109 327.271 305.109 338.625C305.109 349.927 303.13 358.755 299.172 365.109C295.214 371.411 289.146 374.562 280.969 374.562C273.312 374.562 267.479 371.411 263.469 365.109C259.458 358.755 257.453 349.927 257.453 338.625C257.453 327.271 259.354 318.495 263.156 312.297C267.01 306.047 272.948 302.922 280.969 302.922ZM280.969 312.844C276.906 312.844 273.911 315.005 271.984 319.328C270.057 323.599 269.094 330.031 269.094 338.625C269.094 347.219 270.057 353.703 271.984 358.078C273.911 362.453 276.906 364.641 280.969 364.641C285.188 364.641 288.312 362.479 290.344 358.156C292.427 353.833 293.469 347.323 293.469 338.625C293.469 330.031 292.453 323.599 290.422 319.328C288.391 315.005 285.24 312.844 280.969 312.844Z" fill="url(#paint24_linear_166_51)"/>
</g>
<g opacity="0.8" filter="url(#filter2_b_166_51)">
<path d="M106.906 441H102.664V406.734H121.789V410.461H106.906V422.695H120.875V426.398H106.906V441ZM136.977 414.797C139.18 414.797 141.07 415.281 142.648 416.25C144.227 417.219 145.438 418.578 146.281 420.328C147.125 422.062 147.547 424.102 147.547 426.445V428.953H129.852C129.914 431.891 130.656 434.133 132.078 435.68C133.5 437.211 135.508 437.977 138.102 437.977C139.727 437.977 141.172 437.828 142.438 437.531C143.703 437.219 145.008 436.773 146.352 436.195V439.781C145.055 440.375 143.766 440.805 142.484 441.07C141.203 441.336 139.68 441.469 137.914 441.469C135.445 441.469 133.281 440.969 131.422 439.969C129.578 438.953 128.141 437.469 127.109 435.516C126.078 433.562 125.562 431.164 125.562 428.32C125.562 425.539 126.031 423.133 126.969 421.102C127.906 419.07 129.227 417.516 130.93 416.438C132.648 415.344 134.664 414.797 136.977 414.797ZM136.93 418.148C134.914 418.148 133.297 418.812 132.078 420.141C130.875 421.453 130.164 423.305 129.945 425.695H143.234C143.219 424.211 142.984 422.898 142.531 421.758C142.078 420.617 141.391 419.734 140.469 419.109C139.547 418.469 138.367 418.148 136.93 418.148ZM164.07 414.797C166.273 414.797 168.164 415.281 169.742 416.25C171.32 417.219 172.531 418.578 173.375 420.328C174.219 422.062 174.641 424.102 174.641 426.445V428.953H156.945C157.008 431.891 157.75 434.133 159.172 435.68C160.594 437.211 162.602 437.977 165.195 437.977C166.82 437.977 168.266 437.828 169.531 437.531C170.797 437.219 172.102 436.773 173.445 436.195V439.781C172.148 440.375 170.859 440.805 169.578 441.07C168.297 441.336 166.773 441.469 165.008 441.469C162.539 441.469 160.375 440.969 158.516 439.969C156.672 438.953 155.234 437.469 154.203 435.516C153.172 433.562 152.656 431.164 152.656 428.32C152.656 425.539 153.125 423.133 154.062 421.102C155 419.07 156.32 417.516 158.023 416.438C159.742 415.344 161.758 414.797 164.07 414.797ZM164.023 418.148C162.008 418.148 160.391 418.812 159.172 420.141C157.969 421.453 157.258 423.305 157.039 425.695H170.328C170.312 424.211 170.078 422.898 169.625 421.758C169.172 420.617 168.484 419.734 167.562 419.109C166.641 418.469 165.461 418.148 164.023 418.148ZM197.961 433.898C197.961 435.555 197.547 436.945 196.719 438.07C195.891 439.195 194.711 440.047 193.18 440.625C191.648 441.188 189.812 441.469 187.672 441.469C185.875 441.469 184.32 441.328 183.008 441.047C181.695 440.766 180.531 440.367 179.516 439.852V436.078C180.594 436.609 181.867 437.086 183.336 437.508C184.805 437.93 186.289 438.141 187.789 438.141C189.93 438.141 191.484 437.797 192.453 437.109C193.422 436.406 193.906 435.461 193.906 434.273C193.906 433.586 193.711 432.984 193.32 432.469C192.945 431.938 192.289 431.422 191.352 430.922C190.43 430.422 189.141 429.859 187.484 429.234C185.844 428.609 184.43 427.984 183.242 427.359C182.055 426.734 181.141 425.977 180.5 425.086C179.875 424.18 179.562 423.016 179.562 421.594C179.562 419.406 180.445 417.727 182.211 416.555C183.977 415.383 186.305 414.797 189.195 414.797C190.742 414.797 192.195 414.953 193.555 415.266C194.93 415.562 196.219 415.977 197.422 416.508L196.039 419.812C194.945 419.344 193.797 418.953 192.594 418.641C191.406 418.328 190.188 418.172 188.938 418.172C187.203 418.172 185.875 418.453 184.953 419.016C184.031 419.578 183.57 420.359 183.57 421.359C183.57 422.125 183.781 422.758 184.203 423.258C184.641 423.758 185.344 424.234 186.312 424.688C187.281 425.125 188.57 425.648 190.18 426.258C191.773 426.852 193.148 427.469 194.305 428.109C195.477 428.75 196.375 429.523 197 430.43C197.641 431.336 197.961 432.492 197.961 433.898Z" fill="url(#paint25_linear_166_51)"/>
</g>
</g>
<defs>
<filter id="filter0_i_166_51" x="31" y="80" width="1450.8" height="837" filterUnits="userSpaceOnUse" color-interpolation-filters="sRGB">
<feFlood flood-opacity="0" result="BackgroundImageFix"/>
<feBlend mode="normal" in="SourceGraphic" in2="BackgroundImageFix" result="shape"/>
<feColorMatrix in="SourceAlpha" type="matrix" values="0 0 0 0 0 0 0 0 0 0 0 0 0 0 0 0 0 0 127 0" result="hardAlpha"/>
<feOffset dy="4"/>
<feGaussianBlur stdDeviation="1.5"/>
<feComposite in2="hardAlpha" operator="arithmetic" k2="-1" k3="1"/>
<feColorMatrix type="matrix" values="0 0 0 0 0 0 0 0 0 0 0 0 0 0 0 0 0 0 0.25 0"/>
<feBlend mode="normal" in2="shape" result="effect1_innerShadow_166_51"/>
</filter>
<filter id="filter1_b_166_51" x="93.8906" y="254.984" width="213.219" height="121.578" filterUnits="userSpaceOnUse" color-interpolation-filters="sRGB">
<feFlood flood-opacity="0" result="BackgroundImageFix"/>
<feGaussianBlur in="BackgroundImageFix" stdDeviation="1"/>
<feComposite in2="SourceAlpha" operator="in" result="effect1_backgroundBlur_166_51"/>
<feBlend mode="normal" in="SourceGraphic" in2="effect1_backgroundBlur_166_51" result="shape"/>
</filter>
<filter id="filter2_b_166_51" x="100.664" y="404.734" width="99.2969" height="38.7344" filterUnits="userSpaceOnUse" color-interpolation-filters="sRGB">
<feFlood flood-opacity="0" result="BackgroundImageFix"/>
<feGaussianBlur in="BackgroundImageFix" stdDeviation="1"/>
<feComposite in2="SourceAlpha" operator="in" result="effect1_backgroundBlur_166_51"/>
<feBlend mode="normal" in="SourceGraphic" in2="effect1_backgroundBlur_166_51" result="shape"/>
</filter>
<linearGradient id="paint0_linear_166_51" x1="0" y1="700" x2="1197.6" y2="188.819" gradientUnits="userSpaceOnUse">
<stop/>
<stop offset="1" stop-opacity="0"/>
</linearGradient>
<linearGradient id="paint1_linear_166_51" x1="201" y1="182" x2="201" y2="500" gradientUnits="userSpaceOnUse">
<stop stop-color="#B4B8BD"/>
<stop offset="1" stop-color="#D9D9D9" stop-opacity="0"/>
</linearGradient>
<linearGradient id="paint2_linear_166_51" x1="160" y1="0" x2="160" y2="1" gradientUnits="userSpaceOnUse">
<stop stop-color="#B4B8BD" stop-opacity="0.8"/>
<stop offset="1" stop-color="#B4B8BD" stop-opacity="0"/>
</linearGradient>
<linearGradient id="paint3_linear_166_51" x1="150" y1="0" x2="150" y2="1" gradientUnits="userSpaceOnUse">
<stop stop-color="#B4B8BD" stop-opacity="0.8"/>
<stop offset="1" stop-color="#B4B8BD" stop-opacity="0"/>
</linearGradient>
<linearGradient id="paint4_linear_166_51" x1="140" y1="0" x2="140" y2="1" gradientUnits="userSpaceOnUse">
<stop stop-color="#B4B8BD" stop-opacity="0.8"/>
<stop offset="1" stop-color="#B4B8BD" stop-opacity="0"/>
</linearGradient>
<linearGradient id="paint5_linear_166_51" x1="130" y1="0" x2="130" y2="1" gradientUnits="userSpaceOnUse">
<stop stop-color="#B4B8BD" stop-opacity="0.8"/>
<stop offset="1" stop-color="#B4B8BD" stop-opacity="0"/>
</linearGradient>
<linearGradient id="paint6_linear_166_51" x1="10" y1="0" x2="10" y2="1" gradientUnits="userSpaceOnUse">
<stop stop-color="#B4B8BD" stop-opacity="0.8"/>
<stop offset="1" stop-color="#B4B8BD" stop-opacity="0"/>
</linearGradient>
<linearGradient id="paint7_linear_166_51" x1="120" y1="0" x2="120" y2="1" gradientUnits="userSpaceOnUse">
<stop stop-color="#B4B8BD" stop-opacity="0.8"/>
<stop offset="1" stop-color="#B4B8BD" stop-opacity="0"/>
</linearGradient>
<linearGradient id="paint8_linear_166_51" x1="200" y1="0" x2="200" y2="1" gradientUnits="userSpaceOnUse">
<stop stop-color="#B4B8BD" stop-opacity="0.8"/>
<stop offset="1" stop-color="#B4B8BD" stop-opacity="0"/>
</linearGradient>
<linearGradient id="paint9_linear_166_51" x1="190" y1="0" x2="190" y2="1" gradientUnits="userSpaceOnUse">
<stop stop-color="#B4B8BD" stop-opacity="0.8"/>
<stop offset="1" stop-color="#B4B8BD" stop-opacity="0"/>
</linearGradient>
<linearGradient id="paint10_linear_166_51" x1="180" y1="0" x2="180" y2="1" gradientUnits="userSpaceOnUse">
<stop stop-color="#B4B8BD" stop-opacity="0.8"/>
<stop offset="1" stop-color="#B4B8BD" stop-opacity="0"/>
</linearGradient>
<linearGradient id="paint11_linear_166_51" x1="170" y1="0" x2="170" y2="1" gradientUnits="userSpaceOnUse">
<stop stop-color="#B4B8BD" stop-opacity="0.8"/>
<stop offset="1" stop-color="#B4B8BD" stop-opacity="0"/>
</linearGradient>
<linearGradient id="paint12_linear_166_51" x1="320" y1="0" x2="320" y2="1" gradientUnits="userSpaceOnUse">
<stop stop-color="#B4B8BD" stop-opacity="0.8"/>
<stop offset="1" stop-color="#B4B8BD" stop-opacity="0"/>
</linearGradient>
<linearGradient id="paint13_linear_166_51" x1="310" y1="0" x2="310" y2="1" gradientUnits="userSpaceOnUse">
<stop stop-color="#B4B8BD" stop-opacity="0.8"/>
<stop offset="1" stop-color="#B4B8BD" stop-opacity="0"/>
</linearGradient>
<linearGradient id="paint14_linear_166_51" x1="300" y1="0" x2="300" y2="1" gradientUnits="userSpaceOnUse">
<stop stop-color="#B4B8BD" stop-opacity="0.8"/>
<stop offset="1" stop-color="#B4B8BD" stop-opacity="0"/>
</linearGradient>
<linearGradient id="paint15_linear_166_51" x1="290" y1="0" x2="290" y2="1" gradientUnits="userSpaceOnUse">
<stop stop-color="#B4B8BD" stop-opacity="0.8"/>
<stop offset="1" stop-color="#B4B8BD" stop-opacity="0"/>
</linearGradient>
<linearGradient id="paint16_linear_166_51" x1="280" y1="0" x2="280" y2="1" gradientUnits="userSpaceOnUse">
<stop stop-color="#B4B8BD" stop-opacity="0.8"/>
<stop offset="1" stop-color="#B4B8BD" stop-opacity="0"/>
</linearGradient>
<linearGradient id="paint17_linear_166_51" x1="270" y1="0" x2="270" y2="1" gradientUnits="userSpaceOnUse">
<stop stop-color="#B4B8BD" stop-opacity="0.8"/>
<stop offset="1" stop-color="#B4B8BD" stop-opacity="0"/>
</linearGradient>
<linearGradient id="paint18_linear_166_51" x1="260" y1="0" x2="260" y2="1" gradientUnits="userSpaceOnUse">
<stop stop-color="#B4B8BD" stop-opacity="0.8"/>
<stop offset="1" stop-color="#B4B8BD" stop-opacity="0"/>
</linearGradient>
<linearGradient id="paint19_linear_166_51" x1="250" y1="0" x2="250" y2="1" gradientUnits="userSpaceOnUse">
<stop stop-color="#B4B8BD" stop-opacity="0.8"/>
<stop offset="1" stop-color="#B4B8BD" stop-opacity="0"/>
</linearGradient>
<linearGradient id="paint20_linear_166_51" x1="240" y1="0" x2="240" y2="1" gradientUnits="userSpaceOnUse">
<stop stop-color="#B4B8BD" stop-opacity="0.8"/>
<stop offset="1" stop-color="#B4B8BD" stop-opacity="0"/>
</linearGradient>
<linearGradient id="paint21_linear_166_51" x1="230" y1="0" x2="230" y2="1" gradientUnits="userSpaceOnUse">
<stop stop-color="#B4B8BD" stop-opacity="0.8"/>
<stop offset="1" stop-color="#B4B8BD" stop-opacity="0"/>
</linearGradient>
<linearGradient id="paint22_linear_166_51" x1="220" y1="0" x2="220" y2="1" gradientUnits="userSpaceOnUse">
<stop stop-color="#B4B8BD" stop-opacity="0.8"/>
<stop offset="1" stop-color="#B4B8BD" stop-opacity="0"/>
</linearGradient>
<linearGradient id="paint23_linear_166_51" x1="210" y1="0" x2="210" y2="1" gradientUnits="userSpaceOnUse">
<stop stop-color="#B4B8BD" stop-opacity="0.8"/>
<stop offset="1" stop-color="#B4B8BD" stop-opacity="0"/>
</linearGradient>
<linearGradient id="paint24_linear_166_51" x1="90.439" y1="318.479" x2="313" y2="318.479" gradientUnits="userSpaceOnUse">
<stop stop-color="white"/>
<stop offset="0.246512" stop-color="white" stop-opacity="0.852093"/>
<stop offset="0.628631" stop-color="white" stop-opacity="0.7"/>
<stop offset="1" stop-color="white" stop-opacity="0.4"/>
</linearGradient>
<linearGradient id="paint25_linear_166_51" x1="99.1165" y1="424.739" x2="201" y2="424.739" gradientUnits="userSpaceOnUse">
<stop stop-color="white"/>
<stop offset="0.246512" stop-color="white" stop-opacity="0.852093"/>
<stop offset="0.628631" stop-color="white" stop-opacity="0.7"/>
<stop offset="1" stop-color="white" stop-opacity="0.4"/>
</linearGradient>
<clipPath id="clip0_166_51">
<rect width="1117" height="700" fill="white"/>
</clipPath>
</defs>
</svg>
