<svg width="385" height="384" viewBox="0 0 385 384" fill="none" xmlns="http://www.w3.org/2000/svg">
<g opacity="0.2" filter="url(#filter0_d_138_144)">
<circle cx="195" cy="190" r="10" fill="black"/>
</g>
<g filter="url(#filter1_d_138_144)">
<path d="M235.203 157.641C239.37 157.641 243.732 157.901 248.289 158.422C252.977 158.812 257.143 159.398 260.789 160.18L256.688 192.406C253.302 191.495 249.461 190.779 245.164 190.258C240.867 189.737 236.896 189.477 233.25 189.477C224.786 189.477 216.714 191.169 209.031 194.555C201.479 197.81 194.839 202.628 189.109 209.008C183.38 215.258 178.888 222.81 175.633 231.664C172.378 240.518 170.75 250.479 170.75 261.547V376H135.984V161.547H164.305L168.406 200.805H169.773C174.201 192.862 179.539 185.635 185.789 179.125C192.039 172.615 199.266 167.406 207.469 163.5C215.802 159.594 225.047 157.641 235.203 157.641Z" fill="black" shape-rendering="crispEdges"/>
<path d="M248.289 158.422L248.232 158.919L248.24 158.92L248.248 158.92L248.289 158.422ZM260.789 160.18L261.285 160.243L261.343 159.787L260.894 159.691L260.789 160.18ZM256.688 192.406L256.558 192.889L257.111 193.038L257.183 192.469L256.688 192.406ZM209.031 194.555L209.229 195.014L209.233 195.012L209.031 194.555ZM189.109 209.008L189.478 209.346L189.481 209.342L189.109 209.008ZM170.75 376V376.5H171.25V376H170.75ZM135.984 376H135.484V376.5H135.984V376ZM135.984 161.547V161.047H135.484V161.547H135.984ZM164.305 161.547L164.802 161.495L164.755 161.047H164.305V161.547ZM168.406 200.805L167.909 200.857L167.956 201.305H168.406V200.805ZM169.773 200.805V201.305H170.067L170.21 201.048L169.773 200.805ZM185.789 179.125L185.428 178.779L185.789 179.125ZM207.469 163.5L207.257 163.047L207.254 163.049L207.469 163.5ZM235.203 158.141C239.349 158.141 243.692 158.4 248.232 158.919L248.346 157.925C243.772 157.402 239.391 157.141 235.203 157.141V158.141ZM248.248 158.92C252.919 159.309 257.064 159.893 260.684 160.669L260.894 159.691C257.223 158.904 253.034 158.316 248.331 157.924L248.248 158.92ZM260.293 160.117L256.192 192.343L257.183 192.469L261.285 160.243L260.293 160.117ZM256.817 191.923C253.405 191.005 249.539 190.285 245.224 189.761L245.104 190.754C249.382 191.273 253.2 191.985 256.558 192.889L256.817 191.923ZM245.224 189.761C240.911 189.239 236.919 188.977 233.25 188.977V189.977C236.872 189.977 240.823 190.235 245.104 190.754L245.224 189.761ZM233.25 188.977C224.718 188.977 216.576 190.683 208.83 194.097L209.233 195.012C216.851 191.655 224.855 189.977 233.25 189.977V188.977ZM208.833 194.096C201.212 197.381 194.513 202.242 188.737 208.674L189.481 209.342C195.164 203.013 201.746 198.239 209.229 195.014L208.833 194.096ZM188.741 208.67C182.963 214.973 178.439 222.583 175.164 231.492L176.102 231.837C179.337 223.037 183.798 215.543 189.478 209.346L188.741 208.67ZM175.164 231.492C171.885 240.41 170.25 250.43 170.25 261.547H171.25C171.25 250.528 172.87 240.627 176.102 231.837L175.164 231.492ZM170.25 261.547V376H171.25V261.547H170.25ZM170.75 375.5H135.984V376.5H170.75V375.5ZM136.484 376V161.547H135.484V376H136.484ZM135.984 162.047H164.305V161.047H135.984V162.047ZM163.807 161.599L167.909 200.857L168.904 200.753L164.802 161.495L163.807 161.599ZM168.406 201.305H169.773V200.305H168.406V201.305ZM170.21 201.048C174.617 193.143 179.93 185.951 186.15 179.471L185.428 178.779C179.148 185.32 173.784 192.581 169.337 200.561L170.21 201.048ZM186.15 179.471C192.358 173.005 199.535 167.832 207.684 163.951L207.254 163.049C198.997 166.981 191.72 172.224 185.428 178.779L186.15 179.471ZM207.681 163.953C215.941 160.081 225.113 158.141 235.203 158.141V157.141C224.981 157.141 215.663 159.107 207.257 163.047L207.681 163.953Z" fill="url(#paint0_linear_138_144)"/>
</g>
<g opacity="0.8" filter="url(#filter2_b_138_144)">
<path d="M5.48438 320.688V326.734C5.48438 327.422 5.46354 328.094 5.42188 328.75C5.39062 329.406 5.36458 329.917 5.34375 330.281H5.48438C5.95312 329.521 6.625 328.875 7.5 328.344C8.38542 327.812 9.51042 327.547 10.875 327.547C13 327.547 14.6979 328.292 15.9688 329.781C17.2396 331.271 17.875 333.479 17.875 336.406C17.875 338.344 17.5833 339.974 17 341.297C16.4271 342.62 15.6094 343.62 14.5469 344.297C13.4948 344.974 12.2448 345.312 10.7969 345.312C9.45312 345.312 8.34896 345.062 7.48438 344.562C6.63021 344.062 5.96875 343.453 5.5 342.734H5.28125L4.73438 345H2.71875V320.688H5.48438ZM10.3594 329.859C9.15104 329.859 8.19271 330.094 7.48438 330.562C6.77604 331.031 6.26562 331.745 5.95312 332.703C5.64062 333.651 5.48438 334.849 5.48438 336.297V336.469C5.48438 338.594 5.83333 340.219 6.53125 341.344C7.23958 342.458 8.51562 343.016 10.3594 343.016C11.901 343.016 13.0625 342.443 13.8438 341.297C14.625 340.151 15.0156 338.516 15.0156 336.391C15.0156 334.224 14.6302 332.594 13.8594 331.5C13.0885 330.406 11.9219 329.859 10.3594 329.859ZM36.6719 327.844V345H34.4219L34.0156 342.609H33.875C33.5208 343.203 33.0625 343.703 32.5 344.109C31.9375 344.505 31.3021 344.802 30.5938 345C29.8958 345.208 29.151 345.312 28.3594 345.312C27.0156 345.312 25.8854 345.094 24.9688 344.656C24.0521 344.219 23.3594 343.542 22.8906 342.625C22.4219 341.708 22.1875 340.526 22.1875 339.078V327.844H25V338.812C25 340.219 25.3125 341.271 25.9375 341.969C26.5625 342.667 27.526 343.016 28.8281 343.016C30.0677 343.016 31.0573 342.781 31.7969 342.312C32.5365 341.833 33.0677 341.13 33.3906 340.203C33.7135 339.276 33.875 338.141 33.875 336.797V327.844H36.6719ZM44.8906 327.844V345H42.125V327.844H44.8906ZM43.5312 321.406C43.9896 321.406 44.3802 321.547 44.7031 321.828C45.026 322.109 45.1875 322.552 45.1875 323.156C45.1875 323.76 45.026 324.208 44.7031 324.5C44.3802 324.781 43.9896 324.922 43.5312 324.922C43.0625 324.922 42.6719 324.781 42.3594 324.5C42.0469 324.208 41.8906 323.76 41.8906 323.156C41.8906 322.552 42.0469 322.109 42.3594 321.828C42.6719 321.547 43.0625 321.406 43.5312 321.406ZM53.125 345H50.3438V320.688H53.125V345ZM64.6094 345.312C62.4635 345.312 60.7552 344.573 59.4844 343.094C58.224 341.604 57.5938 339.401 57.5938 336.484C57.5938 333.536 58.2344 331.307 59.5156 329.797C60.8073 328.286 62.5208 327.531 64.6562 327.531C65.5625 327.531 66.349 327.651 67.0156 327.891C67.6927 328.13 68.276 328.453 68.7656 328.859C69.2552 329.255 69.6615 329.703 69.9844 330.203H70.1719C70.1302 329.88 70.0833 329.438 70.0312 328.875C69.9896 328.302 69.9688 327.823 69.9688 327.438V320.688H72.75V345H70.5312L70.0938 342.578H69.9688C69.6562 343.089 69.25 343.552 68.75 343.969C68.2604 344.375 67.6771 344.703 67 344.953C66.3229 345.193 65.526 345.312 64.6094 345.312ZM65.1094 343.016C66.901 343.016 68.1667 342.51 68.9062 341.5C69.6562 340.479 70.0312 338.958 70.0312 336.938V336.469C70.0312 334.333 69.6771 332.693 68.9688 331.547C68.2604 330.401 66.974 329.828 65.1094 329.828C63.5573 329.828 62.3906 330.427 61.6094 331.625C60.8385 332.823 60.4531 334.464 60.4531 336.547C60.4531 338.62 60.8385 340.219 61.6094 341.344C62.3906 342.458 63.5573 343.016 65.1094 343.016ZM80.9844 327.844V345H78.2188V327.844H80.9844ZM79.625 321.406C80.0833 321.406 80.474 321.547 80.7969 321.828C81.1198 322.109 81.2812 322.552 81.2812 323.156C81.2812 323.76 81.1198 324.208 80.7969 324.5C80.474 324.781 80.0833 324.922 79.625 324.922C79.1562 324.922 78.7656 324.781 78.4531 324.5C78.1406 324.208 77.9844 323.76 77.9844 323.156C77.9844 322.552 78.1406 322.109 78.4531 321.828C78.7656 321.547 79.1562 321.406 79.625 321.406ZM94.6875 327.531C96.7083 327.531 98.2396 328.031 99.2812 329.031C100.333 330.021 100.859 331.62 100.859 333.828V345H98.125V334.078C98.125 332.672 97.8073 331.62 97.1719 330.922C96.5365 330.214 95.5625 329.859 94.25 329.859C92.3854 329.859 91.0781 330.391 90.3281 331.453C89.5781 332.516 89.2031 334.062 89.2031 336.094V345H86.4375V327.844H88.6562L89.0625 330.297H89.2188C89.5833 329.693 90.0469 329.188 90.6094 328.781C91.1719 328.375 91.8021 328.068 92.5 327.859C93.1979 327.641 93.9271 327.531 94.6875 327.531ZM110.984 352.688C108.724 352.688 106.979 352.266 105.75 351.422C104.531 350.589 103.922 349.417 103.922 347.906C103.922 346.833 104.26 345.917 104.938 345.156C105.625 344.406 106.573 343.901 107.781 343.641C107.333 343.432 106.948 343.12 106.625 342.703C106.302 342.276 106.141 341.792 106.141 341.25C106.141 340.625 106.318 340.078 106.672 339.609C107.026 339.141 107.562 338.688 108.281 338.25C107.375 337.875 106.646 337.255 106.094 336.391C105.542 335.516 105.266 334.5 105.266 333.344C105.266 332.115 105.521 331.062 106.031 330.188C106.552 329.312 107.297 328.646 108.266 328.188C109.245 327.729 110.427 327.5 111.812 327.5C112.115 327.5 112.422 327.516 112.734 327.547C113.057 327.578 113.365 327.62 113.656 327.672C113.948 327.714 114.193 327.76 114.391 327.812H120.281V329.547L117.156 329.969C117.469 330.375 117.724 330.859 117.922 331.422C118.13 331.984 118.234 332.604 118.234 333.281C118.234 335 117.646 336.365 116.469 337.375C115.302 338.385 113.698 338.891 111.656 338.891C111.167 338.891 110.672 338.849 110.172 338.766C109.682 339.036 109.312 339.339 109.062 339.672C108.812 340.005 108.688 340.385 108.688 340.812C108.688 341.146 108.786 341.411 108.984 341.609C109.182 341.797 109.474 341.938 109.859 342.031C110.255 342.115 110.724 342.156 111.266 342.156H114.281C116.146 342.156 117.573 342.547 118.562 343.328C119.562 344.109 120.062 345.255 120.062 346.766C120.062 348.672 119.286 350.135 117.734 351.156C116.182 352.177 113.932 352.688 110.984 352.688ZM111.078 350.562C112.474 350.562 113.63 350.422 114.547 350.141C115.474 349.859 116.167 349.458 116.625 348.938C117.094 348.417 117.328 347.792 117.328 347.062C117.328 346.396 117.172 345.891 116.859 345.547C116.557 345.214 116.104 344.99 115.5 344.875C114.906 344.75 114.177 344.688 113.312 344.688H110.375C109.625 344.688 108.964 344.802 108.391 345.031C107.828 345.271 107.396 345.62 107.094 346.078C106.792 346.536 106.641 347.104 106.641 347.781C106.641 348.688 107.026 349.375 107.797 349.844C108.568 350.323 109.661 350.562 111.078 350.562ZM111.766 336.922C112.974 336.922 113.88 336.615 114.484 336C115.099 335.375 115.406 334.474 115.406 333.297C115.406 332.036 115.094 331.089 114.469 330.453C113.854 329.818 112.943 329.5 111.734 329.5C110.568 329.5 109.672 329.828 109.047 330.484C108.432 331.13 108.125 332.083 108.125 333.344C108.125 334.49 108.438 335.375 109.062 336C109.688 336.615 110.589 336.922 111.766 336.922ZM139.719 330H135.469V345H132.703V330H129.703V328.672L132.703 327.781V326.625C132.703 325.177 132.917 324.01 133.344 323.125C133.781 322.229 134.411 321.573 135.234 321.156C136.057 320.729 137.052 320.516 138.219 320.516C138.906 320.516 139.531 320.578 140.094 320.703C140.656 320.818 141.146 320.948 141.562 321.094L140.859 323.266C140.505 323.151 140.104 323.047 139.656 322.953C139.219 322.849 138.766 322.797 138.297 322.797C137.339 322.797 136.625 323.109 136.156 323.734C135.698 324.349 135.469 325.307 135.469 326.609V327.844H139.719V330ZM157.141 327.844V345H154.891L154.484 342.609H154.344C153.99 343.203 153.531 343.703 152.969 344.109C152.406 344.505 151.771 344.802 151.062 345C150.365 345.208 149.62 345.312 148.828 345.312C147.484 345.312 146.354 345.094 145.438 344.656C144.521 344.219 143.828 343.542 143.359 342.625C142.891 341.708 142.656 340.526 142.656 339.078V327.844H145.469V338.812C145.469 340.219 145.781 341.271 146.406 341.969C147.031 342.667 147.995 343.016 149.297 343.016C150.536 343.016 151.526 342.781 152.266 342.312C153.005 341.833 153.536 341.13 153.859 340.203C154.182 339.276 154.344 338.141 154.344 336.797V327.844H157.141ZM168.266 343.047C168.703 343.047 169.146 343.01 169.594 342.938C170.052 342.865 170.432 342.771 170.734 342.656V344.797C170.411 344.943 169.969 345.062 169.406 345.156C168.854 345.26 168.307 345.312 167.766 345.312C166.849 345.312 166.016 345.156 165.266 344.844C164.526 344.521 163.932 343.974 163.484 343.203C163.036 342.432 162.812 341.37 162.812 340.016V330H160.391V328.672L162.859 327.609L163.922 323.906H165.609V327.844H170.609V330H165.609V339.953C165.609 340.984 165.849 341.76 166.328 342.281C166.818 342.792 167.464 343.047 168.266 343.047ZM188.516 327.844V345H186.266L185.859 342.609H185.719C185.365 343.203 184.906 343.703 184.344 344.109C183.781 344.505 183.146 344.802 182.438 345C181.74 345.208 180.995 345.312 180.203 345.312C178.859 345.312 177.729 345.094 176.812 344.656C175.896 344.219 175.203 343.542 174.734 342.625C174.266 341.708 174.031 340.526 174.031 339.078V327.844H176.844V338.812C176.844 340.219 177.156 341.271 177.781 341.969C178.406 342.667 179.37 343.016 180.672 343.016C181.911 343.016 182.901 342.781 183.641 342.312C184.38 341.833 184.911 341.13 185.234 340.203C185.557 339.276 185.719 338.141 185.719 336.797V327.844H188.516ZM201.906 327.531C202.24 327.531 202.589 327.552 202.953 327.594C203.328 327.625 203.661 327.672 203.953 327.734L203.625 330.312C203.354 330.24 203.047 330.182 202.703 330.141C202.359 330.099 202.042 330.078 201.75 330.078C201.073 330.078 200.427 330.214 199.812 330.484C199.208 330.745 198.677 331.13 198.219 331.641C197.76 332.141 197.401 332.745 197.141 333.453C196.88 334.161 196.75 334.958 196.75 335.844V345H193.969V327.844H196.234L196.562 330.984H196.672C197.026 330.349 197.453 329.771 197.953 329.25C198.453 328.729 199.031 328.312 199.688 328C200.354 327.688 201.094 327.531 201.906 327.531ZM213.828 327.531C215.297 327.531 216.557 327.854 217.609 328.5C218.661 329.146 219.469 330.052 220.031 331.219C220.594 332.375 220.875 333.734 220.875 335.297V336.969H209.078C209.12 338.927 209.615 340.422 210.562 341.453C211.51 342.474 212.849 342.984 214.578 342.984C215.661 342.984 216.625 342.885 217.469 342.688C218.312 342.479 219.182 342.182 220.078 341.797V344.188C219.214 344.583 218.354 344.87 217.5 345.047C216.646 345.224 215.63 345.312 214.453 345.312C212.807 345.312 211.365 344.979 210.125 344.312C208.896 343.635 207.938 342.646 207.25 341.344C206.562 340.042 206.219 338.443 206.219 336.547C206.219 334.693 206.531 333.089 207.156 331.734C207.781 330.38 208.661 329.344 209.797 328.625C210.943 327.896 212.286 327.531 213.828 327.531ZM213.797 329.766C212.453 329.766 211.375 330.208 210.562 331.094C209.76 331.969 209.286 333.203 209.141 334.797H218C217.99 333.807 217.833 332.932 217.531 332.172C217.229 331.411 216.771 330.823 216.156 330.406C215.542 329.979 214.755 329.766 213.797 329.766ZM239.234 343.047C239.672 343.047 240.115 343.01 240.562 342.938C241.021 342.865 241.401 342.771 241.703 342.656V344.797C241.38 344.943 240.938 345.062 240.375 345.156C239.823 345.26 239.276 345.312 238.734 345.312C237.818 345.312 236.984 345.156 236.234 344.844C235.495 344.521 234.901 343.974 234.453 343.203C234.005 342.432 233.781 341.37 233.781 340.016V330H231.359V328.672L233.828 327.609L234.891 323.906H236.578V327.844H241.578V330H236.578V339.953C236.578 340.984 236.818 341.76 237.297 342.281C237.786 342.792 238.432 343.047 239.234 343.047ZM260.047 336.391C260.047 337.807 259.859 339.068 259.484 340.172C259.12 341.276 258.589 342.208 257.891 342.969C257.203 343.729 256.37 344.312 255.391 344.719C254.411 345.115 253.302 345.312 252.062 345.312C250.917 345.312 249.865 345.115 248.906 344.719C247.948 344.312 247.12 343.729 246.422 342.969C245.724 342.208 245.182 341.276 244.797 340.172C244.411 339.068 244.219 337.807 244.219 336.391C244.219 334.516 244.536 332.917 245.172 331.594C245.818 330.271 246.734 329.266 247.922 328.578C249.109 327.88 250.526 327.531 252.172 327.531C253.745 327.531 255.12 327.88 256.297 328.578C257.474 329.276 258.391 330.286 259.047 331.609C259.714 332.932 260.047 334.526 260.047 336.391ZM247.094 336.391C247.094 337.745 247.271 338.922 247.625 339.922C247.979 340.911 248.526 341.677 249.266 342.219C250.005 342.75 250.958 343.016 252.125 343.016C253.292 343.016 254.245 342.75 254.984 342.219C255.734 341.677 256.286 340.911 256.641 339.922C256.995 338.922 257.172 337.745 257.172 336.391C257.172 335.047 256.995 333.885 256.641 332.906C256.286 331.927 255.74 331.177 255 330.656C254.26 330.125 253.297 329.859 252.109 329.859C250.38 329.859 249.109 330.438 248.297 331.594C247.495 332.74 247.094 334.339 247.094 336.391ZM269.297 352.688C267.036 352.688 265.292 352.266 264.062 351.422C262.844 350.589 262.234 349.417 262.234 347.906C262.234 346.833 262.573 345.917 263.25 345.156C263.938 344.406 264.885 343.901 266.094 343.641C265.646 343.432 265.26 343.12 264.938 342.703C264.615 342.276 264.453 341.792 264.453 341.25C264.453 340.625 264.63 340.078 264.984 339.609C265.339 339.141 265.875 338.688 266.594 338.25C265.688 337.875 264.958 337.255 264.406 336.391C263.854 335.516 263.578 334.5 263.578 333.344C263.578 332.115 263.833 331.062 264.344 330.188C264.865 329.312 265.609 328.646 266.578 328.188C267.557 327.729 268.74 327.5 270.125 327.5C270.427 327.5 270.734 327.516 271.047 327.547C271.37 327.578 271.677 327.62 271.969 327.672C272.26 327.714 272.505 327.76 272.703 327.812H278.594V329.547L275.469 329.969C275.781 330.375 276.036 330.859 276.234 331.422C276.443 331.984 276.547 332.604 276.547 333.281C276.547 335 275.958 336.365 274.781 337.375C273.615 338.385 272.01 338.891 269.969 338.891C269.479 338.891 268.984 338.849 268.484 338.766C267.995 339.036 267.625 339.339 267.375 339.672C267.125 340.005 267 340.385 267 340.812C267 341.146 267.099 341.411 267.297 341.609C267.495 341.797 267.786 341.938 268.172 342.031C268.568 342.115 269.036 342.156 269.578 342.156H272.594C274.458 342.156 275.885 342.547 276.875 343.328C277.875 344.109 278.375 345.255 278.375 346.766C278.375 348.672 277.599 350.135 276.047 351.156C274.495 352.177 272.245 352.688 269.297 352.688ZM269.391 350.562C270.786 350.562 271.943 350.422 272.859 350.141C273.786 349.859 274.479 349.458 274.938 348.938C275.406 348.417 275.641 347.792 275.641 347.062C275.641 346.396 275.484 345.891 275.172 345.547C274.87 345.214 274.417 344.99 273.812 344.875C273.219 344.75 272.49 344.688 271.625 344.688H268.688C267.938 344.688 267.276 344.802 266.703 345.031C266.141 345.271 265.708 345.62 265.406 346.078C265.104 346.536 264.953 347.104 264.953 347.781C264.953 348.688 265.339 349.375 266.109 349.844C266.88 350.323 267.974 350.562 269.391 350.562ZM270.078 336.922C271.286 336.922 272.193 336.615 272.797 336C273.411 335.375 273.719 334.474 273.719 333.297C273.719 332.036 273.406 331.089 272.781 330.453C272.167 329.818 271.255 329.5 270.047 329.5C268.88 329.5 267.984 329.828 267.359 330.484C266.745 331.13 266.438 332.083 266.438 333.344C266.438 334.49 266.75 335.375 267.375 336C268 336.615 268.901 336.922 270.078 336.922ZM288.578 327.531C290.047 327.531 291.307 327.854 292.359 328.5C293.411 329.146 294.219 330.052 294.781 331.219C295.344 332.375 295.625 333.734 295.625 335.297V336.969H283.828C283.87 338.927 284.365 340.422 285.312 341.453C286.26 342.474 287.599 342.984 289.328 342.984C290.411 342.984 291.375 342.885 292.219 342.688C293.062 342.479 293.932 342.182 294.828 341.797V344.188C293.964 344.583 293.104 344.87 292.25 345.047C291.396 345.224 290.38 345.312 289.203 345.312C287.557 345.312 286.115 344.979 284.875 344.312C283.646 343.635 282.688 342.646 282 341.344C281.312 340.042 280.969 338.443 280.969 336.547C280.969 334.693 281.281 333.089 281.906 331.734C282.531 330.38 283.411 329.344 284.547 328.625C285.693 327.896 287.036 327.531 288.578 327.531ZM288.547 329.766C287.203 329.766 286.125 330.208 285.312 331.094C284.51 331.969 284.036 333.203 283.891 334.797H292.75C292.74 333.807 292.583 332.932 292.281 332.172C291.979 331.411 291.521 330.823 290.906 330.406C290.292 329.979 289.505 329.766 288.547 329.766ZM305.672 343.047C306.109 343.047 306.552 343.01 307 342.938C307.458 342.865 307.839 342.771 308.141 342.656V344.797C307.818 344.943 307.375 345.062 306.812 345.156C306.26 345.26 305.714 345.312 305.172 345.312C304.255 345.312 303.422 345.156 302.672 344.844C301.932 344.521 301.339 343.974 300.891 343.203C300.443 342.432 300.219 341.37 300.219 340.016V330H297.797V328.672L300.266 327.609L301.328 323.906H303.016V327.844H308.016V330H303.016V339.953C303.016 340.984 303.255 341.76 303.734 342.281C304.224 342.792 304.87 343.047 305.672 343.047ZM314.391 320.688V327.766C314.391 328.214 314.38 328.667 314.359 329.125C314.339 329.573 314.302 329.974 314.25 330.328H314.422C314.776 329.724 315.224 329.219 315.766 328.812C316.318 328.396 316.938 328.083 317.625 327.875C318.323 327.667 319.057 327.562 319.828 327.562C321.193 327.562 322.339 327.781 323.266 328.219C324.193 328.656 324.885 329.333 325.344 330.25C325.812 331.167 326.047 332.359 326.047 333.828V345H323.312V334.078C323.312 332.672 322.995 331.62 322.359 330.922C321.724 330.214 320.75 329.859 319.438 329.859C318.188 329.859 317.193 330.099 316.453 330.578C315.724 331.057 315.198 331.766 314.875 332.703C314.552 333.63 314.391 334.766 314.391 336.109V345H311.625V320.688H314.391ZM338.016 327.531C339.484 327.531 340.745 327.854 341.797 328.5C342.849 329.146 343.656 330.052 344.219 331.219C344.781 332.375 345.062 333.734 345.062 335.297V336.969H333.266C333.307 338.927 333.802 340.422 334.75 341.453C335.698 342.474 337.036 342.984 338.766 342.984C339.849 342.984 340.812 342.885 341.656 342.688C342.5 342.479 343.37 342.182 344.266 341.797V344.188C343.401 344.583 342.542 344.87 341.688 345.047C340.833 345.224 339.818 345.312 338.641 345.312C336.995 345.312 335.552 344.979 334.312 344.312C333.083 343.635 332.125 342.646 331.438 341.344C330.75 340.042 330.406 338.443 330.406 336.547C330.406 334.693 330.719 333.089 331.344 331.734C331.969 330.38 332.849 329.344 333.984 328.625C335.13 327.896 336.474 327.531 338.016 327.531ZM337.984 329.766C336.641 329.766 335.562 330.208 334.75 331.094C333.948 331.969 333.474 333.203 333.328 334.797H342.188C342.177 333.807 342.021 332.932 341.719 332.172C341.417 331.411 340.958 330.823 340.344 330.406C339.729 329.979 338.943 329.766 337.984 329.766ZM357.375 327.531C357.708 327.531 358.057 327.552 358.422 327.594C358.797 327.625 359.13 327.672 359.422 327.734L359.094 330.312C358.823 330.24 358.516 330.182 358.172 330.141C357.828 330.099 357.51 330.078 357.219 330.078C356.542 330.078 355.896 330.214 355.281 330.484C354.677 330.745 354.146 331.13 353.688 331.641C353.229 332.141 352.87 332.745 352.609 333.453C352.349 334.161 352.219 334.958 352.219 335.844V345H349.438V327.844H351.703L352.031 330.984H352.141C352.495 330.349 352.922 329.771 353.422 329.25C353.922 328.729 354.5 328.312 355.156 328C355.823 327.688 356.562 327.531 357.375 327.531ZM362.234 343.328C362.234 342.578 362.417 342.047 362.781 341.734C363.156 341.411 363.609 341.25 364.141 341.25C364.693 341.25 365.156 341.411 365.531 341.734C365.917 342.047 366.109 342.578 366.109 343.328C366.109 344.068 365.917 344.604 365.531 344.938C365.156 345.271 364.693 345.438 364.141 345.438C363.609 345.438 363.156 345.271 362.781 344.938C362.417 344.604 362.234 344.068 362.234 343.328Z" fill="url(#paint1_linear_138_144)"/>
</g>
<defs>
<filter id="filter0_d_138_144" x="5" y="0" width="380" height="380" filterUnits="userSpaceOnUse" color-interpolation-filters="sRGB">
<feFlood flood-opacity="0" result="BackgroundImageFix"/>
<feColorMatrix in="SourceAlpha" type="matrix" values="0 0 0 0 0 0 0 0 0 0 0 0 0 0 0 0 0 0 127 0" result="hardAlpha"/>
<feMorphology radius="100" operator="dilate" in="SourceAlpha" result="effect1_dropShadow_138_144"/>
<feOffset/>
<feGaussianBlur stdDeviation="40"/>
<feComposite in2="hardAlpha" operator="out"/>
<feColorMatrix type="matrix" values="0 0 0 0 0.707222 0 0 0 0 0.721404 0 0 0 0 0.742676 0 0 0 1 0"/>
<feBlend mode="normal" in2="BackgroundImageFix" result="effect1_dropShadow_138_144"/>
<feBlend mode="normal" in="SourceGraphic" in2="effect1_dropShadow_138_144" result="shape"/>
</filter>
<filter id="filter1_d_138_144" x="131.984" y="157.641" width="132.805" height="226.359" filterUnits="userSpaceOnUse" color-interpolation-filters="sRGB">
<feFlood flood-opacity="0" result="BackgroundImageFix"/>
<feColorMatrix in="SourceAlpha" type="matrix" values="0 0 0 0 0 0 0 0 0 0 0 0 0 0 0 0 0 0 127 0" result="hardAlpha"/>
<feOffset dy="4"/>
<feGaussianBlur stdDeviation="2"/>
<feComposite in2="hardAlpha" operator="out"/>
<feColorMatrix type="matrix" values="0 0 0 0 0 0 0 0 0 0 0 0 0 0 0 0 0 0 0.25 0"/>
<feBlend mode="normal" in2="BackgroundImageFix" result="effect1_dropShadow_138_144"/>
<feBlend mode="normal" in="SourceGraphic" in2="effect1_dropShadow_138_144" result="shape"/>
</filter>
<filter id="filter2_b_138_144" x="0.71875" y="318.516" width="367.391" height="36.1719" filterUnits="userSpaceOnUse" color-interpolation-filters="sRGB">
<feFlood flood-opacity="0" result="BackgroundImageFix"/>
<feGaussianBlur in="BackgroundImageFix" stdDeviation="1"/>
<feComposite in2="SourceAlpha" operator="in" result="effect1_backgroundBlur_138_144"/>
<feBlend mode="normal" in="SourceGraphic" in2="effect1_backgroundBlur_138_144" result="shape"/>
</filter>
<linearGradient id="paint0_linear_138_144" x1="185" y1="146.5" x2="185" y2="362.5" gradientUnits="userSpaceOnUse">
<stop stop-color="#C0C0C0"/>
<stop offset="0.195054" stop-color="#C0C0C0" stop-opacity="0.24"/>
<stop offset="0.366562" stop-color="#C0C0C0" stop-opacity="0.1"/>
<stop offset="0.6" stop-color="#C0C0C0" stop-opacity="0.08"/>
<stop offset="0.8" stop-color="#C0C0C0" stop-opacity="0.06"/>
<stop offset="1" stop-color="#C0C0C0" stop-opacity="0"/>
</linearGradient>
<linearGradient id="paint1_linear_138_144" x1="4" y1="334" x2="369" y2="334" gradientUnits="userSpaceOnUse">
<stop stop-color="white"/>
<stop offset="0.246512" stop-color="white" stop-opacity="0.852093"/>
<stop offset="0.628631" stop-color="white" stop-opacity="0.7"/>
<stop offset="1" stop-color="white" stop-opacity="0.4"/>
</linearGradient>
</defs>
</svg>
