<svg width="22" height="8" viewBox="0 0 22 8" fill="none" xmlns="http://www.w3.org/2000/svg">
<path d="M0.924 7V1.6H1.632V2.848C1.744 2.624 1.888 2.432 2.064 2.272C2.248 2.104 2.44 1.972 2.64 1.876C2.848 1.78 3.06 1.716 3.276 1.684C3.492 1.644 3.696 1.64 3.888 1.672L3.624 2.32C3.368 2.288 3.12 2.32 2.88 2.416C2.64 2.504 2.428 2.64 2.244 2.824C2.06 3 1.912 3.216 1.8 3.472C1.688 3.728 1.632 4.004 1.632 4.3V7H0.924ZM4.40381 4.3C4.40381 3.924 4.47181 3.572 4.60781 3.244C4.74381 2.908 4.92781 2.616 5.15981 2.368C5.39981 2.12 5.67581 1.924 5.98781 1.78C6.30781 1.636 6.64781 1.564 7.00781 1.564C7.39181 1.564 7.74381 1.64 8.06381 1.792C8.39181 1.944 8.67181 2.152 8.90381 2.416C9.14381 2.68 9.32381 2.992 9.44381 3.352C9.57181 3.712 9.62381 4.096 9.59981 4.504H5.12381C5.13981 4.768 5.19981 5.016 5.30381 5.248C5.40781 5.48 5.53981 5.684 5.69981 5.86C5.86781 6.036 6.06381 6.176 6.28781 6.28C6.51181 6.376 6.75181 6.424 7.00781 6.424C7.37581 6.424 7.70781 6.324 8.00381 6.124C8.29981 5.924 8.52381 5.656 8.67581 5.32L9.38381 5.404C9.17581 5.884 8.86381 6.276 8.44781 6.58C8.03181 6.884 7.55181 7.036 7.00781 7.036C6.63981 7.036 6.29581 6.964 5.97581 6.82C5.66381 6.676 5.39181 6.48 5.15981 6.232C4.92781 5.984 4.74381 5.696 4.60781 5.368C4.47181 5.032 4.40381 4.676 4.40381 4.3ZM7.00781 2.128C6.75981 2.128 6.52381 2.18 6.29981 2.284C6.08381 2.38 5.89181 2.516 5.72381 2.692C5.56381 2.86 5.43181 3.06 5.32781 3.292C5.22381 3.524 5.16381 3.772 5.14781 4.036H8.87981C8.84781 3.756 8.77581 3.5 8.66381 3.268C8.55981 3.036 8.42381 2.836 8.25581 2.668C8.09581 2.5 7.90781 2.368 7.69181 2.272C7.47581 2.176 7.24781 2.128 7.00781 2.128ZM10.5796 4.3C10.5796 3.908 10.6476 3.548 10.7836 3.22C10.9276 2.884 11.1156 2.596 11.3476 2.356C11.5796 2.108 11.8516 1.916 12.1636 1.78C12.4756 1.636 12.8036 1.564 13.1476 1.564C13.6676 1.564 14.1396 1.712 14.5636 2.008C14.9876 2.296 15.3036 2.712 15.5116 3.256L14.8516 3.34C14.6916 2.956 14.4556 2.668 14.1436 2.476C13.8396 2.276 13.5156 2.176 13.1716 2.176C12.8996 2.176 12.6476 2.232 12.4156 2.344C12.1836 2.456 11.9836 2.612 11.8156 2.812C11.6476 3.004 11.5156 3.228 11.4196 3.484C11.3316 3.74 11.2876 4.012 11.2876 4.3C11.2876 4.588 11.3356 4.864 11.4316 5.128C11.5276 5.384 11.6596 5.608 11.8276 5.8C11.9956 5.992 12.1916 6.144 12.4156 6.256C12.6476 6.368 12.8996 6.424 13.1716 6.424C13.5316 6.424 13.8596 6.32 14.1556 6.112C14.4596 5.904 14.6916 5.612 14.8516 5.236L15.5116 5.32C15.3036 5.872 14.9876 6.296 14.5636 6.592C14.1396 6.888 13.6676 7.036 13.1476 7.036C12.7956 7.036 12.4636 6.968 12.1516 6.832C11.8396 6.688 11.5676 6.492 11.3356 6.244C11.1036 5.996 10.9196 5.708 10.7836 5.38C10.6476 5.044 10.5796 4.684 10.5796 4.3ZM16.2612 1.6H16.9812V0.304H17.6892V1.6H19.2132V2.164H17.6892V5.188C17.6892 5.532 17.8012 5.812 18.0252 6.028C18.2572 6.236 18.5332 6.34 18.8532 6.34C18.9652 6.34 19.0452 6.332 19.0932 6.316L19.2492 6.94C19.2252 6.948 19.1692 6.96 19.0812 6.976C18.9932 6.992 18.9012 7 18.8052 7C18.5412 7 18.2972 6.956 18.0732 6.868C17.8492 6.78 17.6572 6.66 17.4972 6.508C17.3372 6.348 17.2092 6.156 17.1132 5.932C17.0252 5.708 16.9812 5.464 16.9812 5.2V2.164H16.2612V1.6ZM20.3132 6.568C20.3132 6.424 20.3692 6.3 20.4812 6.196C20.5932 6.092 20.7292 6.04 20.8892 6.04C21.0492 6.04 21.1852 6.096 21.2972 6.208C21.4092 6.312 21.4652 6.432 21.4652 6.568C21.4652 6.704 21.4092 6.828 21.2972 6.94C21.1852 7.044 21.0492 7.096 20.8892 7.096C20.7292 7.096 20.5932 7.044 20.4812 6.94C20.3692 6.828 20.3132 6.704 20.3132 6.568Z" fill="white"/>
</svg>