<svg width="900" height="600" viewBox="0 0 900 600" fill="none" xmlns="http://www.w3.org/2000/svg">
<rect width="900" height="600" fill="black"/>
<g opacity="0.2" filter="url(#filter0_d_135_139)">
<circle cx="460" cy="257" r="10" fill="black"/>
</g>
<g filter="url(#filter1_d_135_139)">
<path d="M500.203 224.641C504.37 224.641 508.732 224.901 513.289 225.422C517.977 225.812 522.143 226.398 525.789 227.18L521.688 259.406C518.302 258.495 514.461 257.779 510.164 257.258C505.867 256.737 501.896 256.477 498.25 256.477C489.786 256.477 481.714 258.169 474.031 261.555C466.479 264.81 459.839 269.628 454.109 276.008C448.38 282.258 443.888 289.81 440.633 298.664C437.378 307.518 435.75 317.479 435.75 328.547V443H400.984V228.547H429.305L433.406 267.805H434.773C439.201 259.862 444.539 252.635 450.789 246.125C457.039 239.615 464.266 234.406 472.469 230.5C480.802 226.594 490.047 224.641 500.203 224.641Z" fill="black" shape-rendering="crispEdges"/>
<path d="M513.289 225.422L513.232 225.919L513.24 225.92L513.248 225.92L513.289 225.422ZM525.789 227.18L526.285 227.243L526.343 226.787L525.894 226.691L525.789 227.18ZM521.688 259.406L521.558 259.889L522.111 260.038L522.183 259.469L521.688 259.406ZM474.031 261.555L474.229 262.014L474.233 262.012L474.031 261.555ZM454.109 276.008L454.478 276.346L454.481 276.342L454.109 276.008ZM435.75 443V443.5H436.25V443H435.75ZM400.984 443H400.484V443.5H400.984V443ZM400.984 228.547V228.047H400.484V228.547H400.984ZM429.305 228.547L429.802 228.495L429.755 228.047H429.305V228.547ZM433.406 267.805L432.909 267.857L432.956 268.305H433.406V267.805ZM434.773 267.805V268.305H435.067L435.21 268.048L434.773 267.805ZM450.789 246.125L450.428 245.779L450.789 246.125ZM472.469 230.5L472.257 230.047L472.254 230.049L472.469 230.5ZM500.203 225.141C504.349 225.141 508.692 225.4 513.232 225.919L513.346 224.925C508.772 224.402 504.391 224.141 500.203 224.141V225.141ZM513.248 225.92C517.919 226.309 522.064 226.893 525.684 227.669L525.894 226.691C522.223 225.904 518.034 225.316 513.331 224.924L513.248 225.92ZM525.293 227.117L521.192 259.343L522.183 259.469L526.285 227.243L525.293 227.117ZM521.817 258.923C518.405 258.005 514.539 257.285 510.224 256.761L510.104 257.754C514.382 258.273 518.2 258.985 521.558 259.889L521.817 258.923ZM510.224 256.761C505.911 256.239 501.919 255.977 498.25 255.977V256.977C501.872 256.977 505.823 257.235 510.104 257.754L510.224 256.761ZM498.25 255.977C489.718 255.977 481.576 257.683 473.83 261.097L474.233 262.012C481.851 258.655 489.855 256.977 498.25 256.977V255.977ZM473.833 261.096C466.212 264.381 459.513 269.242 453.737 275.674L454.481 276.342C460.164 270.013 466.746 265.239 474.229 262.014L473.833 261.096ZM453.741 275.67C447.963 281.973 443.439 289.583 440.164 298.492L441.102 298.837C444.337 290.037 448.798 282.543 454.478 276.346L453.741 275.67ZM440.164 298.492C436.885 307.41 435.25 317.43 435.25 328.547H436.25C436.25 317.528 437.87 307.627 441.102 298.837L440.164 298.492ZM435.25 328.547V443H436.25V328.547H435.25ZM435.75 442.5H400.984V443.5H435.75V442.5ZM401.484 443V228.547H400.484V443H401.484ZM400.984 229.047H429.305V228.047H400.984V229.047ZM428.807 228.599L432.909 267.857L433.904 267.753L429.802 228.495L428.807 228.599ZM433.406 268.305H434.773V267.305H433.406V268.305ZM435.21 268.048C439.617 260.143 444.93 252.951 451.15 246.471L450.428 245.779C444.148 252.32 438.784 259.581 434.337 267.561L435.21 268.048ZM451.15 246.471C457.358 240.005 464.535 234.832 472.684 230.951L472.254 230.049C463.997 233.981 456.72 239.224 450.428 245.779L451.15 246.471ZM472.681 230.953C480.941 227.081 490.113 225.141 500.203 225.141V224.141C489.981 224.141 480.663 226.107 472.257 230.047L472.681 230.953Z" fill="url(#paint0_linear_135_139)"/>
</g>
<defs>
<filter id="filter0_d_135_139" x="270" y="67" width="380" height="380" filterUnits="userSpaceOnUse" color-interpolation-filters="sRGB">
<feFlood flood-opacity="0" result="BackgroundImageFix"/>
<feColorMatrix in="SourceAlpha" type="matrix" values="0 0 0 0 0 0 0 0 0 0 0 0 0 0 0 0 0 0 127 0" result="hardAlpha"/>
<feMorphology radius="100" operator="dilate" in="SourceAlpha" result="effect1_dropShadow_135_139"/>
<feOffset/>
<feGaussianBlur stdDeviation="40"/>
<feComposite in2="hardAlpha" operator="out"/>
<feColorMatrix type="matrix" values="0 0 0 0 0.707222 0 0 0 0 0.721404 0 0 0 0 0.742676 0 0 0 1 0"/>
<feBlend mode="normal" in2="BackgroundImageFix" result="effect1_dropShadow_135_139"/>
<feBlend mode="normal" in="SourceGraphic" in2="effect1_dropShadow_135_139" result="shape"/>
</filter>
<filter id="filter1_d_135_139" x="396.984" y="224.641" width="132.805" height="226.359" filterUnits="userSpaceOnUse" color-interpolation-filters="sRGB">
<feFlood flood-opacity="0" result="BackgroundImageFix"/>
<feColorMatrix in="SourceAlpha" type="matrix" values="0 0 0 0 0 0 0 0 0 0 0 0 0 0 0 0 0 0 127 0" result="hardAlpha"/>
<feOffset dy="4"/>
<feGaussianBlur stdDeviation="2"/>
<feComposite in2="hardAlpha" operator="out"/>
<feColorMatrix type="matrix" values="0 0 0 0 0 0 0 0 0 0 0 0 0 0 0 0 0 0 0.25 0"/>
<feBlend mode="normal" in2="BackgroundImageFix" result="effect1_dropShadow_135_139"/>
<feBlend mode="normal" in="SourceGraphic" in2="effect1_dropShadow_135_139" result="shape"/>
</filter>
<linearGradient id="paint0_linear_135_139" x1="450" y1="213.5" x2="450" y2="429.5" gradientUnits="userSpaceOnUse">
<stop stop-color="#C0C0C0"/>
<stop offset="0.195054" stop-color="#C0C0C0" stop-opacity="0.24"/>
<stop offset="0.366562" stop-color="#C0C0C0" stop-opacity="0.1"/>
<stop offset="0.6" stop-color="#C0C0C0" stop-opacity="0.08"/>
<stop offset="0.8" stop-color="#C0C0C0" stop-opacity="0.06"/>
<stop offset="1" stop-color="#C0C0C0" stop-opacity="0"/>
</linearGradient>
</defs>
</svg>
