<svg width="400" height="400" viewBox="0 0 400 400" fill="none" xmlns="http://www.w3.org/2000/svg">
<g clip-path="url(#clip0_174_838)">
<rect width="400" height="400" fill="black"/>
<g opacity="0.2" filter="url(#filter0_d_174_838)">
<circle cx="210" cy="157" r="10" fill="black"/>
</g>
<g filter="url(#filter1_d_174_838)">
<path d="M250.203 124.641C254.37 124.641 258.732 124.901 263.289 125.422C267.977 125.812 272.143 126.398 275.789 127.18L271.688 159.406C268.302 158.495 264.461 157.779 260.164 157.258C255.867 156.737 251.896 156.477 248.25 156.477C239.786 156.477 231.714 158.169 224.031 161.555C216.479 164.81 209.839 169.628 204.109 176.008C198.38 182.258 193.888 189.81 190.633 198.664C187.378 207.518 185.75 217.479 185.75 228.547V343H150.984V128.547H179.305L183.406 167.805H184.773C189.201 159.862 194.539 152.635 200.789 146.125C207.039 139.615 214.266 134.406 222.469 130.5C230.802 126.594 240.047 124.641 250.203 124.641Z" fill="black" shape-rendering="crispEdges"/>
<path d="M263.289 125.422L263.232 125.919L263.24 125.92L263.248 125.92L263.289 125.422ZM275.789 127.18L276.285 127.243L276.343 126.787L275.894 126.691L275.789 127.18ZM271.688 159.406L271.558 159.889L272.111 160.038L272.183 159.469L271.688 159.406ZM224.031 161.555L224.229 162.014L224.233 162.012L224.031 161.555ZM204.109 176.008L204.478 176.346L204.481 176.342L204.109 176.008ZM185.75 343V343.5H186.25V343H185.75ZM150.984 343H150.484V343.5H150.984V343ZM150.984 128.547V128.047H150.484V128.547H150.984ZM179.305 128.547L179.802 128.495L179.755 128.047H179.305V128.547ZM183.406 167.805L182.909 167.857L182.956 168.305H183.406V167.805ZM184.773 167.805V168.305H185.067L185.21 168.048L184.773 167.805ZM200.789 146.125L200.428 145.779L200.789 146.125ZM222.469 130.5L222.257 130.047L222.254 130.049L222.469 130.5ZM250.203 125.141C254.349 125.141 258.692 125.4 263.232 125.919L263.346 124.925C258.772 124.402 254.391 124.141 250.203 124.141V125.141ZM263.248 125.92C267.919 126.309 272.064 126.893 275.684 127.669L275.894 126.691C272.223 125.904 268.034 125.316 263.331 124.924L263.248 125.92ZM275.293 127.117L271.192 159.343L272.183 159.469L276.285 127.243L275.293 127.117ZM271.817 158.923C268.405 158.005 264.539 157.285 260.224 156.761L260.104 157.754C264.382 158.273 268.2 158.985 271.558 159.889L271.817 158.923ZM260.224 156.761C255.911 156.239 251.919 155.977 248.25 155.977V156.977C251.872 156.977 255.823 157.235 260.104 157.754L260.224 156.761ZM248.25 155.977C239.718 155.977 231.576 157.683 223.83 161.097L224.233 162.012C231.851 158.655 239.855 156.977 248.25 156.977V155.977ZM223.833 161.096C216.212 164.381 209.513 169.242 203.737 175.674L204.481 176.342C210.164 170.013 216.746 165.239 224.229 162.014L223.833 161.096ZM203.741 175.67C197.963 181.973 193.439 189.583 190.164 198.492L191.102 198.837C194.337 190.037 198.798 182.543 204.478 176.346L203.741 175.67ZM190.164 198.492C186.885 207.41 185.25 217.43 185.25 228.547H186.25C186.25 217.528 187.87 207.627 191.102 198.837L190.164 198.492ZM185.25 228.547V343H186.25V228.547H185.25ZM185.75 342.5H150.984V343.5H185.75V342.5ZM151.484 343V128.547H150.484V343H151.484ZM150.984 129.047H179.305V128.047H150.984V129.047ZM178.807 128.599L182.909 167.857L183.904 167.753L179.802 128.495L178.807 128.599ZM183.406 168.305H184.773V167.305H183.406V168.305ZM185.21 168.048C189.617 160.143 194.93 152.951 201.15 146.471L200.428 145.779C194.148 152.32 188.784 159.581 184.337 167.561L185.21 168.048ZM201.15 146.471C207.358 140.005 214.535 134.832 222.684 130.951L222.254 130.049C213.997 133.981 206.72 139.224 200.428 145.779L201.15 146.471ZM222.681 130.953C230.941 127.081 240.113 125.141 250.203 125.141V124.141C239.981 124.141 230.663 126.107 222.257 130.047L222.681 130.953Z" fill="url(#paint0_linear_174_838)"/>
</g>
</g>
<defs>
<filter id="filter0_d_174_838" x="20" y="-33" width="380" height="380" filterUnits="userSpaceOnUse" color-interpolation-filters="sRGB">
<feFlood flood-opacity="0" result="BackgroundImageFix"/>
<feColorMatrix in="SourceAlpha" type="matrix" values="0 0 0 0 0 0 0 0 0 0 0 0 0 0 0 0 0 0 127 0" result="hardAlpha"/>
<feMorphology radius="100" operator="dilate" in="SourceAlpha" result="effect1_dropShadow_174_838"/>
<feOffset/>
<feGaussianBlur stdDeviation="40"/>
<feComposite in2="hardAlpha" operator="out"/>
<feColorMatrix type="matrix" values="0 0 0 0 0.707222 0 0 0 0 0.721404 0 0 0 0 0.742676 0 0 0 1 0"/>
<feBlend mode="normal" in2="BackgroundImageFix" result="effect1_dropShadow_174_838"/>
<feBlend mode="normal" in="SourceGraphic" in2="effect1_dropShadow_174_838" result="shape"/>
</filter>
<filter id="filter1_d_174_838" x="146.984" y="124.641" width="132.805" height="226.359" filterUnits="userSpaceOnUse" color-interpolation-filters="sRGB">
<feFlood flood-opacity="0" result="BackgroundImageFix"/>
<feColorMatrix in="SourceAlpha" type="matrix" values="0 0 0 0 0 0 0 0 0 0 0 0 0 0 0 0 0 0 127 0" result="hardAlpha"/>
<feOffset dy="4"/>
<feGaussianBlur stdDeviation="2"/>
<feComposite in2="hardAlpha" operator="out"/>
<feColorMatrix type="matrix" values="0 0 0 0 0 0 0 0 0 0 0 0 0 0 0 0 0 0 0.25 0"/>
<feBlend mode="normal" in2="BackgroundImageFix" result="effect1_dropShadow_174_838"/>
<feBlend mode="normal" in="SourceGraphic" in2="effect1_dropShadow_174_838" result="shape"/>
</filter>
<linearGradient id="paint0_linear_174_838" x1="200" y1="113.5" x2="200" y2="329.5" gradientUnits="userSpaceOnUse">
<stop stop-color="#C0C0C0"/>
<stop offset="0.195054" stop-color="#C0C0C0" stop-opacity="0.24"/>
<stop offset="0.366562" stop-color="#C0C0C0" stop-opacity="0.1"/>
<stop offset="0.6" stop-color="#C0C0C0" stop-opacity="0.08"/>
<stop offset="0.8" stop-color="#C0C0C0" stop-opacity="0.06"/>
<stop offset="1" stop-color="#C0C0C0" stop-opacity="0"/>
</linearGradient>
<clipPath id="clip0_174_838">
<rect width="400" height="400" fill="white"/>
</clipPath>
</defs>
</svg>
