<svg width="652" height="409" viewBox="0 0 652 409" fill="none" xmlns="http://www.w3.org/2000/svg">
<g clip-path="url(#clip0_123_43)">
<g filter="url(#filter0_d_123_43)">
<g opacity="0.2" filter="url(#filter1_d_123_43)">
<rect x="1" y="1" width="650" height="407" rx="32" fill="url(#paint0_linear_123_43)" shape-rendering="crispEdges"/>
<rect x="-0.5" y="-0.5" width="653" height="410" rx="33.5" stroke="url(#paint1_linear_123_43)" stroke-opacity="0.4" stroke-width="3" shape-rendering="crispEdges"/>
</g>
<g filter="url(#filter2_i_123_43)">
<path d="M90.5 129L1 152V408H651V22L602.5 105L536 160.5L449 179.952L349 160.5L264.5 207L171.5 179.952L90.5 129Z" fill="url(#paint2_linear_123_43)"/>
</g>
<path d="M90.5 129L1 152V408H651V22L602.5 105L536 160.5L449 179.952L349 160.5L264.5 207L171.5 179.952L90.5 129Z" stroke="url(#paint3_linear_123_43)" stroke-opacity="0.8" stroke-width="0.5"/>
<path opacity="0.6" d="M1 268H650" stroke="url(#paint4_linear_123_43)" stroke-width="2" stroke-linecap="round" stroke-dasharray="4 10"/>
<path opacity="0.4" d="M2 69H651" stroke="url(#paint5_linear_123_43)" stroke-width="2" stroke-linecap="round" stroke-dasharray="4 10"/>
<path opacity="0.7" d="M0.5 259L79 250.5L162.5 275.5L246.5 259L350.5 287.5L420.5 242.5L507 227.5L548 250.5L578.5 190L621 168.5L637 133.5L651 102.5" stroke="url(#paint6_linear_123_43)" stroke-opacity="0.8" stroke-width="2" stroke-linecap="round"/>
<g opacity="0.8" filter="url(#filter3_i_123_43)">
<path d="M52.1934 345L46.9492 331.816H46.9004C46.9134 332.057 46.9232 332.311 46.9297 332.578C46.9427 332.839 46.9525 333.112 46.959 333.398C46.9655 333.685 46.9688 333.984 46.9688 334.297V345H46.0117V330.723H47.5352L52.5938 343.438H52.6523L57.75 330.723H59.2344V345H58.248V334.18C58.248 333.926 58.2513 333.665 58.2578 333.398C58.2643 333.132 58.2708 332.868 58.2773 332.607C58.2904 332.34 58.3034 332.083 58.3164 331.836H58.2578L52.9941 345H52.1934ZM66.7344 334.199C67.8997 334.199 68.7721 334.492 69.3516 335.078C69.931 335.664 70.2207 336.598 70.2207 337.881V345H69.459L69.2832 343.145H69.2246C68.9967 343.542 68.7201 343.896 68.3945 344.209C68.069 344.515 67.6686 344.756 67.1934 344.932C66.7246 345.107 66.1517 345.195 65.4746 345.195C64.791 345.195 64.2051 345.081 63.7168 344.854C63.235 344.626 62.8607 344.294 62.5938 343.857C62.3333 343.421 62.2031 342.891 62.2031 342.266C62.2031 341.211 62.6393 340.41 63.5117 339.863C64.3841 339.31 65.6374 338.997 67.2715 338.926L69.2441 338.828V338.057C69.2441 336.969 69.0293 336.195 68.5996 335.732C68.1699 335.27 67.5352 335.039 66.6953 335.039C66.1484 335.039 65.6211 335.111 65.1133 335.254C64.612 335.391 64.1009 335.589 63.5801 335.85L63.2676 335.029C63.7754 334.788 64.319 334.59 64.8984 334.434C65.4844 334.277 66.0964 334.199 66.7344 334.199ZM69.2344 339.6L67.3789 339.678C66.0312 339.743 65.0059 339.984 64.3027 340.4C63.5996 340.817 63.248 341.442 63.248 342.275C63.248 342.946 63.4564 343.46 63.873 343.818C64.2962 344.176 64.8822 344.355 65.6309 344.355C66.7962 344.355 67.6849 344.023 68.2969 343.359C68.9154 342.695 69.2279 341.79 69.2344 340.645V339.6ZM76.207 339.541L72.5059 334.385H73.6582L76.8027 338.867L79.9473 334.385H81.0898L77.418 339.541L81.3242 345H80.1621L76.8027 340.234L73.4629 345H72.3301L76.207 339.541ZM84.5762 334.385V345H83.5898V334.385H84.5762ZM84.0977 330.459C84.3451 330.459 84.5273 330.534 84.6445 330.684C84.7617 330.827 84.8203 331.022 84.8203 331.27C84.8203 331.517 84.7617 331.712 84.6445 331.855C84.5273 331.999 84.3451 332.07 84.0977 332.07C83.8633 332.07 83.6875 331.999 83.5703 331.855C83.4531 331.712 83.3945 331.517 83.3945 331.27C83.3945 331.022 83.4531 330.827 83.5703 330.684C83.6875 330.534 83.8633 330.459 84.0977 330.459ZM99.0781 334.18C100.1 334.18 100.908 334.476 101.5 335.068C102.092 335.661 102.389 336.595 102.389 337.871V345H101.422V337.91C101.422 336.927 101.197 336.204 100.748 335.742C100.299 335.28 99.7064 335.049 98.9707 335.049C97.9616 335.049 97.1706 335.345 96.5977 335.938C96.0312 336.523 95.748 337.448 95.748 338.711V345H94.7715V337.91C94.7715 337.253 94.6673 336.715 94.459 336.299C94.2572 335.876 93.974 335.563 93.6094 335.361C93.2448 335.153 92.8151 335.049 92.3203 335.049C91.6628 335.049 91.0931 335.186 90.6113 335.459C90.1296 335.726 89.7585 336.143 89.498 336.709C89.2376 337.269 89.1074 337.982 89.1074 338.848V345H88.1211V334.385H88.9219L89.0684 336.123H89.127C89.3027 335.778 89.5371 335.459 89.8301 335.166C90.123 334.873 90.4844 334.635 90.9141 334.453C91.3503 334.271 91.8613 334.18 92.4473 334.18C93.209 334.18 93.8535 334.352 94.3809 334.697C94.9147 335.036 95.2858 335.54 95.4941 336.211H95.5625C95.849 335.573 96.2917 335.075 96.8906 334.717C97.4961 334.359 98.2253 334.18 99.0781 334.18ZM114.049 334.385V345H113.248L113.102 343.086H113.043C112.861 343.477 112.604 343.831 112.271 344.15C111.939 344.469 111.533 344.723 111.051 344.912C110.569 345.101 110.009 345.195 109.371 345.195C108.557 345.195 107.874 345.055 107.32 344.775C106.773 344.489 106.36 344.059 106.08 343.486C105.8 342.913 105.66 342.197 105.66 341.338V334.385H106.646V341.24C106.646 342.301 106.884 343.083 107.359 343.584C107.841 344.085 108.544 344.336 109.469 344.336C110.25 344.336 110.904 344.186 111.432 343.887C111.965 343.587 112.369 343.135 112.643 342.529C112.923 341.917 113.062 341.156 113.062 340.244V334.385H114.049ZM128.57 334.18C129.592 334.18 130.4 334.476 130.992 335.068C131.585 335.661 131.881 336.595 131.881 337.871V345H130.914V337.91C130.914 336.927 130.689 336.204 130.24 335.742C129.791 335.28 129.199 335.049 128.463 335.049C127.454 335.049 126.663 335.345 126.09 335.938C125.523 336.523 125.24 337.448 125.24 338.711V345H124.264V337.91C124.264 337.253 124.16 336.715 123.951 336.299C123.749 335.876 123.466 335.563 123.102 335.361C122.737 335.153 122.307 335.049 121.812 335.049C121.155 335.049 120.585 335.186 120.104 335.459C119.622 335.726 119.251 336.143 118.99 336.709C118.73 337.269 118.6 337.982 118.6 338.848V345H117.613V334.385H118.414L118.561 336.123H118.619C118.795 335.778 119.029 335.459 119.322 335.166C119.615 334.873 119.977 334.635 120.406 334.453C120.842 334.271 121.354 334.18 121.939 334.18C122.701 334.18 123.346 334.352 123.873 334.697C124.407 335.036 124.778 335.54 124.986 336.211H125.055C125.341 335.573 125.784 335.075 126.383 334.717C126.988 334.359 127.717 334.18 128.57 334.18ZM147.125 342.217C147.125 342.848 146.965 343.389 146.646 343.838C146.334 344.281 145.875 344.619 145.27 344.854C144.664 345.081 143.919 345.195 143.033 345.195C142.298 345.195 141.64 345.13 141.061 345C140.481 344.87 139.996 344.71 139.605 344.521V343.545C140.094 343.786 140.634 343.981 141.227 344.131C141.819 344.281 142.428 344.355 143.053 344.355C144.146 344.355 144.934 344.17 145.416 343.799C145.898 343.428 146.139 342.92 146.139 342.275C146.139 341.852 146.018 341.504 145.777 341.23C145.543 340.951 145.204 340.71 144.762 340.508C144.319 340.306 143.785 340.101 143.16 339.893C142.509 339.671 141.93 339.453 141.422 339.238C140.921 339.017 140.527 338.727 140.24 338.369C139.954 338.005 139.811 337.51 139.811 336.885C139.811 336.032 140.152 335.368 140.836 334.893C141.52 334.417 142.438 334.18 143.59 334.18C144.228 334.18 144.82 334.242 145.367 334.365C145.921 334.482 146.422 334.635 146.871 334.824L146.52 335.664C146.116 335.475 145.65 335.322 145.123 335.205C144.596 335.088 144.068 335.029 143.541 335.029C142.675 335.029 141.998 335.182 141.51 335.488C141.021 335.794 140.777 336.243 140.777 336.836C140.777 337.292 140.895 337.65 141.129 337.91C141.363 338.164 141.699 338.379 142.135 338.555C142.571 338.724 143.089 338.913 143.688 339.121C144.306 339.336 144.876 339.561 145.396 339.795C145.924 340.029 146.344 340.332 146.656 340.703C146.969 341.074 147.125 341.579 147.125 342.217ZM153.512 334.199C154.677 334.199 155.549 334.492 156.129 335.078C156.708 335.664 156.998 336.598 156.998 337.881V345H156.236L156.061 343.145H156.002C155.774 343.542 155.497 343.896 155.172 344.209C154.846 344.515 154.446 344.756 153.971 344.932C153.502 345.107 152.929 345.195 152.252 345.195C151.568 345.195 150.982 345.081 150.494 344.854C150.012 344.626 149.638 344.294 149.371 343.857C149.111 343.421 148.98 342.891 148.98 342.266C148.98 341.211 149.417 340.41 150.289 339.863C151.161 339.31 152.415 338.997 154.049 338.926L156.021 338.828V338.057C156.021 336.969 155.807 336.195 155.377 335.732C154.947 335.27 154.312 335.039 153.473 335.039C152.926 335.039 152.398 335.111 151.891 335.254C151.389 335.391 150.878 335.589 150.357 335.85L150.045 335.029C150.553 334.788 151.096 334.59 151.676 334.434C152.262 334.277 152.874 334.199 153.512 334.199ZM156.012 339.6L154.156 339.678C152.809 339.743 151.783 339.984 151.08 340.4C150.377 340.817 150.025 341.442 150.025 342.275C150.025 342.946 150.234 343.46 150.65 343.818C151.074 344.176 151.66 344.355 152.408 344.355C153.574 344.355 154.462 344.023 155.074 343.359C155.693 342.695 156.005 341.79 156.012 340.645V339.6ZM164.361 335.205H161.861V345H160.875V335.205H158.902V334.619L160.875 334.365V333.193C160.875 332.412 160.986 331.764 161.207 331.25C161.435 330.729 161.777 330.342 162.232 330.088C162.695 329.827 163.277 329.697 163.98 329.697C164.345 329.697 164.674 329.727 164.967 329.785C165.26 329.837 165.533 329.906 165.787 329.99L165.562 330.82C165.335 330.742 165.081 330.677 164.801 330.625C164.527 330.573 164.257 330.547 163.99 330.547C163.242 330.547 162.698 330.755 162.359 331.172C162.027 331.582 161.861 332.253 161.861 333.184V334.385H164.361V335.205ZM170.445 334.18C171.35 334.18 172.102 334.391 172.701 334.814C173.307 335.238 173.756 335.817 174.049 336.553C174.348 337.288 174.498 338.132 174.498 339.082V339.795H166.832C166.832 341.253 167.167 342.373 167.838 343.154C168.515 343.936 169.482 344.326 170.738 344.326C171.396 344.326 171.965 344.274 172.447 344.17C172.936 344.059 173.476 343.874 174.068 343.613V344.521C173.548 344.756 173.027 344.925 172.506 345.029C171.985 345.14 171.386 345.195 170.709 345.195C169.635 345.195 168.733 344.974 168.004 344.531C167.281 344.082 166.734 343.451 166.363 342.637C165.999 341.823 165.816 340.872 165.816 339.785C165.816 338.724 165.992 337.77 166.344 336.924C166.702 336.077 167.223 335.41 167.906 334.922C168.596 334.427 169.443 334.18 170.445 334.18ZM170.436 335.029C169.42 335.029 168.596 335.368 167.965 336.045C167.34 336.715 166.972 337.686 166.861 338.955H173.473C173.473 338.18 173.362 337.497 173.141 336.904C172.919 336.312 172.584 335.853 172.135 335.527C171.692 335.195 171.126 335.029 170.436 335.029ZM180.289 344.346C180.595 344.346 180.878 344.323 181.139 344.277C181.406 344.232 181.64 344.173 181.842 344.102V344.922C181.633 344.993 181.389 345.055 181.109 345.107C180.829 345.166 180.52 345.195 180.182 345.195C179.583 345.195 179.085 345.085 178.688 344.863C178.29 344.635 177.991 344.294 177.789 343.838C177.587 343.376 177.486 342.79 177.486 342.08V335.205H175.904V334.619L177.477 334.316L177.818 331.816H178.473V334.385H181.783V335.205H178.473V342.021C178.473 342.783 178.613 343.363 178.893 343.76C179.179 344.15 179.645 344.346 180.289 344.346ZM182.369 334.385H183.414L185.992 341.123C186.148 341.52 186.285 341.888 186.402 342.227C186.526 342.559 186.633 342.865 186.725 343.145C186.816 343.418 186.891 343.669 186.949 343.896H187.008C187.105 343.597 187.236 343.213 187.398 342.744C187.561 342.269 187.747 341.742 187.955 341.162L190.504 334.385H191.559L186.715 346.992C186.48 347.604 186.223 348.122 185.943 348.545C185.663 348.975 185.335 349.297 184.957 349.512C184.579 349.733 184.124 349.844 183.59 349.844C183.349 349.844 183.131 349.824 182.936 349.785C182.74 349.753 182.551 349.707 182.369 349.648V348.799C182.538 348.851 182.711 348.893 182.887 348.926C183.069 348.965 183.268 348.984 183.482 348.984C183.854 348.984 184.173 348.906 184.439 348.75C184.713 348.6 184.957 348.366 185.172 348.047C185.387 347.728 185.589 347.321 185.777 346.826L186.5 344.941L182.369 334.385ZM207.301 339.678C207.301 340.498 207.2 341.247 206.998 341.924C206.796 342.594 206.497 343.174 206.1 343.662C205.702 344.15 205.208 344.528 204.615 344.795C204.029 345.062 203.346 345.195 202.564 345.195C201.822 345.195 201.161 345.065 200.582 344.805C200.003 344.538 199.511 344.16 199.107 343.672C198.71 343.184 198.408 342.604 198.199 341.934C197.991 341.257 197.887 340.505 197.887 339.678C197.887 338.538 198.076 337.559 198.453 336.738C198.837 335.911 199.384 335.28 200.094 334.844C200.81 334.401 201.666 334.18 202.662 334.18C203.691 334.18 204.547 334.414 205.23 334.883C205.921 335.345 206.438 335.99 206.783 336.816C207.128 337.643 207.301 338.597 207.301 339.678ZM198.902 339.678C198.902 340.609 199.036 341.423 199.303 342.119C199.57 342.816 199.973 343.359 200.514 343.75C201.061 344.141 201.751 344.336 202.584 344.336C203.437 344.336 204.137 344.141 204.684 343.75C205.23 343.359 205.634 342.812 205.895 342.109C206.155 341.406 206.285 340.596 206.285 339.678C206.285 338.786 206.161 337.992 205.914 337.295C205.667 336.598 205.276 336.051 204.742 335.654C204.208 335.251 203.512 335.049 202.652 335.049C201.422 335.049 200.488 335.459 199.85 336.279C199.218 337.1 198.902 338.232 198.902 339.678ZM214.186 335.205H211.686V345H210.699V335.205H208.727V334.619L210.699 334.365V333.193C210.699 332.412 210.81 331.764 211.031 331.25C211.259 330.729 211.601 330.342 212.057 330.088C212.519 329.827 213.102 329.697 213.805 329.697C214.169 329.697 214.498 329.727 214.791 329.785C215.084 329.837 215.357 329.906 215.611 329.99L215.387 330.82C215.159 330.742 214.905 330.677 214.625 330.625C214.352 330.573 214.081 330.547 213.814 330.547C213.066 330.547 212.522 330.755 212.184 331.172C211.852 331.582 211.686 332.253 211.686 333.184V334.385H214.186V335.205ZM219.693 334.385H220.738L223.316 341.123C223.473 341.52 223.609 341.888 223.727 342.227C223.85 342.559 223.958 342.865 224.049 343.145C224.14 343.418 224.215 343.669 224.273 343.896H224.332C224.43 343.597 224.56 343.213 224.723 342.744C224.885 342.269 225.071 341.742 225.279 341.162L227.828 334.385H228.883L224.039 346.992C223.805 347.604 223.548 348.122 223.268 348.545C222.988 348.975 222.659 349.297 222.281 349.512C221.904 349.733 221.448 349.844 220.914 349.844C220.673 349.844 220.455 349.824 220.26 349.785C220.064 349.753 219.876 349.707 219.693 349.648V348.799C219.863 348.851 220.035 348.893 220.211 348.926C220.393 348.965 220.592 348.984 220.807 348.984C221.178 348.984 221.497 348.906 221.764 348.75C222.037 348.6 222.281 348.366 222.496 348.047C222.711 347.728 222.913 347.321 223.102 346.826L223.824 344.941L219.693 334.385ZM239.43 339.678C239.43 340.498 239.329 341.247 239.127 341.924C238.925 342.594 238.626 343.174 238.229 343.662C237.831 344.15 237.337 344.528 236.744 344.795C236.158 345.062 235.475 345.195 234.693 345.195C233.951 345.195 233.29 345.065 232.711 344.805C232.132 344.538 231.64 344.16 231.236 343.672C230.839 343.184 230.536 342.604 230.328 341.934C230.12 341.257 230.016 340.505 230.016 339.678C230.016 338.538 230.204 337.559 230.582 336.738C230.966 335.911 231.513 335.28 232.223 334.844C232.939 334.401 233.795 334.18 234.791 334.18C235.82 334.18 236.676 334.414 237.359 334.883C238.049 335.345 238.567 335.99 238.912 336.816C239.257 337.643 239.43 338.597 239.43 339.678ZM231.031 339.678C231.031 340.609 231.165 341.423 231.432 342.119C231.699 342.816 232.102 343.359 232.643 343.75C233.189 344.141 233.88 344.336 234.713 344.336C235.566 344.336 236.266 344.141 236.812 343.75C237.359 343.359 237.763 342.812 238.023 342.109C238.284 341.406 238.414 340.596 238.414 339.678C238.414 338.786 238.29 337.992 238.043 337.295C237.796 336.598 237.405 336.051 236.871 335.654C236.337 335.251 235.641 335.049 234.781 335.049C233.551 335.049 232.617 335.459 231.979 336.279C231.347 337.1 231.031 338.232 231.031 339.678ZM250.611 334.385V345H249.811L249.664 343.086H249.605C249.423 343.477 249.166 343.831 248.834 344.15C248.502 344.469 248.095 344.723 247.613 344.912C247.132 345.101 246.572 345.195 245.934 345.195C245.12 345.195 244.436 345.055 243.883 344.775C243.336 344.489 242.923 344.059 242.643 343.486C242.363 342.913 242.223 342.197 242.223 341.338V334.385H243.209V341.24C243.209 342.301 243.447 343.083 243.922 343.584C244.404 344.085 245.107 344.336 246.031 344.336C246.812 344.336 247.467 344.186 247.994 343.887C248.528 343.587 248.932 343.135 249.205 342.529C249.485 341.917 249.625 341.156 249.625 340.244V334.385H250.611ZM258.404 334.199C258.684 334.199 258.948 334.215 259.195 334.248C259.443 334.281 259.674 334.326 259.889 334.385L259.732 335.293C259.518 335.234 259.299 335.192 259.078 335.166C258.857 335.133 258.619 335.117 258.365 335.117C257.864 335.117 257.415 335.212 257.018 335.4C256.627 335.589 256.295 335.859 256.021 336.211C255.748 336.562 255.54 336.986 255.396 337.48C255.253 337.975 255.182 338.529 255.182 339.141V345H254.186V334.385H255.035L255.133 336.387H255.191C255.354 335.977 255.582 335.609 255.875 335.283C256.174 334.951 256.536 334.688 256.959 334.492C257.382 334.297 257.864 334.199 258.404 334.199ZM271.119 335.205H268.619V345H267.633V335.205H265.66V334.619L267.633 334.365V333.193C267.633 332.412 267.743 331.764 267.965 331.25C268.193 330.729 268.535 330.342 268.99 330.088C269.452 329.827 270.035 329.697 270.738 329.697C271.103 329.697 271.432 329.727 271.725 329.785C272.018 329.837 272.291 329.906 272.545 329.99L272.32 330.82C272.092 330.742 271.839 330.677 271.559 330.625C271.285 330.573 271.015 330.547 270.748 330.547C269.999 330.547 269.456 330.755 269.117 331.172C268.785 331.582 268.619 332.253 268.619 333.184V334.385H271.119V335.205ZM281.432 334.385V345H280.631L280.484 343.086H280.426C280.243 343.477 279.986 343.831 279.654 344.15C279.322 344.469 278.915 344.723 278.434 344.912C277.952 345.101 277.392 345.195 276.754 345.195C275.94 345.195 275.257 345.055 274.703 344.775C274.156 344.489 273.743 344.059 273.463 343.486C273.183 342.913 273.043 342.197 273.043 341.338V334.385H274.029V341.24C274.029 342.301 274.267 343.083 274.742 343.584C275.224 344.085 275.927 344.336 276.852 344.336C277.633 344.336 278.287 344.186 278.814 343.887C279.348 343.587 279.752 343.135 280.025 342.529C280.305 341.917 280.445 341.156 280.445 340.244V334.385H281.432ZM289.674 334.18C290.865 334.18 291.78 334.492 292.418 335.117C293.056 335.742 293.375 336.722 293.375 338.057V345H292.398V338.115C292.398 337.061 292.158 336.286 291.676 335.791C291.194 335.296 290.494 335.049 289.576 335.049C288.411 335.049 287.519 335.391 286.9 336.074C286.288 336.751 285.982 337.777 285.982 339.15V345H284.996V334.385H285.797L285.943 336.318H286.002C286.191 335.921 286.448 335.563 286.773 335.244C287.105 334.919 287.512 334.661 287.994 334.473C288.476 334.277 289.036 334.18 289.674 334.18ZM300.66 345.195C299.208 345.195 298.102 344.74 297.34 343.828C296.585 342.91 296.207 341.576 296.207 339.824C296.207 337.988 296.607 336.589 297.408 335.625C298.209 334.661 299.326 334.18 300.758 334.18C301.37 334.18 301.9 334.274 302.35 334.463C302.805 334.652 303.186 334.909 303.492 335.234C303.805 335.553 304.046 335.918 304.215 336.328H304.293C304.267 335.983 304.247 335.612 304.234 335.215C304.221 334.818 304.215 334.453 304.215 334.121V329.805H305.201V345H304.4L304.273 343.057H304.215C304.039 343.447 303.795 343.805 303.482 344.131C303.176 344.456 302.792 344.717 302.33 344.912C301.868 345.101 301.311 345.195 300.66 345.195ZM300.768 344.336C302.018 344.336 302.906 343.949 303.434 343.174C303.961 342.393 304.225 341.279 304.225 339.834V339.678C304.225 338.18 303.961 337.035 303.434 336.24C302.906 335.439 302.047 335.039 300.855 335.039C299.677 335.039 298.775 335.449 298.15 336.27C297.532 337.09 297.223 338.281 297.223 339.844C297.223 341.315 297.512 342.432 298.092 343.193C298.678 343.955 299.57 344.336 300.768 344.336ZM315.367 342.217C315.367 342.848 315.208 343.389 314.889 343.838C314.576 344.281 314.117 344.619 313.512 344.854C312.906 345.081 312.161 345.195 311.275 345.195C310.54 345.195 309.882 345.13 309.303 345C308.723 344.87 308.238 344.71 307.848 344.521V343.545C308.336 343.786 308.876 343.981 309.469 344.131C310.061 344.281 310.67 344.355 311.295 344.355C312.389 344.355 313.176 344.17 313.658 343.799C314.14 343.428 314.381 342.92 314.381 342.275C314.381 341.852 314.26 341.504 314.02 341.23C313.785 340.951 313.447 340.71 313.004 340.508C312.561 340.306 312.027 340.101 311.402 339.893C310.751 339.671 310.172 339.453 309.664 339.238C309.163 339.017 308.769 338.727 308.482 338.369C308.196 338.005 308.053 337.51 308.053 336.885C308.053 336.032 308.395 335.368 309.078 334.893C309.762 334.417 310.68 334.18 311.832 334.18C312.47 334.18 313.062 334.242 313.609 334.365C314.163 334.482 314.664 334.635 315.113 334.824L314.762 335.664C314.358 335.475 313.893 335.322 313.365 335.205C312.838 335.088 312.311 335.029 311.783 335.029C310.917 335.029 310.24 335.182 309.752 335.488C309.264 335.794 309.02 336.243 309.02 336.836C309.02 337.292 309.137 337.65 309.371 337.91C309.605 338.164 309.941 338.379 310.377 338.555C310.813 338.724 311.331 338.913 311.93 339.121C312.548 339.336 313.118 339.561 313.639 339.795C314.166 340.029 314.586 340.332 314.898 340.703C315.211 341.074 315.367 341.579 315.367 342.217ZM54.2441 372L51.9883 364.871C51.9167 364.656 51.8516 364.451 51.793 364.256C51.7344 364.061 51.679 363.872 51.627 363.689C51.5749 363.507 51.526 363.331 51.4805 363.162C51.4349 362.986 51.3893 362.814 51.3438 362.645H51.2949C51.2493 362.814 51.2038 362.986 51.1582 363.162C51.1126 363.338 51.0638 363.52 51.0117 363.709C50.9596 363.898 50.9043 364.09 50.8457 364.285C50.7871 364.48 50.722 364.682 50.6504 364.891L48.3164 372H47.3008L44.2832 361.385H45.3281L47.1934 368.172C47.304 368.569 47.3984 368.924 47.4766 369.236C47.5547 369.549 47.623 369.832 47.6816 370.086C47.7402 370.34 47.7923 370.581 47.8379 370.809H47.8867C47.9258 370.646 47.9681 370.477 48.0137 370.301C48.0592 370.118 48.1081 369.923 48.1602 369.715C48.2122 369.507 48.2741 369.285 48.3457 369.051C48.4173 368.816 48.4954 368.562 48.5801 368.289L50.8555 361.385H51.832L54.0195 368.27C54.1237 368.602 54.2181 368.921 54.3027 369.227C54.3939 369.526 54.472 369.806 54.5371 370.066C54.6087 370.327 54.6673 370.571 54.7129 370.799H54.7715C54.7975 370.584 54.8366 370.35 54.8887 370.096C54.9473 369.835 55.0156 369.546 55.0938 369.227C55.1784 368.908 55.2728 368.556 55.377 368.172L57.1738 361.385H58.1699L55.2891 372H54.2441ZM61.1973 361.385V372H60.2109V361.385H61.1973ZM60.7188 357.459C60.9661 357.459 61.1484 357.534 61.2656 357.684C61.3828 357.827 61.4414 358.022 61.4414 358.27C61.4414 358.517 61.3828 358.712 61.2656 358.855C61.1484 358.999 60.9661 359.07 60.7188 359.07C60.4844 359.07 60.3086 358.999 60.1914 358.855C60.0742 358.712 60.0156 358.517 60.0156 358.27C60.0156 358.022 60.0742 357.827 60.1914 357.684C60.3086 357.534 60.4844 357.459 60.7188 357.459ZM67.6133 371.346C67.9193 371.346 68.2025 371.323 68.4629 371.277C68.7298 371.232 68.9642 371.173 69.166 371.102V371.922C68.9577 371.993 68.7135 372.055 68.4336 372.107C68.1536 372.166 67.8444 372.195 67.5059 372.195C66.9069 372.195 66.4089 372.085 66.0117 371.863C65.6146 371.635 65.3151 371.294 65.1133 370.838C64.9115 370.376 64.8105 369.79 64.8105 369.08V362.205H63.2285V361.619L64.8008 361.316L65.1426 358.816H65.7969V361.385H69.1074V362.205H65.7969V369.021C65.7969 369.783 65.9368 370.363 66.2168 370.76C66.5033 371.15 66.9688 371.346 67.6133 371.346ZM72.4277 356.805V361.766C72.4277 362.052 72.4212 362.319 72.4082 362.566C72.4017 362.814 72.3887 363.064 72.3691 363.318H72.4375C72.6133 362.915 72.8639 362.553 73.1895 362.234C73.5215 361.915 73.9284 361.661 74.4102 361.473C74.8984 361.284 75.4616 361.189 76.0996 361.189C76.9069 361.189 77.584 361.329 78.1309 361.609C78.6842 361.883 79.1042 362.303 79.3906 362.869C79.6771 363.436 79.8203 364.165 79.8203 365.057V372H78.8438V365.115C78.8438 364.061 78.6029 363.286 78.1211 362.791C77.6393 362.296 76.9395 362.049 76.0215 362.049C75.2402 362.049 74.5827 362.202 74.0488 362.508C73.515 362.807 73.1113 363.263 72.8379 363.875C72.5645 364.48 72.4277 365.239 72.4277 366.15V372H71.4414V356.805H72.4277ZM88.707 372V357.723H89.7129V372H88.707ZM98.1699 361.18C99.3613 361.18 100.276 361.492 100.914 362.117C101.552 362.742 101.871 363.722 101.871 365.057V372H100.895V365.115C100.895 364.061 100.654 363.286 100.172 362.791C99.6901 362.296 98.9902 362.049 98.0723 362.049C96.9069 362.049 96.015 362.391 95.3965 363.074C94.7845 363.751 94.4785 364.777 94.4785 366.15V372H93.4922V361.385H94.293L94.4395 363.318H94.498C94.6868 362.921 94.944 362.563 95.2695 362.244C95.6016 361.919 96.0085 361.661 96.4902 361.473C96.972 361.277 97.5319 361.18 98.1699 361.18ZM109.156 372.195C107.704 372.195 106.598 371.74 105.836 370.828C105.081 369.91 104.703 368.576 104.703 366.824C104.703 364.988 105.104 363.589 105.904 362.625C106.705 361.661 107.822 361.18 109.254 361.18C109.866 361.18 110.396 361.274 110.846 361.463C111.301 361.652 111.682 361.909 111.988 362.234C112.301 362.553 112.542 362.918 112.711 363.328H112.789C112.763 362.983 112.743 362.612 112.73 362.215C112.717 361.818 112.711 361.453 112.711 361.121V356.805H113.697V372H112.896L112.77 370.057H112.711C112.535 370.447 112.291 370.805 111.979 371.131C111.673 371.456 111.288 371.717 110.826 371.912C110.364 372.101 109.807 372.195 109.156 372.195ZM109.264 371.336C110.514 371.336 111.402 370.949 111.93 370.174C112.457 369.393 112.721 368.279 112.721 366.834V366.678C112.721 365.18 112.457 364.035 111.93 363.24C111.402 362.439 110.543 362.039 109.352 362.039C108.173 362.039 107.271 362.449 106.646 363.27C106.028 364.09 105.719 365.281 105.719 366.844C105.719 368.315 106.008 369.432 106.588 370.193C107.174 370.955 108.066 371.336 109.264 371.336ZM118.209 361.385V372H117.223V361.385H118.209ZM117.73 357.459C117.978 357.459 118.16 357.534 118.277 357.684C118.395 357.827 118.453 358.022 118.453 358.27C118.453 358.517 118.395 358.712 118.277 358.855C118.16 358.999 117.978 359.07 117.73 359.07C117.496 359.07 117.32 358.999 117.203 358.855C117.086 358.712 117.027 358.517 117.027 358.27C117.027 358.022 117.086 357.827 117.203 357.684C117.32 357.534 117.496 357.459 117.73 357.459ZM125.465 361.199C126.63 361.199 127.503 361.492 128.082 362.078C128.661 362.664 128.951 363.598 128.951 364.881V372H128.189L128.014 370.145H127.955C127.727 370.542 127.451 370.896 127.125 371.209C126.799 371.515 126.399 371.756 125.924 371.932C125.455 372.107 124.882 372.195 124.205 372.195C123.521 372.195 122.936 372.081 122.447 371.854C121.965 371.626 121.591 371.294 121.324 370.857C121.064 370.421 120.934 369.891 120.934 369.266C120.934 368.211 121.37 367.41 122.242 366.863C123.115 366.31 124.368 365.997 126.002 365.926L127.975 365.828V365.057C127.975 363.969 127.76 363.195 127.33 362.732C126.9 362.27 126.266 362.039 125.426 362.039C124.879 362.039 124.352 362.111 123.844 362.254C123.342 362.391 122.831 362.589 122.311 362.85L121.998 362.029C122.506 361.788 123.049 361.59 123.629 361.434C124.215 361.277 124.827 361.199 125.465 361.199ZM127.965 366.6L126.109 366.678C124.762 366.743 123.736 366.984 123.033 367.4C122.33 367.817 121.979 368.442 121.979 369.275C121.979 369.946 122.187 370.46 122.604 370.818C123.027 371.176 123.613 371.355 124.361 371.355C125.527 371.355 126.415 371.023 127.027 370.359C127.646 369.695 127.958 368.79 127.965 367.645V366.6ZM137.037 361.18C138.229 361.18 139.143 361.492 139.781 362.117C140.419 362.742 140.738 363.722 140.738 365.057V372H139.762V365.115C139.762 364.061 139.521 363.286 139.039 362.791C138.557 362.296 137.857 362.049 136.939 362.049C135.774 362.049 134.882 362.391 134.264 363.074C133.652 363.751 133.346 364.777 133.346 366.15V372H132.359V361.385H133.16L133.307 363.318H133.365C133.554 362.921 133.811 362.563 134.137 362.244C134.469 361.919 134.876 361.661 135.357 361.473C135.839 361.277 136.399 361.18 137.037 361.18ZM153.355 372H152.34V358.631H147.711V357.723H157.984V358.631H153.355V372ZM164.088 361.199C164.368 361.199 164.632 361.215 164.879 361.248C165.126 361.281 165.357 361.326 165.572 361.385L165.416 362.293C165.201 362.234 164.983 362.192 164.762 362.166C164.54 362.133 164.303 362.117 164.049 362.117C163.548 362.117 163.098 362.212 162.701 362.4C162.311 362.589 161.979 362.859 161.705 363.211C161.432 363.562 161.223 363.986 161.08 364.48C160.937 364.975 160.865 365.529 160.865 366.141V372H159.869V361.385H160.719L160.816 363.387H160.875C161.038 362.977 161.266 362.609 161.559 362.283C161.858 361.951 162.219 361.688 162.643 361.492C163.066 361.297 163.548 361.199 164.088 361.199ZM171.676 361.18C172.581 361.18 173.333 361.391 173.932 361.814C174.537 362.238 174.986 362.817 175.279 363.553C175.579 364.288 175.729 365.132 175.729 366.082V366.795H168.062C168.062 368.253 168.398 369.373 169.068 370.154C169.745 370.936 170.712 371.326 171.969 371.326C172.626 371.326 173.196 371.274 173.678 371.17C174.166 371.059 174.706 370.874 175.299 370.613V371.521C174.778 371.756 174.257 371.925 173.736 372.029C173.215 372.14 172.617 372.195 171.939 372.195C170.865 372.195 169.964 371.974 169.234 371.531C168.512 371.082 167.965 370.451 167.594 369.637C167.229 368.823 167.047 367.872 167.047 366.785C167.047 365.724 167.223 364.77 167.574 363.924C167.932 363.077 168.453 362.41 169.137 361.922C169.827 361.427 170.673 361.18 171.676 361.18ZM171.666 362.029C170.65 362.029 169.827 362.368 169.195 363.045C168.57 363.715 168.202 364.686 168.092 365.955H174.703C174.703 365.18 174.592 364.497 174.371 363.904C174.15 363.312 173.814 362.853 173.365 362.527C172.923 362.195 172.356 362.029 171.666 362.029ZM182.359 361.199C183.525 361.199 184.397 361.492 184.977 362.078C185.556 362.664 185.846 363.598 185.846 364.881V372H185.084L184.908 370.145H184.85C184.622 370.542 184.345 370.896 184.02 371.209C183.694 371.515 183.294 371.756 182.818 371.932C182.35 372.107 181.777 372.195 181.1 372.195C180.416 372.195 179.83 372.081 179.342 371.854C178.86 371.626 178.486 371.294 178.219 370.857C177.958 370.421 177.828 369.891 177.828 369.266C177.828 368.211 178.264 367.41 179.137 366.863C180.009 366.31 181.262 365.997 182.896 365.926L184.869 365.828V365.057C184.869 363.969 184.654 363.195 184.225 362.732C183.795 362.27 183.16 362.039 182.32 362.039C181.773 362.039 181.246 362.111 180.738 362.254C180.237 362.391 179.726 362.589 179.205 362.85L178.893 362.029C179.4 361.788 179.944 361.59 180.523 361.434C181.109 361.277 181.721 361.199 182.359 361.199ZM184.859 366.6L183.004 366.678C181.656 366.743 180.631 366.984 179.928 367.4C179.225 367.817 178.873 368.442 178.873 369.275C178.873 369.946 179.081 370.46 179.498 370.818C179.921 371.176 180.507 371.355 181.256 371.355C182.421 371.355 183.31 371.023 183.922 370.359C184.54 369.695 184.853 368.79 184.859 367.645V366.6ZM195.895 369.217C195.895 369.848 195.735 370.389 195.416 370.838C195.104 371.281 194.645 371.619 194.039 371.854C193.434 372.081 192.688 372.195 191.803 372.195C191.067 372.195 190.41 372.13 189.83 372C189.251 371.87 188.766 371.71 188.375 371.521V370.545C188.863 370.786 189.404 370.981 189.996 371.131C190.589 371.281 191.197 371.355 191.822 371.355C192.916 371.355 193.704 371.17 194.186 370.799C194.667 370.428 194.908 369.92 194.908 369.275C194.908 368.852 194.788 368.504 194.547 368.23C194.312 367.951 193.974 367.71 193.531 367.508C193.089 367.306 192.555 367.101 191.93 366.893C191.279 366.671 190.699 366.453 190.191 366.238C189.69 366.017 189.296 365.727 189.01 365.369C188.723 365.005 188.58 364.51 188.58 363.885C188.58 363.032 188.922 362.368 189.605 361.893C190.289 361.417 191.207 361.18 192.359 361.18C192.997 361.18 193.59 361.242 194.137 361.365C194.69 361.482 195.191 361.635 195.641 361.824L195.289 362.664C194.885 362.475 194.42 362.322 193.893 362.205C193.365 362.088 192.838 362.029 192.311 362.029C191.445 362.029 190.768 362.182 190.279 362.488C189.791 362.794 189.547 363.243 189.547 363.836C189.547 364.292 189.664 364.65 189.898 364.91C190.133 365.164 190.468 365.379 190.904 365.555C191.34 365.724 191.858 365.913 192.457 366.121C193.076 366.336 193.645 366.561 194.166 366.795C194.693 367.029 195.113 367.332 195.426 367.703C195.738 368.074 195.895 368.579 195.895 369.217ZM206.822 361.385V372H206.021L205.875 370.086H205.816C205.634 370.477 205.377 370.831 205.045 371.15C204.713 371.469 204.306 371.723 203.824 371.912C203.342 372.101 202.783 372.195 202.145 372.195C201.331 372.195 200.647 372.055 200.094 371.775C199.547 371.489 199.133 371.059 198.854 370.486C198.574 369.913 198.434 369.197 198.434 368.338V361.385H199.42V368.24C199.42 369.301 199.658 370.083 200.133 370.584C200.615 371.085 201.318 371.336 202.242 371.336C203.023 371.336 203.678 371.186 204.205 370.887C204.739 370.587 205.143 370.135 205.416 369.529C205.696 368.917 205.836 368.156 205.836 367.244V361.385H206.822ZM214.615 361.199C214.895 361.199 215.159 361.215 215.406 361.248C215.654 361.281 215.885 361.326 216.1 361.385L215.943 362.293C215.729 362.234 215.51 362.192 215.289 362.166C215.068 362.133 214.83 362.117 214.576 362.117C214.075 362.117 213.626 362.212 213.229 362.4C212.838 362.589 212.506 362.859 212.232 363.211C211.959 363.562 211.751 363.986 211.607 364.48C211.464 364.975 211.393 365.529 211.393 366.141V372H210.396V361.385H211.246L211.344 363.387H211.402C211.565 362.977 211.793 362.609 212.086 362.283C212.385 361.951 212.747 361.688 213.17 361.492C213.593 361.297 214.075 361.199 214.615 361.199ZM219.166 361.385V372H218.18V361.385H219.166ZM218.688 357.459C218.935 357.459 219.117 357.534 219.234 357.684C219.352 357.827 219.41 358.022 219.41 358.27C219.41 358.517 219.352 358.712 219.234 358.855C219.117 358.999 218.935 359.07 218.688 359.07C218.453 359.07 218.277 358.999 218.16 358.855C218.043 358.712 217.984 358.517 217.984 358.27C217.984 358.022 218.043 357.827 218.16 357.684C218.277 357.534 218.453 357.459 218.688 357.459ZM226.734 361.18C227.639 361.18 228.391 361.391 228.99 361.814C229.596 362.238 230.045 362.817 230.338 363.553C230.637 364.288 230.787 365.132 230.787 366.082V366.795H223.121C223.121 368.253 223.456 369.373 224.127 370.154C224.804 370.936 225.771 371.326 227.027 371.326C227.685 371.326 228.255 371.274 228.736 371.17C229.225 371.059 229.765 370.874 230.357 370.613V371.521C229.837 371.756 229.316 371.925 228.795 372.029C228.274 372.14 227.675 372.195 226.998 372.195C225.924 372.195 225.022 371.974 224.293 371.531C223.57 371.082 223.023 370.451 222.652 369.637C222.288 368.823 222.105 367.872 222.105 366.785C222.105 365.724 222.281 364.77 222.633 363.924C222.991 363.077 223.512 362.41 224.195 361.922C224.885 361.427 225.732 361.18 226.734 361.18ZM226.725 362.029C225.709 362.029 224.885 362.368 224.254 363.045C223.629 363.715 223.261 364.686 223.15 365.955H229.762C229.762 365.18 229.651 364.497 229.43 363.904C229.208 363.312 228.873 362.853 228.424 362.527C227.981 362.195 227.415 362.029 226.725 362.029ZM240.348 369.217C240.348 369.848 240.188 370.389 239.869 370.838C239.557 371.281 239.098 371.619 238.492 371.854C237.887 372.081 237.141 372.195 236.256 372.195C235.52 372.195 234.863 372.13 234.283 372C233.704 371.87 233.219 371.71 232.828 371.521V370.545C233.316 370.786 233.857 370.981 234.449 371.131C235.042 371.281 235.65 371.355 236.275 371.355C237.369 371.355 238.157 371.17 238.639 370.799C239.12 370.428 239.361 369.92 239.361 369.275C239.361 368.852 239.241 368.504 239 368.23C238.766 367.951 238.427 367.71 237.984 367.508C237.542 367.306 237.008 367.101 236.383 366.893C235.732 366.671 235.152 366.453 234.645 366.238C234.143 366.017 233.749 365.727 233.463 365.369C233.176 365.005 233.033 364.51 233.033 363.885C233.033 363.032 233.375 362.368 234.059 361.893C234.742 361.417 235.66 361.18 236.812 361.18C237.451 361.18 238.043 361.242 238.59 361.365C239.143 361.482 239.645 361.635 240.094 361.824L239.742 362.664C239.339 362.475 238.873 362.322 238.346 362.205C237.818 362.088 237.291 362.029 236.764 362.029C235.898 362.029 235.221 362.182 234.732 362.488C234.244 362.794 234 363.243 234 363.836C234 364.292 234.117 364.65 234.352 364.91C234.586 365.164 234.921 365.379 235.357 365.555C235.794 365.724 236.311 365.913 236.91 366.121C237.529 366.336 238.098 366.561 238.619 366.795C239.146 367.029 239.566 367.332 239.879 367.703C240.191 368.074 240.348 368.579 240.348 369.217Z" fill="white"/>
</g>
<g opacity="0.8" filter="url(#filter4_i_123_43)">
<path d="M55.8945 59H46.332V41.8672H55.8945V43.7305H48.4531V49.1211H55.4609V50.9609H48.4531V57.1367H55.8945V59ZM62.4219 52.4141L58.0039 46.1328H60.3828L63.6992 51.0195L67.0039 46.1328H69.3594L64.9297 52.4141L69.6055 59H67.2266L63.6992 53.8203L60.1484 59H57.793L62.4219 52.4141ZM76.332 57.5352C76.6602 57.5352 76.9922 57.5078 77.3281 57.4531C77.6719 57.3984 77.957 57.3281 78.1836 57.2422V58.8477C77.9414 58.957 77.6094 59.0469 77.1875 59.1172C76.7734 59.1953 76.3633 59.2344 75.957 59.2344C75.2695 59.2344 74.6445 59.1172 74.082 58.8828C73.5273 58.6406 73.082 58.2305 72.7461 57.6523C72.4102 57.0742 72.2422 56.2773 72.2422 55.2617V47.75H70.4258V46.7539L72.2773 45.957L73.0742 43.1797H74.3398V46.1328H78.0898V47.75H74.3398V55.2148C74.3398 55.9883 74.5195 56.5703 74.8789 56.9609C75.2461 57.3438 75.7305 57.5352 76.332 57.5352ZM85.7773 45.8984C86.8789 45.8984 87.8242 46.1406 88.6133 46.625C89.4023 47.1094 90.0078 47.7891 90.4297 48.6641C90.8516 49.5312 91.0625 50.5508 91.0625 51.7227V52.9766H82.2148C82.2461 54.4453 82.6172 55.5664 83.3281 56.3398C84.0391 57.1055 85.043 57.4883 86.3398 57.4883C87.1523 57.4883 87.875 57.4141 88.5078 57.2656C89.1406 57.1094 89.793 56.8867 90.4648 56.5977V58.3906C89.8164 58.6875 89.1719 58.9023 88.5312 59.0352C87.8906 59.168 87.1289 59.2344 86.2461 59.2344C85.0117 59.2344 83.9297 58.9844 83 58.4844C82.0781 57.9766 81.3594 57.2344 80.8438 56.2578C80.3281 55.2812 80.0703 54.082 80.0703 52.6602C80.0703 51.2695 80.3047 50.0664 80.7734 49.0508C81.2422 48.0352 81.9023 47.2578 82.7539 46.7188C83.6133 46.1719 84.6211 45.8984 85.7773 45.8984ZM85.7539 47.5742C84.7461 47.5742 83.9375 47.9062 83.3281 48.5703C82.7266 49.2266 82.3711 50.1523 82.2617 51.3477H88.9062C88.8984 50.6055 88.7812 49.9492 88.5547 49.3789C88.3281 48.8086 87.9844 48.3672 87.5234 48.0547C87.0625 47.7344 86.4727 47.5742 85.7539 47.5742ZM100.531 45.8984C102.047 45.8984 103.195 46.2734 103.977 47.0234C104.766 47.7656 105.16 48.9648 105.16 50.6211V59H103.109V50.8086C103.109 49.7539 102.871 48.9648 102.395 48.4414C101.918 47.9102 101.188 47.6445 100.203 47.6445C98.8047 47.6445 97.8242 48.043 97.2617 48.8398C96.6992 49.6367 96.418 50.7969 96.418 52.3203V59H94.3438V46.1328H96.0078L96.3125 47.9727H96.4297C96.7031 47.5195 97.0508 47.1406 97.4727 46.8359C97.8945 46.5312 98.3672 46.3008 98.8906 46.1445C99.4141 45.9805 99.9609 45.8984 100.531 45.8984ZM113.691 59.2344C112.082 59.2344 110.801 58.6797 109.848 57.5703C108.902 56.4531 108.43 54.8008 108.43 52.6133C108.43 50.4023 108.91 48.7305 109.871 47.5977C110.84 46.4648 112.125 45.8984 113.727 45.8984C114.406 45.8984 114.996 45.9883 115.496 46.168C116.004 46.3477 116.441 46.5898 116.809 46.8945C117.176 47.1914 117.48 47.5273 117.723 47.9023H117.863C117.832 47.6602 117.797 47.3281 117.758 46.9062C117.727 46.4766 117.711 46.1172 117.711 45.8281V40.7656H119.797V59H118.133L117.805 57.1836H117.711C117.477 57.5664 117.172 57.9141 116.797 58.2266C116.43 58.5312 115.992 58.7773 115.484 58.9648C114.977 59.1445 114.379 59.2344 113.691 59.2344ZM114.066 57.5117C115.41 57.5117 116.359 57.1328 116.914 56.375C117.477 55.6094 117.758 54.4688 117.758 52.9531V52.6016C117.758 51 117.492 49.7695 116.961 48.9102C116.43 48.0508 115.465 47.6211 114.066 47.6211C112.902 47.6211 112.027 48.0703 111.441 48.9688C110.863 49.8672 110.574 51.0977 110.574 52.6602C110.574 54.2148 110.863 55.4141 111.441 56.2578C112.027 57.0938 112.902 57.5117 114.066 57.5117ZM128.117 46.1328H130.355L133.156 53.5859C133.312 54 133.457 54.4023 133.59 54.793C133.723 55.1836 133.84 55.5586 133.941 55.918C134.051 56.2773 134.137 56.625 134.199 56.9609H134.27C134.379 56.5703 134.527 56.0664 134.715 55.4492C134.91 54.832 135.121 54.207 135.348 53.5742L138.008 46.1328H140.246L134.668 60.875C134.363 61.6719 134.008 62.3633 133.602 62.9492C133.195 63.5352 132.703 63.9844 132.125 64.2969C131.555 64.6172 130.871 64.7773 130.074 64.7773C129.707 64.7773 129.379 64.7539 129.09 64.707C128.809 64.668 128.566 64.6211 128.363 64.5664V62.9023C128.535 62.9414 128.742 62.9766 128.984 63.0078C129.234 63.0391 129.492 63.0547 129.758 63.0547C130.242 63.0547 130.664 62.9609 131.023 62.7734C131.383 62.5859 131.688 62.3164 131.938 61.9648C132.195 61.6133 132.418 61.1992 132.605 60.7227L133.262 59.0117L128.117 46.1328ZM153.441 52.543C153.441 53.6055 153.301 54.5508 153.02 55.3789C152.746 56.207 152.348 56.9062 151.824 57.4766C151.309 58.0469 150.684 58.4844 149.949 58.7891C149.215 59.0859 148.383 59.2344 147.453 59.2344C146.594 59.2344 145.805 59.0859 145.086 58.7891C144.367 58.4844 143.746 58.0469 143.223 57.4766C142.699 56.9062 142.293 56.207 142.004 55.3789C141.715 54.5508 141.57 53.6055 141.57 52.543C141.57 51.1367 141.809 49.9375 142.285 48.9453C142.77 47.9531 143.457 47.1992 144.348 46.6836C145.238 46.1602 146.301 45.8984 147.535 45.8984C148.715 45.8984 149.746 46.1602 150.629 46.6836C151.512 47.207 152.199 47.9648 152.691 48.957C153.191 49.9492 153.441 51.1445 153.441 52.543ZM143.727 52.543C143.727 53.5586 143.859 54.4414 144.125 55.1914C144.391 55.9336 144.801 56.5078 145.355 56.9141C145.91 57.3125 146.625 57.5117 147.5 57.5117C148.375 57.5117 149.09 57.3125 149.645 56.9141C150.207 56.5078 150.621 55.9336 150.887 55.1914C151.152 54.4414 151.285 53.5586 151.285 52.543C151.285 51.5352 151.152 50.6641 150.887 49.9297C150.621 49.1953 150.211 48.6328 149.656 48.2422C149.102 47.8438 148.379 47.6445 147.488 47.6445C146.191 47.6445 145.238 48.0781 144.629 48.9453C144.027 49.8047 143.727 51.0039 143.727 52.543ZM167.504 46.1328V59H165.816L165.512 57.207H165.406C165.141 57.6523 164.797 58.0273 164.375 58.332C163.953 58.6289 163.477 58.8516 162.945 59C162.422 59.1562 161.863 59.2344 161.27 59.2344C160.262 59.2344 159.414 59.0703 158.727 58.7422C158.039 58.4141 157.52 57.9062 157.168 57.2188C156.816 56.5312 156.641 55.6445 156.641 54.5586V46.1328H158.75V54.3594C158.75 55.4141 158.984 56.2031 159.453 56.7266C159.922 57.25 160.645 57.5117 161.621 57.5117C162.551 57.5117 163.293 57.3359 163.848 56.9844C164.402 56.625 164.801 56.0977 165.043 55.4023C165.285 54.707 165.406 53.8555 165.406 52.8477V46.1328H167.504ZM177.547 45.8984C177.797 45.8984 178.059 45.9141 178.332 45.9453C178.613 45.9688 178.863 46.0039 179.082 46.0508L178.836 47.9844C178.633 47.9297 178.402 47.8867 178.145 47.8555C177.887 47.8242 177.648 47.8086 177.43 47.8086C176.922 47.8086 176.438 47.9102 175.977 48.1133C175.523 48.3086 175.125 48.5977 174.781 48.9805C174.438 49.3555 174.168 49.8086 173.973 50.3398C173.777 50.8711 173.68 51.4688 173.68 52.1328V59H171.594V46.1328H173.293L173.539 48.4883H173.621C173.887 48.0117 174.207 47.5781 174.582 47.1875C174.957 46.7969 175.391 46.4844 175.883 46.25C176.383 46.0156 176.938 45.8984 177.547 45.8984ZM193.695 45.8984C193.945 45.8984 194.207 45.9141 194.48 45.9453C194.762 45.9688 195.012 46.0039 195.23 46.0508L194.984 47.9844C194.781 47.9297 194.551 47.8867 194.293 47.8555C194.035 47.8242 193.797 47.8086 193.578 47.8086C193.07 47.8086 192.586 47.9102 192.125 48.1133C191.672 48.3086 191.273 48.5977 190.93 48.9805C190.586 49.3555 190.316 49.8086 190.121 50.3398C189.926 50.8711 189.828 51.4688 189.828 52.1328V59H187.742V46.1328H189.441L189.688 48.4883H189.77C190.035 48.0117 190.355 47.5781 190.73 47.1875C191.105 46.7969 191.539 46.4844 192.031 46.25C192.531 46.0156 193.086 45.8984 193.695 45.8984ZM208.379 46.1328V59H206.691L206.387 57.207H206.281C206.016 57.6523 205.672 58.0273 205.25 58.332C204.828 58.6289 204.352 58.8516 203.82 59C203.297 59.1562 202.738 59.2344 202.145 59.2344C201.137 59.2344 200.289 59.0703 199.602 58.7422C198.914 58.4141 198.395 57.9062 198.043 57.2188C197.691 56.5312 197.516 55.6445 197.516 54.5586V46.1328H199.625V54.3594C199.625 55.4141 199.859 56.2031 200.328 56.7266C200.797 57.25 201.52 57.5117 202.496 57.5117C203.426 57.5117 204.168 57.3359 204.723 56.9844C205.277 56.625 205.676 56.0977 205.918 55.4023C206.16 54.707 206.281 53.8555 206.281 52.8477V46.1328H208.379ZM218.656 45.8984C220.172 45.8984 221.32 46.2734 222.102 47.0234C222.891 47.7656 223.285 48.9648 223.285 50.6211V59H221.234V50.8086C221.234 49.7539 220.996 48.9648 220.52 48.4414C220.043 47.9102 219.312 47.6445 218.328 47.6445C216.93 47.6445 215.949 48.043 215.387 48.8398C214.824 49.6367 214.543 50.7969 214.543 52.3203V59H212.469V46.1328H214.133L214.438 47.9727H214.555C214.828 47.5195 215.176 47.1406 215.598 46.8359C216.02 46.5312 216.492 46.3008 217.016 46.1445C217.539 45.9805 218.086 45.8984 218.656 45.8984ZM237.758 58.9766L235.578 51.7461C235.477 51.4258 235.379 51.1016 235.285 50.7734C235.199 50.4453 235.113 50.125 235.027 49.8125C234.949 49.5 234.879 49.2109 234.816 48.9453C234.754 48.6719 234.703 48.4453 234.664 48.2656H234.582C234.543 48.4453 234.492 48.6719 234.43 48.9453C234.375 49.2109 234.309 49.5039 234.23 49.8242C234.152 50.1367 234.066 50.4609 233.973 50.7969C233.887 51.1328 233.789 51.4609 233.68 51.7812L231.406 58.9766H229.074L225.523 46.1094H227.668L229.484 53.0938C229.609 53.5625 229.727 54.0312 229.836 54.5C229.953 54.9609 230.051 55.3984 230.129 55.8125C230.207 56.2188 230.266 56.5703 230.305 56.8672H230.398C230.445 56.6719 230.496 56.4336 230.551 56.1523C230.613 55.8711 230.68 55.5742 230.75 55.2617C230.828 54.9414 230.906 54.6289 230.984 54.3242C231.07 54.0117 231.156 53.7227 231.242 53.457L233.539 46.1094H235.789L238.016 53.4453C238.125 53.8125 238.234 54.2031 238.344 54.6172C238.461 55.0312 238.562 55.4336 238.648 55.8242C238.742 56.207 238.809 56.5469 238.848 56.8438H238.941C238.973 56.5781 239.031 56.2461 239.117 55.8477C239.203 55.4492 239.301 55.0117 239.41 54.5352C239.527 54.0508 239.645 53.5703 239.762 53.0938L241.613 46.1094H243.723L240.148 58.9766H237.758ZM250.906 45.9219C252.453 45.9219 253.605 46.2695 254.363 46.9648C255.121 47.6523 255.5 48.7539 255.5 50.2695V59H254L253.59 57.1133H253.496C253.137 57.582 252.762 57.9727 252.371 58.2852C251.98 58.5977 251.527 58.8359 251.012 59C250.504 59.1562 249.883 59.2344 249.148 59.2344C248.367 59.2344 247.672 59.0977 247.062 58.8242C246.453 58.5508 245.973 58.1328 245.621 57.5703C245.277 57.0078 245.105 56.2969 245.105 55.4375C245.105 54.1484 245.613 53.1641 246.629 52.4844C247.645 51.7969 249.184 51.4219 251.246 51.3594L253.473 51.2656V50.4922C253.473 49.4219 253.238 48.668 252.77 48.2305C252.301 47.793 251.641 47.5742 250.789 47.5742C250.125 47.5742 249.488 47.6719 248.879 47.8672C248.27 48.0625 247.688 48.293 247.133 48.5586L246.488 47.0117C247.074 46.707 247.746 46.4492 248.504 46.2383C249.27 46.0273 250.07 45.9219 250.906 45.9219ZM253.449 52.6953L251.539 52.7773C249.977 52.832 248.875 53.0898 248.234 53.5508C247.594 54.0039 247.273 54.6406 247.273 55.4609C247.273 56.1797 247.488 56.7109 247.918 57.0547C248.355 57.3984 248.934 57.5703 249.652 57.5703C250.762 57.5703 251.672 57.2617 252.383 56.6445C253.094 56.0273 253.449 55.1016 253.449 53.8672V52.6953ZM257.469 46.1328H259.707L262.508 53.5859C262.664 54 262.809 54.4023 262.941 54.793C263.074 55.1836 263.191 55.5586 263.293 55.918C263.402 56.2773 263.488 56.625 263.551 56.9609H263.621C263.73 56.5703 263.879 56.0664 264.066 55.4492C264.262 54.832 264.473 54.207 264.699 53.5742L267.359 46.1328H269.598L264.02 60.875C263.715 61.6719 263.359 62.3633 262.953 62.9492C262.547 63.5352 262.055 63.9844 261.477 64.2969C260.906 64.6172 260.223 64.7773 259.426 64.7773C259.059 64.7773 258.73 64.7539 258.441 64.707C258.16 64.668 257.918 64.6211 257.715 64.5664V62.9023C257.887 62.9414 258.094 62.9766 258.336 63.0078C258.586 63.0391 258.844 63.0547 259.109 63.0547C259.594 63.0547 260.016 62.9609 260.375 62.7734C260.734 62.5859 261.039 62.3164 261.289 61.9648C261.547 61.6133 261.77 61.1992 261.957 60.7227L262.613 59.0117L257.469 46.1328ZM288.359 58.9766L286.18 51.7461C286.078 51.4258 285.98 51.1016 285.887 50.7734C285.801 50.4453 285.715 50.125 285.629 49.8125C285.551 49.5 285.48 49.2109 285.418 48.9453C285.355 48.6719 285.305 48.4453 285.266 48.2656H285.184C285.145 48.4453 285.094 48.6719 285.031 48.9453C284.977 49.2109 284.91 49.5039 284.832 49.8242C284.754 50.1367 284.668 50.4609 284.574 50.7969C284.488 51.1328 284.391 51.4609 284.281 51.7812L282.008 58.9766H279.676L276.125 46.1094H278.27L280.086 53.0938C280.211 53.5625 280.328 54.0312 280.438 54.5C280.555 54.9609 280.652 55.3984 280.73 55.8125C280.809 56.2188 280.867 56.5703 280.906 56.8672H281C281.047 56.6719 281.098 56.4336 281.152 56.1523C281.215 55.8711 281.281 55.5742 281.352 55.2617C281.43 54.9414 281.508 54.6289 281.586 54.3242C281.672 54.0117 281.758 53.7227 281.844 53.457L284.141 46.1094H286.391L288.617 53.4453C288.727 53.8125 288.836 54.2031 288.945 54.6172C289.062 55.0312 289.164 55.4336 289.25 55.8242C289.344 56.207 289.41 56.5469 289.449 56.8438H289.543C289.574 56.5781 289.633 56.2461 289.719 55.8477C289.805 55.4492 289.902 55.0117 290.012 54.5352C290.129 54.0508 290.246 53.5703 290.363 53.0938L292.215 46.1094H294.324L290.75 58.9766H288.359ZM298.73 46.1328V59H296.656V46.1328H298.73ZM297.711 41.3047C298.055 41.3047 298.348 41.4102 298.59 41.6211C298.832 41.832 298.953 42.1641 298.953 42.6172C298.953 43.0703 298.832 43.4062 298.59 43.625C298.348 43.8359 298.055 43.9414 297.711 43.9414C297.359 43.9414 297.066 43.8359 296.832 43.625C296.598 43.4062 296.48 43.0703 296.48 42.6172C296.48 42.1641 296.598 41.832 296.832 41.6211C297.066 41.4102 297.359 41.3047 297.711 41.3047ZM307.074 57.5352C307.402 57.5352 307.734 57.5078 308.07 57.4531C308.414 57.3984 308.699 57.3281 308.926 57.2422V58.8477C308.684 58.957 308.352 59.0469 307.93 59.1172C307.516 59.1953 307.105 59.2344 306.699 59.2344C306.012 59.2344 305.387 59.1172 304.824 58.8828C304.27 58.6406 303.824 58.2305 303.488 57.6523C303.152 57.0742 302.984 56.2773 302.984 55.2617V47.75H301.168V46.7539L303.02 45.957L303.816 43.1797H305.082V46.1328H308.832V47.75H305.082V55.2148C305.082 55.9883 305.262 56.5703 305.621 56.9609C305.988 57.3438 306.473 57.5352 307.074 57.5352ZM313.613 40.7656V46.0742C313.613 46.4102 313.605 46.75 313.59 47.0938C313.574 47.4297 313.547 47.7305 313.508 47.9961H313.637C313.902 47.543 314.238 47.1641 314.645 46.8594C315.059 46.5469 315.523 46.3125 316.039 46.1562C316.562 46 317.113 45.9219 317.691 45.9219C318.715 45.9219 319.574 46.0859 320.27 46.4141C320.965 46.7422 321.484 47.25 321.828 47.9375C322.18 48.625 322.355 49.5195 322.355 50.6211V59H320.305V50.8086C320.305 49.7539 320.066 48.9648 319.59 48.4414C319.113 47.9102 318.383 47.6445 317.398 47.6445C316.461 47.6445 315.715 47.8242 315.16 48.1836C314.613 48.543 314.219 49.0742 313.977 49.7773C313.734 50.4727 313.613 51.3242 313.613 52.332V59H311.539V40.7656H313.613ZM53.1875 78.6523C53.3672 78.6523 53.5742 78.6641 53.8086 78.6875C54.0508 78.7031 54.2461 78.7266 54.3945 78.7578L54.125 82.1094C54.0078 82.0703 53.8398 82.043 53.6211 82.0273C53.4102 82.0039 53.2266 81.9922 53.0703 81.9922C52.6094 81.9922 52.1602 82.0508 51.7227 82.168C51.293 82.2852 50.9062 82.4766 50.5625 82.7422C50.2188 83 49.9453 83.3438 49.7422 83.7734C49.5469 84.1953 49.4492 84.7148 49.4492 85.332V92H45.875V78.8984H48.582L49.1094 81.1016H49.2852C49.543 80.6562 49.8633 80.25 50.2461 79.8828C50.6367 79.5078 51.0781 79.2109 51.5703 78.9922C52.0703 78.7656 52.6094 78.6523 53.1875 78.6523ZM62.1758 78.6523C63.3867 78.6523 64.4297 78.8867 65.3047 79.3555C66.1797 79.8164 66.8555 80.4883 67.332 81.3711C67.8086 82.2539 68.0469 83.332 68.0469 84.6055V86.3398H59.5977C59.6367 87.3477 59.9375 88.1406 60.5 88.7188C61.0703 89.2891 61.8594 89.5742 62.8672 89.5742C63.7031 89.5742 64.4688 89.4883 65.1641 89.3164C65.8594 89.1445 66.5742 88.8867 67.3086 88.543V91.3086C66.6602 91.6289 65.9805 91.8633 65.2695 92.0117C64.5664 92.1602 63.7109 92.2344 62.7031 92.2344C61.3906 92.2344 60.2266 91.9922 59.2109 91.5078C58.2031 91.0234 57.4102 90.2852 56.832 89.293C56.2617 88.3008 55.9766 87.0508 55.9766 85.543C55.9766 84.0117 56.2344 82.7383 56.75 81.7227C57.2734 80.6992 58 79.9336 58.9297 79.4258C59.8594 78.9102 60.9414 78.6523 62.1758 78.6523ZM62.1992 81.1953C61.5039 81.1953 60.9258 81.418 60.4648 81.8633C60.0117 82.3086 59.75 83.0078 59.6797 83.9609H64.6953C64.6875 83.4297 64.5898 82.957 64.4023 82.543C64.2227 82.1289 63.9492 81.8008 63.582 81.5586C63.2227 81.3164 62.7617 81.1953 62.1992 81.1953ZM76.2734 92.2344C74.9766 92.2344 73.8711 92 72.957 91.5312C72.043 91.0547 71.3477 90.3203 70.8711 89.3281C70.3945 88.3359 70.1562 87.0664 70.1562 85.5195C70.1562 83.918 70.4258 82.6133 70.9648 81.6055C71.5117 80.5898 72.2656 79.8438 73.2266 79.3672C74.1953 78.8906 75.3164 78.6523 76.5898 78.6523C77.4961 78.6523 78.2773 78.7422 78.9336 78.9219C79.5977 79.0938 80.1758 79.3008 80.668 79.543L79.6133 82.3086C79.0508 82.082 78.5273 81.8984 78.043 81.7578C77.5586 81.6094 77.0742 81.5352 76.5898 81.5352C75.9648 81.5352 75.4453 81.6836 75.0312 81.9805C74.6172 82.2695 74.3086 82.707 74.1055 83.293C73.9023 83.8789 73.8008 84.6133 73.8008 85.4961C73.8008 86.3633 73.9102 87.082 74.1289 87.6523C74.3477 88.2227 74.6641 88.6484 75.0781 88.9297C75.4922 89.2031 75.9961 89.3398 76.5898 89.3398C77.332 89.3398 77.9922 89.2422 78.5703 89.0469C79.1484 88.8438 79.7109 88.5625 80.2578 88.2031V91.2617C79.7109 91.6055 79.1367 91.8516 78.5352 92C77.9414 92.1562 77.1875 92.2344 76.2734 92.2344ZM88.8242 89.3867C89.2148 89.3867 89.5938 89.3477 89.9609 89.2695C90.3359 89.1914 90.707 89.0938 91.0742 88.9766V91.6367C90.6914 91.8086 90.2148 91.9492 89.6445 92.0586C89.082 92.1758 88.4648 92.2344 87.793 92.2344C87.0117 92.2344 86.3086 92.1094 85.6836 91.8594C85.0664 91.6016 84.5781 91.1602 84.2188 90.5352C83.8672 89.9023 83.6914 89.0234 83.6914 87.8984V81.582H81.9805V80.0703L83.9492 78.875L84.9805 76.1094H87.2656V78.8984H90.9336V81.582H87.2656V87.8984C87.2656 88.3984 87.4062 88.7734 87.6875 89.0234C87.9766 89.2656 88.3555 89.3867 88.8242 89.3867ZM93.2305 90.3242C93.2305 89.5898 93.4297 89.0742 93.8281 88.7773C94.2344 88.4805 94.7227 88.332 95.293 88.332C95.8477 88.332 96.3242 88.4805 96.7227 88.7773C97.1289 89.0742 97.332 89.5898 97.332 90.3242C97.332 91.0273 97.1289 91.5352 96.7227 91.8477C96.3242 92.1602 95.8477 92.3164 95.293 92.3164C94.7227 92.3164 94.2344 92.1602 93.8281 91.8477C93.4297 91.5352 93.2305 91.0273 93.2305 90.3242ZM112.332 89.3867C112.723 89.3867 113.102 89.3477 113.469 89.2695C113.844 89.1914 114.215 89.0938 114.582 88.9766V91.6367C114.199 91.8086 113.723 91.9492 113.152 92.0586C112.59 92.1758 111.973 92.2344 111.301 92.2344C110.52 92.2344 109.816 92.1094 109.191 91.8594C108.574 91.6016 108.086 91.1602 107.727 90.5352C107.375 89.9023 107.199 89.0234 107.199 87.8984V81.582H105.488V80.0703L107.457 78.875L108.488 76.1094H110.773V78.8984H114.441V81.582H110.773V87.8984C110.773 88.3984 110.914 88.7734 111.195 89.0234C111.484 89.2656 111.863 89.3867 112.332 89.3867ZM124.555 78.6523C124.734 78.6523 124.941 78.6641 125.176 78.6875C125.418 78.7031 125.613 78.7266 125.762 78.7578L125.492 82.1094C125.375 82.0703 125.207 82.043 124.988 82.0273C124.777 82.0039 124.594 81.9922 124.438 81.9922C123.977 81.9922 123.527 82.0508 123.09 82.168C122.66 82.2852 122.273 82.4766 121.93 82.7422C121.586 83 121.312 83.3438 121.109 83.7734C120.914 84.1953 120.816 84.7148 120.816 85.332V92H117.242V78.8984H119.949L120.477 81.1016H120.652C120.91 80.6562 121.23 80.25 121.613 79.8828C122.004 79.5078 122.445 79.2109 122.938 78.9922C123.438 78.7656 123.977 78.6523 124.555 78.6523ZM133.543 78.6523C134.754 78.6523 135.797 78.8867 136.672 79.3555C137.547 79.8164 138.223 80.4883 138.699 81.3711C139.176 82.2539 139.414 83.332 139.414 84.6055V86.3398H130.965C131.004 87.3477 131.305 88.1406 131.867 88.7188C132.438 89.2891 133.227 89.5742 134.234 89.5742C135.07 89.5742 135.836 89.4883 136.531 89.3164C137.227 89.1445 137.941 88.8867 138.676 88.543V91.3086C138.027 91.6289 137.348 91.8633 136.637 92.0117C135.934 92.1602 135.078 92.2344 134.07 92.2344C132.758 92.2344 131.594 91.9922 130.578 91.5078C129.57 91.0234 128.777 90.2852 128.199 89.293C127.629 88.3008 127.344 87.0508 127.344 85.543C127.344 84.0117 127.602 82.7383 128.117 81.7227C128.641 80.6992 129.367 79.9336 130.297 79.4258C131.227 78.9102 132.309 78.6523 133.543 78.6523ZM133.566 81.1953C132.871 81.1953 132.293 81.418 131.832 81.8633C131.379 82.3086 131.117 83.0078 131.047 83.9609H136.062C136.055 83.4297 135.957 82.957 135.77 82.543C135.59 82.1289 135.316 81.8008 134.949 81.5586C134.59 81.3164 134.129 81.1953 133.566 81.1953ZM147.688 78.6289C149.445 78.6289 150.793 79.0117 151.73 79.7773C152.668 80.543 153.137 81.707 153.137 83.2695V92H150.641L149.949 90.2188H149.855C149.48 90.6875 149.098 91.0703 148.707 91.3672C148.316 91.6641 147.867 91.8828 147.359 92.0234C146.852 92.1641 146.234 92.2344 145.508 92.2344C144.734 92.2344 144.039 92.0859 143.422 91.7891C142.812 91.4922 142.332 91.0391 141.98 90.4297C141.629 89.8125 141.453 89.0312 141.453 88.0859C141.453 86.6953 141.941 85.6719 142.918 85.0156C143.895 84.3516 145.359 83.9844 147.312 83.9141L149.586 83.8438V83.2695C149.586 82.582 149.406 82.0781 149.047 81.7578C148.688 81.4375 148.188 81.2773 147.547 81.2773C146.914 81.2773 146.293 81.3672 145.684 81.5469C145.074 81.7266 144.465 81.9531 143.855 82.2266L142.672 79.8125C143.367 79.4453 144.145 79.1562 145.004 78.9453C145.871 78.7344 146.766 78.6289 147.688 78.6289ZM149.586 85.9297L148.203 85.9766C147.047 86.0078 146.242 86.2148 145.789 86.5977C145.344 86.9805 145.121 87.4844 145.121 88.1094C145.121 88.6562 145.281 89.0469 145.602 89.2812C145.922 89.5078 146.34 89.6211 146.855 89.6211C147.621 89.6211 148.266 89.3945 148.789 88.9414C149.32 88.4883 149.586 87.8438 149.586 87.0078V85.9297ZM165.969 88.1094C165.969 89 165.758 89.7539 165.336 90.3711C164.922 90.9805 164.301 91.4453 163.473 91.7656C162.645 92.0781 161.613 92.2344 160.379 92.2344C159.465 92.2344 158.68 92.1758 158.023 92.0586C157.375 91.9414 156.719 91.7461 156.055 91.4727V88.5195C156.766 88.8398 157.527 89.1055 158.34 89.3164C159.16 89.5195 159.879 89.6211 160.496 89.6211C161.191 89.6211 161.688 89.5195 161.984 89.3164C162.289 89.1055 162.441 88.832 162.441 88.4961C162.441 88.2773 162.379 88.082 162.254 87.9102C162.137 87.7305 161.879 87.5312 161.48 87.3125C161.082 87.0859 160.457 86.793 159.605 86.4336C158.785 86.0898 158.109 85.7422 157.578 85.3906C157.055 85.0391 156.664 84.625 156.406 84.1484C156.156 83.6641 156.031 83.0508 156.031 82.3086C156.031 81.0977 156.5 80.1875 157.438 79.5781C158.383 78.9609 159.645 78.6523 161.223 78.6523C162.035 78.6523 162.809 78.7344 163.543 78.8984C164.285 79.0625 165.047 79.3242 165.828 79.6836L164.75 82.2617C164.102 81.9805 163.488 81.75 162.91 81.5703C162.34 81.3906 161.758 81.3008 161.164 81.3008C160.641 81.3008 160.246 81.3711 159.98 81.5117C159.715 81.6523 159.582 81.8672 159.582 82.1562C159.582 82.3672 159.648 82.5547 159.781 82.7188C159.922 82.8828 160.188 83.0664 160.578 83.2695C160.977 83.4648 161.559 83.7188 162.324 84.0312C163.066 84.3359 163.711 84.6562 164.258 84.9922C164.805 85.3203 165.227 85.7305 165.523 86.2227C165.82 86.707 165.969 87.3359 165.969 88.1094ZM180.781 78.8984V92H178.039L177.559 90.3242H177.371C177.09 90.7695 176.738 91.1328 176.316 91.4141C175.895 91.6953 175.43 91.9023 174.922 92.0352C174.414 92.168 173.887 92.2344 173.34 92.2344C172.402 92.2344 171.586 92.0703 170.891 91.7422C170.195 91.4062 169.652 90.8867 169.262 90.1836C168.879 89.4805 168.688 88.5664 168.688 87.4414V78.8984H172.262V86.5508C172.262 87.4883 172.43 88.1953 172.766 88.6719C173.102 89.1484 173.637 89.3867 174.371 89.3867C175.098 89.3867 175.668 89.2227 176.082 88.8945C176.496 88.5586 176.785 88.0703 176.949 87.4297C177.121 86.7812 177.207 85.9922 177.207 85.0625V78.8984H180.781ZM191.844 78.6523C192.023 78.6523 192.23 78.6641 192.465 78.6875C192.707 78.7031 192.902 78.7266 193.051 78.7578L192.781 82.1094C192.664 82.0703 192.496 82.043 192.277 82.0273C192.066 82.0039 191.883 81.9922 191.727 81.9922C191.266 81.9922 190.816 82.0508 190.379 82.168C189.949 82.2852 189.562 82.4766 189.219 82.7422C188.875 83 188.602 83.3438 188.398 83.7734C188.203 84.1953 188.105 84.7148 188.105 85.332V92H184.531V78.8984H187.238L187.766 81.1016H187.941C188.199 80.6562 188.52 80.25 188.902 79.8828C189.293 79.5078 189.734 79.2109 190.227 78.9922C190.727 78.7656 191.266 78.6523 191.844 78.6523ZM193.555 78.8984H197.469L199.941 86.2695C200.02 86.5039 200.086 86.7422 200.141 86.9844C200.195 87.2266 200.242 87.4766 200.281 87.7344C200.32 87.9922 200.352 88.2617 200.375 88.543H200.445C200.492 88.1211 200.555 87.7266 200.633 87.3594C200.719 86.9922 200.824 86.6289 200.949 86.2695L203.375 78.8984H207.207L201.664 93.6758C201.328 94.582 200.891 95.3359 200.352 95.9375C199.812 96.5469 199.191 97.0039 198.488 97.3086C197.793 97.6133 197.027 97.7656 196.191 97.7656C195.785 97.7656 195.434 97.7422 195.137 97.6953C194.84 97.6562 194.586 97.6133 194.375 97.5664V94.7305C194.539 94.7695 194.746 94.8047 194.996 94.8359C195.246 94.8672 195.508 94.8828 195.781 94.8828C196.281 94.8828 196.711 94.7773 197.07 94.5664C197.43 94.3555 197.73 94.0703 197.973 93.7109C198.215 93.3594 198.406 92.9727 198.547 92.5508L198.758 91.9062L193.555 78.8984Z" fill="white"/>
</g>
</g>
</g>
<rect x="0.5" y="0.5" width="651" height="408" rx="32.5" stroke="url(#paint7_linear_123_43)" stroke-opacity="0.4"/>
<defs>
<filter id="filter0_d_123_43" x="-6" y="-2" width="664" height="421" filterUnits="userSpaceOnUse" color-interpolation-filters="sRGB">
<feFlood flood-opacity="0" result="BackgroundImageFix"/>
<feColorMatrix in="SourceAlpha" type="matrix" values="0 0 0 0 0 0 0 0 0 0 0 0 0 0 0 0 0 0 127 0" result="hardAlpha"/>
<feOffset dy="4"/>
<feGaussianBlur stdDeviation="2"/>
<feComposite in2="hardAlpha" operator="out"/>
<feColorMatrix type="matrix" values="0 0 0 0 0 0 0 0 0 0 0 0 0 0 0 0 0 0 0.25 0"/>
<feBlend mode="normal" in2="BackgroundImageFix" result="effect1_dropShadow_123_43"/>
<feBlend mode="normal" in="SourceGraphic" in2="effect1_dropShadow_123_43" result="shape"/>
</filter>
<filter id="filter1_d_123_43" x="-6" y="-2" width="664" height="421" filterUnits="userSpaceOnUse" color-interpolation-filters="sRGB">
<feFlood flood-opacity="0" result="BackgroundImageFix"/>
<feColorMatrix in="SourceAlpha" type="matrix" values="0 0 0 0 0 0 0 0 0 0 0 0 0 0 0 0 0 0 127 0" result="hardAlpha"/>
<feOffset dy="4"/>
<feGaussianBlur stdDeviation="2"/>
<feComposite in2="hardAlpha" operator="out"/>
<feColorMatrix type="matrix" values="0 0 0 0 0 0 0 0 0 0 0 0 0 0 0 0 0 0 0.25 0"/>
<feBlend mode="normal" in2="BackgroundImageFix" result="effect1_dropShadow_123_43"/>
<feBlend mode="normal" in="SourceGraphic" in2="effect1_dropShadow_123_43" result="shape"/>
</filter>
<filter id="filter2_i_123_43" x="0.75" y="21.0767" width="650.5" height="391.173" filterUnits="userSpaceOnUse" color-interpolation-filters="sRGB">
<feFlood flood-opacity="0" result="BackgroundImageFix"/>
<feBlend mode="normal" in="SourceGraphic" in2="BackgroundImageFix" result="shape"/>
<feColorMatrix in="SourceAlpha" type="matrix" values="0 0 0 0 0 0 0 0 0 0 0 0 0 0 0 0 0 0 127 0" result="hardAlpha"/>
<feOffset dy="4"/>
<feGaussianBlur stdDeviation="2"/>
<feComposite in2="hardAlpha" operator="arithmetic" k2="-1" k3="1"/>
<feColorMatrix type="matrix" values="0 0 0 0 0 0 0 0 0 0 0 0 0 0 0 0 0 0 0.25 0"/>
<feBlend mode="normal" in2="shape" result="effect1_innerShadow_123_43"/>
</filter>
<filter id="filter3_i_123_43" x="44.2832" y="329.697" width="271.084" height="46.498" filterUnits="userSpaceOnUse" color-interpolation-filters="sRGB">
<feFlood flood-opacity="0" result="BackgroundImageFix"/>
<feBlend mode="normal" in="SourceGraphic" in2="BackgroundImageFix" result="shape"/>
<feColorMatrix in="SourceAlpha" type="matrix" values="0 0 0 0 0 0 0 0 0 0 0 0 0 0 0 0 0 0 127 0" result="hardAlpha"/>
<feOffset dy="4"/>
<feGaussianBlur stdDeviation="2"/>
<feComposite in2="hardAlpha" operator="arithmetic" k2="-1" k3="1"/>
<feColorMatrix type="matrix" values="0 0 0 0 0 0 0 0 0 0 0 0 0 0 0 0 0 0 0.25 0"/>
<feBlend mode="normal" in2="shape" result="effect1_innerShadow_123_43"/>
</filter>
<filter id="filter4_i_123_43" x="45.875" y="40.7656" width="276.48" height="61" filterUnits="userSpaceOnUse" color-interpolation-filters="sRGB">
<feFlood flood-opacity="0" result="BackgroundImageFix"/>
<feBlend mode="normal" in="SourceGraphic" in2="BackgroundImageFix" result="shape"/>
<feColorMatrix in="SourceAlpha" type="matrix" values="0 0 0 0 0 0 0 0 0 0 0 0 0 0 0 0 0 0 127 0" result="hardAlpha"/>
<feOffset dy="4"/>
<feGaussianBlur stdDeviation="2"/>
<feComposite in2="hardAlpha" operator="arithmetic" k2="-1" k3="1"/>
<feColorMatrix type="matrix" values="0 0 0 0 0 0 0 0 0 0 0 0 0 0 0 0 0 0 0.25 0"/>
<feBlend mode="normal" in2="shape" result="effect1_innerShadow_123_43"/>
</filter>
<linearGradient id="paint0_linear_123_43" x1="96.5" y1="11" x2="616" y2="408" gradientUnits="userSpaceOnUse">
<stop stop-color="#F1F1F5"/>
<stop offset="1" stop-color="#F1F1F5" stop-opacity="0"/>
</linearGradient>
<linearGradient id="paint1_linear_123_43" x1="651" y1="133" x2="0.999987" y2="134.5" gradientUnits="userSpaceOnUse">
<stop stop-color="white"/>
<stop offset="1" stop-color="white" stop-opacity="0"/>
</linearGradient>
<linearGradient id="paint2_linear_123_43" x1="643" y1="315.499" x2="0.999831" y2="313" gradientUnits="userSpaceOnUse">
<stop stop-color="#544B6D"/>
<stop offset="1" stop-color="#806666"/>
</linearGradient>
<linearGradient id="paint3_linear_123_43" x1="651" y1="129" x2="0.999825" y2="239.5" gradientUnits="userSpaceOnUse">
<stop stop-color="#806666"/>
<stop offset="1" stop-color="#AC751D" stop-opacity="0"/>
</linearGradient>
<linearGradient id="paint4_linear_123_43" x1="640.5" y1="268.003" x2="301.536" y2="268.001" gradientUnits="userSpaceOnUse">
<stop stop-color="white" stop-opacity="0.64"/>
<stop offset="0.379573" stop-color="white" stop-opacity="0.4"/>
<stop offset="1" stop-color="white" stop-opacity="0"/>
</linearGradient>
<linearGradient id="paint5_linear_123_43" x1="646" y1="69" x2="302.536" y2="69" gradientUnits="userSpaceOnUse">
<stop stop-color="white" stop-opacity="0.64"/>
<stop offset="0.2537" stop-color="white" stop-opacity="0.4"/>
<stop offset="0.643229" stop-color="white" stop-opacity="0"/>
</linearGradient>
<linearGradient id="paint6_linear_123_43" x1="348.5" y1="294" x2="651" y2="93" gradientUnits="userSpaceOnUse">
<stop offset="0.362402" stop-color="white"/>
<stop offset="1" stop-color="white" stop-opacity="0"/>
</linearGradient>
<linearGradient id="paint7_linear_123_43" x1="651" y1="205" x2="1" y2="205" gradientUnits="userSpaceOnUse">
<stop stop-color="#B4B8BD"/>
<stop offset="1" stop-color="white" stop-opacity="0"/>
</linearGradient>
<clipPath id="clip0_123_43">
<rect x="1" y="1" width="650" height="407" rx="32" fill="white"/>
</clipPath>
</defs>
</svg>
