<svg width="652" height="409" viewBox="0 0 652 409" fill="none" xmlns="http://www.w3.org/2000/svg">
<g clip-path="url(#clip0_123_41)">
<g filter="url(#filter0_d_123_41)">
<g opacity="0.2" filter="url(#filter1_d_123_41)">
<rect x="1" y="1" width="650" height="407" rx="32" fill="url(#paint0_linear_123_41)" shape-rendering="crispEdges"/>
<rect x="-0.5" y="-0.5" width="653" height="410" rx="33.5" stroke="url(#paint1_linear_123_41)" stroke-opacity="0.4" stroke-width="3" shape-rendering="crispEdges"/>
</g>
<g filter="url(#filter2_i_123_41)">
<path d="M75.0124 208.149L1 245.25V408H651V150.5L591.085 179.952H507.003L414.865 208.149L334.308 179.952L246.198 208.149L150.032 223.484L75.0124 208.149Z" fill="url(#paint2_linear_123_41)"/>
</g>
<path d="M75.0124 208.149L1 245.25V408H651V150.5L591.085 179.952H507.003L414.865 208.149L334.308 179.952L246.198 208.149L150.032 223.484L75.0124 208.149Z" stroke="url(#paint3_linear_123_41)" stroke-opacity="0.8" stroke-width="0.5"/>
<path opacity="0.6" d="M1 268H650" stroke="url(#paint4_linear_123_41)" stroke-width="2" stroke-linecap="round" stroke-dasharray="4 10"/>
<path opacity="0.4" d="M2 69H651" stroke="url(#paint5_linear_123_41)" stroke-width="2" stroke-linecap="round" stroke-dasharray="4 10"/>
<path opacity="0.7" d="M1 287.5H162.5L248.5 259L362.5 287.5L503.5 259L614 287.5L650 259" stroke="url(#paint6_linear_123_41)" stroke-opacity="0.8" stroke-width="2" stroke-linecap="round"/>
<g opacity="0.8" filter="url(#filter3_i_123_41)">
<path d="M51.6465 337.793H56.8906V344.346C56.207 344.632 55.4779 344.847 54.7031 344.99C53.9284 345.127 53.1048 345.195 52.2324 345.195C50.7155 345.195 49.4362 344.909 48.3945 344.336C47.3594 343.757 46.5749 342.92 46.041 341.826C45.5072 340.732 45.2402 339.417 45.2402 337.881C45.2402 336.449 45.5299 335.176 46.1094 334.062C46.6953 332.949 47.5319 332.077 48.6191 331.445C49.7064 330.814 51.0085 330.498 52.5254 330.498C53.3066 330.498 54.0423 330.57 54.7324 330.713C55.429 330.856 56.0898 331.071 56.7148 331.357L56.3145 332.256C55.696 331.969 55.0645 331.755 54.4199 331.611C53.7819 331.468 53.1341 331.396 52.4766 331.396C51.1875 331.396 50.0775 331.673 49.1465 332.227C48.222 332.773 47.5124 333.535 47.0176 334.512C46.5293 335.482 46.2852 336.602 46.2852 337.871C46.2852 339.31 46.5228 340.505 46.998 341.455C47.4733 342.406 48.1667 343.118 49.0781 343.594C49.9961 344.069 51.1094 344.307 52.418 344.307C53.1341 344.307 53.7754 344.255 54.3418 344.15C54.9147 344.046 55.4323 343.91 55.8945 343.74V338.711H51.6465V337.793ZM64.2539 334.18C65.1589 334.18 65.9108 334.391 66.5098 334.814C67.1152 335.238 67.5645 335.817 67.8574 336.553C68.1569 337.288 68.3066 338.132 68.3066 339.082V339.795H60.6406C60.6406 341.253 60.9759 342.373 61.6465 343.154C62.3236 343.936 63.2904 344.326 64.5469 344.326C65.2044 344.326 65.7741 344.274 66.2559 344.17C66.7441 344.059 67.2845 343.874 67.877 343.613V344.521C67.3561 344.756 66.8353 344.925 66.3145 345.029C65.7936 345.14 65.1947 345.195 64.5176 345.195C63.4434 345.195 62.5417 344.974 61.8125 344.531C61.0898 344.082 60.543 343.451 60.1719 342.637C59.8073 341.823 59.625 340.872 59.625 339.785C59.625 338.724 59.8008 337.77 60.1523 336.924C60.5104 336.077 61.0312 335.41 61.7148 334.922C62.4049 334.427 63.2513 334.18 64.2539 334.18ZM64.2441 335.029C63.2285 335.029 62.4049 335.368 61.7734 336.045C61.1484 336.715 60.7806 337.686 60.6699 338.955H67.2812C67.2812 338.18 67.1706 337.497 66.9492 336.904C66.7279 336.312 66.3926 335.853 65.9434 335.527C65.5007 335.195 64.9342 335.029 64.2441 335.029ZM74.0977 344.346C74.4036 344.346 74.6868 344.323 74.9473 344.277C75.2142 344.232 75.4486 344.173 75.6504 344.102V344.922C75.4421 344.993 75.1979 345.055 74.918 345.107C74.638 345.166 74.3288 345.195 73.9902 345.195C73.3913 345.195 72.8932 345.085 72.4961 344.863C72.099 344.635 71.7995 344.294 71.5977 343.838C71.3958 343.376 71.2949 342.79 71.2949 342.08V335.205H69.7129V334.619L71.2852 334.316L71.627 331.816H72.2812V334.385H75.5918V335.205H72.2812V342.021C72.2812 342.783 72.4212 343.363 72.7012 343.76C72.9876 344.15 73.4531 344.346 74.0977 344.346ZM86.832 334.199C87.9974 334.199 88.8698 334.492 89.4492 335.078C90.0286 335.664 90.3184 336.598 90.3184 337.881V345H89.5566L89.3809 343.145H89.3223C89.0944 343.542 88.8177 343.896 88.4922 344.209C88.1667 344.515 87.7663 344.756 87.291 344.932C86.8223 345.107 86.2493 345.195 85.5723 345.195C84.8887 345.195 84.3027 345.081 83.8145 344.854C83.3327 344.626 82.9583 344.294 82.6914 343.857C82.431 343.421 82.3008 342.891 82.3008 342.266C82.3008 341.211 82.737 340.41 83.6094 339.863C84.4818 339.31 85.735 338.997 87.3691 338.926L89.3418 338.828V338.057C89.3418 336.969 89.127 336.195 88.6973 335.732C88.2676 335.27 87.6328 335.039 86.793 335.039C86.2461 335.039 85.7188 335.111 85.2109 335.254C84.7096 335.391 84.1986 335.589 83.6777 335.85L83.3652 335.029C83.873 334.788 84.4167 334.59 84.9961 334.434C85.582 334.277 86.194 334.199 86.832 334.199ZM89.332 339.6L87.4766 339.678C86.1289 339.743 85.1035 339.984 84.4004 340.4C83.6973 340.817 83.3457 341.442 83.3457 342.275C83.3457 342.946 83.554 343.46 83.9707 343.818C84.3939 344.176 84.9798 344.355 85.7285 344.355C86.8939 344.355 87.7826 344.023 88.3945 343.359C89.013 342.695 89.3255 341.79 89.332 340.645V339.6ZM97.9844 345.195C96.9297 345.195 96.0378 344.977 95.3086 344.541C94.5859 344.098 94.0391 343.47 93.668 342.656C93.3034 341.836 93.1211 340.866 93.1211 339.746C93.1211 338.581 93.3327 337.585 93.7559 336.758C94.179 335.924 94.7747 335.286 95.543 334.844C96.3112 334.401 97.2129 334.18 98.248 334.18C98.7559 334.18 99.2279 334.225 99.6641 334.316C100.1 334.408 100.494 334.535 100.846 334.697L100.582 335.566C100.217 335.404 99.8301 335.28 99.4199 335.195C99.0098 335.111 98.6159 335.068 98.2383 335.068C97.3659 335.068 96.6237 335.26 96.0117 335.645C95.4062 336.022 94.9408 336.562 94.6152 337.266C94.2962 337.962 94.1367 338.786 94.1367 339.736C94.1367 340.628 94.2734 341.419 94.5469 342.109C94.8203 342.793 95.2402 343.333 95.8066 343.73C96.373 344.121 97.099 344.316 97.9844 344.316C98.4987 344.316 98.987 344.264 99.4492 344.16C99.918 344.056 100.344 343.923 100.729 343.76V344.658C100.383 344.814 99.9831 344.941 99.5273 345.039C99.0781 345.143 98.5638 345.195 97.9844 345.195ZM107.496 345.195C106.441 345.195 105.549 344.977 104.82 344.541C104.098 344.098 103.551 343.47 103.18 342.656C102.815 341.836 102.633 340.866 102.633 339.746C102.633 338.581 102.844 337.585 103.268 336.758C103.691 335.924 104.286 335.286 105.055 334.844C105.823 334.401 106.725 334.18 107.76 334.18C108.268 334.18 108.74 334.225 109.176 334.316C109.612 334.408 110.006 334.535 110.357 334.697L110.094 335.566C109.729 335.404 109.342 335.28 108.932 335.195C108.521 335.111 108.128 335.068 107.75 335.068C106.878 335.068 106.135 335.26 105.523 335.645C104.918 336.022 104.452 336.562 104.127 337.266C103.808 337.962 103.648 338.786 103.648 339.736C103.648 340.628 103.785 341.419 104.059 342.109C104.332 342.793 104.752 343.333 105.318 343.73C105.885 344.121 106.611 344.316 107.496 344.316C108.01 344.316 108.499 344.264 108.961 344.16C109.43 344.056 109.856 343.923 110.24 343.76V344.658C109.895 344.814 109.495 344.941 109.039 345.039C108.59 345.143 108.076 345.195 107.496 345.195ZM116.773 334.18C117.678 334.18 118.43 334.391 119.029 334.814C119.635 335.238 120.084 335.817 120.377 336.553C120.676 337.288 120.826 338.132 120.826 339.082V339.795H113.16C113.16 341.253 113.495 342.373 114.166 343.154C114.843 343.936 115.81 344.326 117.066 344.326C117.724 344.326 118.294 344.274 118.775 344.17C119.264 344.059 119.804 343.874 120.396 343.613V344.521C119.876 344.756 119.355 344.925 118.834 345.029C118.313 345.14 117.714 345.195 117.037 345.195C115.963 345.195 115.061 344.974 114.332 344.531C113.609 344.082 113.062 343.451 112.691 342.637C112.327 341.823 112.145 340.872 112.145 339.785C112.145 338.724 112.32 337.77 112.672 336.924C113.03 336.077 113.551 335.41 114.234 334.922C114.924 334.427 115.771 334.18 116.773 334.18ZM116.764 335.029C115.748 335.029 114.924 335.368 114.293 336.045C113.668 336.715 113.3 337.686 113.189 338.955H119.801C119.801 338.18 119.69 337.497 119.469 336.904C119.247 336.312 118.912 335.853 118.463 335.527C118.02 335.195 117.454 335.029 116.764 335.029ZM130.387 342.217C130.387 342.848 130.227 343.389 129.908 343.838C129.596 344.281 129.137 344.619 128.531 344.854C127.926 345.081 127.18 345.195 126.295 345.195C125.559 345.195 124.902 345.13 124.322 345C123.743 344.87 123.258 344.71 122.867 344.521V343.545C123.355 343.786 123.896 343.981 124.488 344.131C125.081 344.281 125.689 344.355 126.314 344.355C127.408 344.355 128.196 344.17 128.678 343.799C129.16 343.428 129.4 342.92 129.4 342.275C129.4 341.852 129.28 341.504 129.039 341.23C128.805 340.951 128.466 340.71 128.023 340.508C127.581 340.306 127.047 340.101 126.422 339.893C125.771 339.671 125.191 339.453 124.684 339.238C124.182 339.017 123.788 338.727 123.502 338.369C123.215 338.005 123.072 337.51 123.072 336.885C123.072 336.032 123.414 335.368 124.098 334.893C124.781 334.417 125.699 334.18 126.852 334.18C127.49 334.18 128.082 334.242 128.629 334.365C129.182 334.482 129.684 334.635 130.133 334.824L129.781 335.664C129.378 335.475 128.912 335.322 128.385 335.205C127.857 335.088 127.33 335.029 126.803 335.029C125.937 335.029 125.26 335.182 124.771 335.488C124.283 335.794 124.039 336.243 124.039 336.836C124.039 337.292 124.156 337.65 124.391 337.91C124.625 338.164 124.96 338.379 125.396 338.555C125.833 338.724 126.35 338.913 126.949 339.121C127.568 339.336 128.137 339.561 128.658 339.795C129.186 340.029 129.605 340.332 129.918 340.703C130.23 341.074 130.387 341.579 130.387 342.217ZM139.703 342.217C139.703 342.848 139.544 343.389 139.225 343.838C138.912 344.281 138.453 344.619 137.848 344.854C137.242 345.081 136.497 345.195 135.611 345.195C134.876 345.195 134.218 345.13 133.639 345C133.059 344.87 132.574 344.71 132.184 344.521V343.545C132.672 343.786 133.212 343.981 133.805 344.131C134.397 344.281 135.006 344.355 135.631 344.355C136.725 344.355 137.512 344.17 137.994 343.799C138.476 343.428 138.717 342.92 138.717 342.275C138.717 341.852 138.596 341.504 138.355 341.23C138.121 340.951 137.783 340.71 137.34 340.508C136.897 340.306 136.363 340.101 135.738 339.893C135.087 339.671 134.508 339.453 134 339.238C133.499 339.017 133.105 338.727 132.818 338.369C132.532 338.005 132.389 337.51 132.389 336.885C132.389 336.032 132.73 335.368 133.414 334.893C134.098 334.417 135.016 334.18 136.168 334.18C136.806 334.18 137.398 334.242 137.945 334.365C138.499 334.482 139 334.635 139.449 334.824L139.098 335.664C138.694 335.475 138.229 335.322 137.701 335.205C137.174 335.088 136.646 335.029 136.119 335.029C135.253 335.029 134.576 335.182 134.088 335.488C133.6 335.794 133.355 336.243 133.355 336.836C133.355 337.292 133.473 337.65 133.707 337.91C133.941 338.164 134.277 338.379 134.713 338.555C135.149 338.724 135.667 338.913 136.266 339.121C136.884 339.336 137.454 339.561 137.975 339.795C138.502 340.029 138.922 340.332 139.234 340.703C139.547 341.074 139.703 341.579 139.703 342.217ZM150.445 344.346C150.751 344.346 151.035 344.323 151.295 344.277C151.562 344.232 151.796 344.173 151.998 344.102V344.922C151.79 344.993 151.546 345.055 151.266 345.107C150.986 345.166 150.676 345.195 150.338 345.195C149.739 345.195 149.241 345.085 148.844 344.863C148.447 344.635 148.147 344.294 147.945 343.838C147.743 343.376 147.643 342.79 147.643 342.08V335.205H146.061V334.619L147.633 334.316L147.975 331.816H148.629V334.385H151.939V335.205H148.629V342.021C148.629 342.783 148.769 343.363 149.049 343.76C149.335 344.15 149.801 344.346 150.445 344.346ZM163.082 339.678C163.082 340.498 162.981 341.247 162.779 341.924C162.577 342.594 162.278 343.174 161.881 343.662C161.484 344.15 160.989 344.528 160.396 344.795C159.811 345.062 159.127 345.195 158.346 345.195C157.604 345.195 156.943 345.065 156.363 344.805C155.784 344.538 155.292 344.16 154.889 343.672C154.492 343.184 154.189 342.604 153.98 341.934C153.772 341.257 153.668 340.505 153.668 339.678C153.668 338.538 153.857 337.559 154.234 336.738C154.618 335.911 155.165 335.28 155.875 334.844C156.591 334.401 157.447 334.18 158.443 334.18C159.472 334.18 160.328 334.414 161.012 334.883C161.702 335.345 162.219 335.99 162.564 336.816C162.91 337.643 163.082 338.597 163.082 339.678ZM154.684 339.678C154.684 340.609 154.817 341.423 155.084 342.119C155.351 342.816 155.755 343.359 156.295 343.75C156.842 344.141 157.532 344.336 158.365 344.336C159.218 344.336 159.918 344.141 160.465 343.75C161.012 343.359 161.415 342.812 161.676 342.109C161.936 341.406 162.066 340.596 162.066 339.678C162.066 338.786 161.943 337.992 161.695 337.295C161.448 336.598 161.057 336.051 160.523 335.654C159.99 335.251 159.293 335.049 158.434 335.049C157.203 335.049 156.269 335.459 155.631 336.279C154.999 337.1 154.684 338.232 154.684 339.678ZM174.078 344.346C174.384 344.346 174.667 344.323 174.928 344.277C175.195 344.232 175.429 344.173 175.631 344.102V344.922C175.423 344.993 175.178 345.055 174.898 345.107C174.618 345.166 174.309 345.195 173.971 345.195C173.372 345.195 172.874 345.085 172.477 344.863C172.079 344.635 171.78 344.294 171.578 343.838C171.376 343.376 171.275 342.79 171.275 342.08V335.205H169.693V334.619L171.266 334.316L171.607 331.816H172.262V334.385H175.572V335.205H172.262V342.021C172.262 342.783 172.402 343.363 172.682 343.76C172.968 344.15 173.434 344.346 174.078 344.346ZM186.715 339.678C186.715 340.498 186.614 341.247 186.412 341.924C186.21 342.594 185.911 343.174 185.514 343.662C185.117 344.15 184.622 344.528 184.029 344.795C183.443 345.062 182.76 345.195 181.979 345.195C181.236 345.195 180.576 345.065 179.996 344.805C179.417 344.538 178.925 344.16 178.521 343.672C178.124 343.184 177.822 342.604 177.613 341.934C177.405 341.257 177.301 340.505 177.301 339.678C177.301 338.538 177.49 337.559 177.867 336.738C178.251 335.911 178.798 335.28 179.508 334.844C180.224 334.401 181.08 334.18 182.076 334.18C183.105 334.18 183.961 334.414 184.645 334.883C185.335 335.345 185.852 335.99 186.197 336.816C186.542 337.643 186.715 338.597 186.715 339.678ZM178.316 339.678C178.316 340.609 178.45 341.423 178.717 342.119C178.984 342.816 179.387 343.359 179.928 343.75C180.475 344.141 181.165 344.336 181.998 344.336C182.851 344.336 183.551 344.141 184.098 343.75C184.645 343.359 185.048 342.812 185.309 342.109C185.569 341.406 185.699 340.596 185.699 339.678C185.699 338.786 185.576 337.992 185.328 337.295C185.081 336.598 184.69 336.051 184.156 335.654C183.622 335.251 182.926 335.049 182.066 335.049C180.836 335.049 179.902 335.459 179.264 336.279C178.632 337.1 178.316 338.232 178.316 339.678ZM194.352 334.18C195.719 334.18 196.777 334.639 197.525 335.557C198.281 336.475 198.658 337.829 198.658 339.619C198.658 340.817 198.479 341.833 198.121 342.666C197.763 343.493 197.252 344.121 196.588 344.551C195.93 344.98 195.139 345.195 194.215 345.195C193.577 345.195 193.02 345.101 192.545 344.912C192.076 344.717 191.686 344.456 191.373 344.131C191.061 343.799 190.82 343.434 190.65 343.037H190.582C190.602 343.408 190.618 343.796 190.631 344.199C190.644 344.603 190.65 344.984 190.65 345.342V349.697H189.654V334.385H190.475L190.592 336.504H190.65C190.826 336.1 191.074 335.719 191.393 335.361C191.712 335.003 192.115 334.717 192.604 334.502C193.092 334.287 193.674 334.18 194.352 334.18ZM194.225 335.049C193.424 335.049 192.757 335.225 192.223 335.576C191.695 335.921 191.301 336.429 191.041 337.1C190.787 337.764 190.657 338.577 190.65 339.541V339.707C190.65 340.742 190.777 341.605 191.031 342.295C191.292 342.979 191.679 343.49 192.193 343.828C192.714 344.167 193.359 344.336 194.127 344.336C194.882 344.336 195.52 344.15 196.041 343.779C196.562 343.408 196.959 342.871 197.232 342.168C197.506 341.465 197.643 340.612 197.643 339.609C197.643 338.118 197.356 336.986 196.783 336.211C196.217 335.436 195.364 335.049 194.225 335.049ZM210.602 345.195C209.15 345.195 208.043 344.74 207.281 343.828C206.526 342.91 206.148 341.576 206.148 339.824C206.148 337.988 206.549 336.589 207.35 335.625C208.15 334.661 209.267 334.18 210.699 334.18C211.311 334.18 211.842 334.274 212.291 334.463C212.747 334.652 213.128 334.909 213.434 335.234C213.746 335.553 213.987 335.918 214.156 336.328H214.234C214.208 335.983 214.189 335.612 214.176 335.215C214.163 334.818 214.156 334.453 214.156 334.121V329.805H215.143V345H214.342L214.215 343.057H214.156C213.98 343.447 213.736 343.805 213.424 344.131C213.118 344.456 212.734 344.717 212.271 344.912C211.809 345.101 211.253 345.195 210.602 345.195ZM210.709 344.336C211.959 344.336 212.848 343.949 213.375 343.174C213.902 342.393 214.166 341.279 214.166 339.834V339.678C214.166 338.18 213.902 337.035 213.375 336.24C212.848 335.439 211.988 335.039 210.797 335.039C209.618 335.039 208.717 335.449 208.092 336.27C207.473 337.09 207.164 338.281 207.164 339.844C207.164 341.315 207.454 342.432 208.033 343.193C208.619 343.955 209.511 344.336 210.709 344.336ZM222.691 334.18C223.596 334.18 224.348 334.391 224.947 334.814C225.553 335.238 226.002 335.817 226.295 336.553C226.594 337.288 226.744 338.132 226.744 339.082V339.795H219.078C219.078 341.253 219.413 342.373 220.084 343.154C220.761 343.936 221.728 344.326 222.984 344.326C223.642 344.326 224.212 344.274 224.693 344.17C225.182 344.059 225.722 343.874 226.314 343.613V344.521C225.794 344.756 225.273 344.925 224.752 345.029C224.231 345.14 223.632 345.195 222.955 345.195C221.881 345.195 220.979 344.974 220.25 344.531C219.527 344.082 218.98 343.451 218.609 342.637C218.245 341.823 218.062 340.872 218.062 339.785C218.062 338.724 218.238 337.77 218.59 336.924C218.948 336.077 219.469 335.41 220.152 334.922C220.842 334.427 221.689 334.18 222.691 334.18ZM222.682 335.029C221.666 335.029 220.842 335.368 220.211 336.045C219.586 336.715 219.218 337.686 219.107 338.955H225.719C225.719 338.18 225.608 337.497 225.387 336.904C225.165 336.312 224.83 335.853 224.381 335.527C223.938 335.195 223.372 335.029 222.682 335.029ZM230.641 329.805V334.121C230.641 334.492 230.634 334.899 230.621 335.342C230.608 335.785 230.595 336.152 230.582 336.445H230.641C230.895 335.788 231.337 335.244 231.969 334.814C232.6 334.385 233.388 334.17 234.332 334.17C235.712 334.17 236.777 334.635 237.525 335.566C238.281 336.497 238.658 337.861 238.658 339.658C238.658 340.758 238.489 341.725 238.15 342.559C237.812 343.385 237.307 344.033 236.637 344.502C235.973 344.964 235.139 345.195 234.137 345.195C233.232 345.195 232.493 345.007 231.92 344.629C231.347 344.245 230.93 343.766 230.67 343.193H230.592L230.406 345H229.654V329.805H230.641ZM234.225 335.029C233.385 335.029 232.701 335.212 232.174 335.576C231.646 335.934 231.259 336.458 231.012 337.148C230.764 337.839 230.641 338.682 230.641 339.678V339.834C230.641 341.299 230.908 342.415 231.441 343.184C231.975 343.952 232.841 344.336 234.039 344.336C235.224 344.336 236.119 343.932 236.725 343.125C237.337 342.311 237.643 341.156 237.643 339.658C237.643 338.128 237.359 336.976 236.793 336.201C236.227 335.42 235.37 335.029 234.225 335.029ZM244.449 344.346C244.755 344.346 245.038 344.323 245.299 344.277C245.566 344.232 245.8 344.173 246.002 344.102V344.922C245.794 344.993 245.549 345.055 245.27 345.107C244.99 345.166 244.68 345.195 244.342 345.195C243.743 345.195 243.245 345.085 242.848 344.863C242.451 344.635 242.151 344.294 241.949 343.838C241.747 343.376 241.646 342.79 241.646 342.08V335.205H240.064V334.619L241.637 334.316L241.979 331.816H242.633V334.385H245.943V335.205H242.633V342.021C242.633 342.783 242.773 343.363 243.053 343.76C243.339 344.15 243.805 344.346 244.449 344.346ZM257.428 335.205H254.928V345H253.941V335.205H251.969V334.619L253.941 334.365V333.193C253.941 332.412 254.052 331.764 254.273 331.25C254.501 330.729 254.843 330.342 255.299 330.088C255.761 329.827 256.344 329.697 257.047 329.697C257.411 329.697 257.74 329.727 258.033 329.785C258.326 329.837 258.6 329.906 258.854 329.99L258.629 330.82C258.401 330.742 258.147 330.677 257.867 330.625C257.594 330.573 257.324 330.547 257.057 330.547C256.308 330.547 255.764 330.755 255.426 331.172C255.094 331.582 254.928 332.253 254.928 333.184V334.385H257.428V335.205ZM267.74 334.385V345H266.939L266.793 343.086H266.734C266.552 343.477 266.295 343.831 265.963 344.15C265.631 344.469 265.224 344.723 264.742 344.912C264.26 345.101 263.701 345.195 263.062 345.195C262.249 345.195 261.565 345.055 261.012 344.775C260.465 344.489 260.051 344.059 259.771 343.486C259.492 342.913 259.352 342.197 259.352 341.338V334.385H260.338V341.24C260.338 342.301 260.576 343.083 261.051 343.584C261.533 344.085 262.236 344.336 263.16 344.336C263.941 344.336 264.596 344.186 265.123 343.887C265.657 343.587 266.061 343.135 266.334 342.529C266.614 341.917 266.754 341.156 266.754 340.244V334.385H267.74ZM275.982 334.18C277.174 334.18 278.089 334.492 278.727 335.117C279.365 335.742 279.684 336.722 279.684 338.057V345H278.707V338.115C278.707 337.061 278.466 336.286 277.984 335.791C277.503 335.296 276.803 335.049 275.885 335.049C274.719 335.049 273.827 335.391 273.209 336.074C272.597 336.751 272.291 337.777 272.291 339.15V345H271.305V334.385H272.105L272.252 336.318H272.311C272.499 335.921 272.757 335.563 273.082 335.244C273.414 334.919 273.821 334.661 274.303 334.473C274.785 334.277 275.344 334.18 275.982 334.18ZM286.969 345.195C285.517 345.195 284.41 344.74 283.648 343.828C282.893 342.91 282.516 341.576 282.516 339.824C282.516 337.988 282.916 336.589 283.717 335.625C284.518 334.661 285.634 334.18 287.066 334.18C287.678 334.18 288.209 334.274 288.658 334.463C289.114 334.652 289.495 334.909 289.801 335.234C290.113 335.553 290.354 335.918 290.523 336.328H290.602C290.576 335.983 290.556 335.612 290.543 335.215C290.53 334.818 290.523 334.453 290.523 334.121V329.805H291.51V345H290.709L290.582 343.057H290.523C290.348 343.447 290.104 343.805 289.791 344.131C289.485 344.456 289.101 344.717 288.639 344.912C288.176 345.101 287.62 345.195 286.969 345.195ZM287.076 344.336C288.326 344.336 289.215 343.949 289.742 343.174C290.27 342.393 290.533 341.279 290.533 339.834V339.678C290.533 338.18 290.27 337.035 289.742 336.24C289.215 335.439 288.355 335.039 287.164 335.039C285.986 335.039 285.084 335.449 284.459 336.27C283.84 337.09 283.531 338.281 283.531 339.844C283.531 341.315 283.821 342.432 284.4 343.193C284.986 343.955 285.878 344.336 287.076 344.336ZM301.676 342.217C301.676 342.848 301.516 343.389 301.197 343.838C300.885 344.281 300.426 344.619 299.82 344.854C299.215 345.081 298.469 345.195 297.584 345.195C296.848 345.195 296.191 345.13 295.611 345C295.032 344.87 294.547 344.71 294.156 344.521V343.545C294.645 343.786 295.185 343.981 295.777 344.131C296.37 344.281 296.979 344.355 297.604 344.355C298.697 344.355 299.485 344.17 299.967 343.799C300.449 343.428 300.689 342.92 300.689 342.275C300.689 341.852 300.569 341.504 300.328 341.23C300.094 340.951 299.755 340.71 299.312 340.508C298.87 340.306 298.336 340.101 297.711 339.893C297.06 339.671 296.48 339.453 295.973 339.238C295.471 339.017 295.077 338.727 294.791 338.369C294.505 338.005 294.361 337.51 294.361 336.885C294.361 336.032 294.703 335.368 295.387 334.893C296.07 334.417 296.988 334.18 298.141 334.18C298.779 334.18 299.371 334.242 299.918 334.365C300.471 334.482 300.973 334.635 301.422 334.824L301.07 335.664C300.667 335.475 300.201 335.322 299.674 335.205C299.146 335.088 298.619 335.029 298.092 335.029C297.226 335.029 296.549 335.182 296.061 335.488C295.572 335.794 295.328 336.243 295.328 336.836C295.328 337.292 295.445 337.65 295.68 337.91C295.914 338.164 296.249 338.379 296.686 338.555C297.122 338.724 297.639 338.913 298.238 339.121C298.857 339.336 299.426 339.561 299.947 339.795C300.475 340.029 300.895 340.332 301.207 340.703C301.52 341.074 301.676 341.579 301.676 342.217ZM312.418 344.346C312.724 344.346 313.007 344.323 313.268 344.277C313.535 344.232 313.769 344.173 313.971 344.102V344.922C313.762 344.993 313.518 345.055 313.238 345.107C312.958 345.166 312.649 345.195 312.311 345.195C311.712 345.195 311.214 345.085 310.816 344.863C310.419 344.635 310.12 344.294 309.918 343.838C309.716 343.376 309.615 342.79 309.615 342.08V335.205H308.033V334.619L309.605 334.316L309.947 331.816H310.602V334.385H313.912V335.205H310.602V342.021C310.602 342.783 310.742 343.363 311.021 343.76C311.308 344.15 311.773 344.346 312.418 344.346ZM317.232 329.805V334.766C317.232 335.052 317.226 335.319 317.213 335.566C317.206 335.814 317.193 336.064 317.174 336.318H317.242C317.418 335.915 317.669 335.553 317.994 335.234C318.326 334.915 318.733 334.661 319.215 334.473C319.703 334.284 320.266 334.189 320.904 334.189C321.712 334.189 322.389 334.329 322.936 334.609C323.489 334.883 323.909 335.303 324.195 335.869C324.482 336.436 324.625 337.165 324.625 338.057V345H323.648V338.115C323.648 337.061 323.408 336.286 322.926 335.791C322.444 335.296 321.744 335.049 320.826 335.049C320.045 335.049 319.387 335.202 318.854 335.508C318.32 335.807 317.916 336.263 317.643 336.875C317.369 337.48 317.232 338.239 317.232 339.15V345H316.246V329.805H317.232ZM332.291 334.199C332.571 334.199 332.835 334.215 333.082 334.248C333.329 334.281 333.561 334.326 333.775 334.385L333.619 335.293C333.404 335.234 333.186 335.192 332.965 335.166C332.743 335.133 332.506 335.117 332.252 335.117C331.751 335.117 331.301 335.212 330.904 335.4C330.514 335.589 330.182 335.859 329.908 336.211C329.635 336.562 329.426 336.986 329.283 337.48C329.14 337.975 329.068 338.529 329.068 339.141V345H328.072V334.385H328.922L329.02 336.387H329.078C329.241 335.977 329.469 335.609 329.762 335.283C330.061 334.951 330.423 334.688 330.846 334.492C331.269 334.297 331.751 334.199 332.291 334.199ZM344.664 339.678C344.664 340.498 344.563 341.247 344.361 341.924C344.16 342.594 343.86 343.174 343.463 343.662C343.066 344.15 342.571 344.528 341.979 344.795C341.393 345.062 340.709 345.195 339.928 345.195C339.186 345.195 338.525 345.065 337.945 344.805C337.366 344.538 336.874 344.16 336.471 343.672C336.074 343.184 335.771 342.604 335.562 341.934C335.354 341.257 335.25 340.505 335.25 339.678C335.25 338.538 335.439 337.559 335.816 336.738C336.201 335.911 336.747 335.28 337.457 334.844C338.173 334.401 339.029 334.18 340.025 334.18C341.054 334.18 341.91 334.414 342.594 334.883C343.284 335.345 343.801 335.99 344.146 336.816C344.492 337.643 344.664 338.597 344.664 339.678ZM336.266 339.678C336.266 340.609 336.399 341.423 336.666 342.119C336.933 342.816 337.337 343.359 337.877 343.75C338.424 344.141 339.114 344.336 339.947 344.336C340.8 344.336 341.5 344.141 342.047 343.75C342.594 343.359 342.997 342.812 343.258 342.109C343.518 341.406 343.648 340.596 343.648 339.678C343.648 338.786 343.525 337.992 343.277 337.295C343.03 336.598 342.639 336.051 342.105 335.654C341.572 335.251 340.875 335.049 340.016 335.049C338.785 335.049 337.851 335.459 337.213 336.279C336.581 337.1 336.266 338.232 336.266 339.678ZM355.846 334.385V345H355.045L354.898 343.086H354.84C354.658 343.477 354.4 343.831 354.068 344.15C353.736 344.469 353.329 344.723 352.848 344.912C352.366 345.101 351.806 345.195 351.168 345.195C350.354 345.195 349.671 345.055 349.117 344.775C348.57 344.489 348.157 344.059 347.877 343.486C347.597 342.913 347.457 342.197 347.457 341.338V334.385H348.443V341.24C348.443 342.301 348.681 343.083 349.156 343.584C349.638 344.085 350.341 344.336 351.266 344.336C352.047 344.336 352.701 344.186 353.229 343.887C353.762 343.587 354.166 343.135 354.439 342.529C354.719 341.917 354.859 341.156 354.859 340.244V334.385H355.846ZM362.223 349.805C360.888 349.805 359.85 349.548 359.107 349.033C358.372 348.519 358.004 347.799 358.004 346.875C358.004 346.159 358.229 345.54 358.678 345.02C359.127 344.505 359.736 344.196 360.504 344.092C360.198 343.949 359.947 343.753 359.752 343.506C359.563 343.258 359.469 342.972 359.469 342.646C359.469 342.282 359.583 341.943 359.811 341.631C360.038 341.312 360.38 341.019 360.836 340.752C360.224 340.531 359.742 340.156 359.391 339.629C359.039 339.095 358.863 338.454 358.863 337.705C358.863 336.989 359.016 336.367 359.322 335.84C359.628 335.312 360.061 334.906 360.621 334.619C361.188 334.326 361.855 334.18 362.623 334.18C362.857 334.18 363.069 334.186 363.258 334.199C363.453 334.212 363.632 334.235 363.795 334.268C363.958 334.294 364.104 334.329 364.234 334.375H367.662V335.078L365.475 335.225C365.761 335.57 365.976 335.944 366.119 336.348C366.262 336.745 366.334 337.165 366.334 337.607C366.334 338.662 366.002 339.499 365.338 340.117C364.674 340.736 363.749 341.045 362.564 341.045C362.239 341.045 361.92 341.016 361.607 340.957C361.21 341.191 360.908 341.429 360.699 341.67C360.491 341.904 360.387 342.197 360.387 342.549C360.387 342.77 360.452 342.952 360.582 343.096C360.712 343.232 360.901 343.34 361.148 343.418C361.396 343.49 361.699 343.525 362.057 343.525H363.922C365.074 343.525 365.956 343.76 366.568 344.229C367.18 344.697 367.486 345.387 367.486 346.299C367.486 347.412 367.027 348.275 366.109 348.887C365.198 349.499 363.902 349.805 362.223 349.805ZM362.291 348.975C363.222 348.975 363.997 348.874 364.615 348.672C365.24 348.47 365.709 348.171 366.021 347.773C366.334 347.383 366.49 346.898 366.49 346.318C366.49 345.843 366.376 345.475 366.148 345.215C365.921 344.954 365.598 344.775 365.182 344.678C364.765 344.574 364.273 344.521 363.707 344.521H361.93C361.363 344.521 360.859 344.6 360.416 344.756C359.973 344.906 359.628 345.146 359.381 345.479C359.14 345.811 359.02 346.253 359.02 346.807C359.02 347.516 359.296 348.053 359.85 348.418C360.41 348.789 361.223 348.975 362.291 348.975ZM362.604 340.254C363.482 340.254 364.156 340.033 364.625 339.59C365.094 339.147 365.328 338.506 365.328 337.666C365.328 336.768 365.087 336.094 364.605 335.645C364.124 335.195 363.45 334.971 362.584 334.971C361.744 334.971 361.083 335.212 360.602 335.693C360.126 336.169 359.889 336.839 359.889 337.705C359.889 338.512 360.117 339.141 360.572 339.59C361.028 340.033 361.705 340.254 362.604 340.254ZM370.787 329.805V334.766C370.787 335.052 370.781 335.319 370.768 335.566C370.761 335.814 370.748 336.064 370.729 336.318H370.797C370.973 335.915 371.223 335.553 371.549 335.234C371.881 334.915 372.288 334.661 372.77 334.473C373.258 334.284 373.821 334.189 374.459 334.189C375.266 334.189 375.943 334.329 376.49 334.609C377.044 334.883 377.464 335.303 377.75 335.869C378.036 336.436 378.18 337.165 378.18 338.057V345H377.203V338.115C377.203 337.061 376.962 336.286 376.48 335.791C375.999 335.296 375.299 335.049 374.381 335.049C373.6 335.049 372.942 335.202 372.408 335.508C371.874 335.807 371.471 336.263 371.197 336.875C370.924 337.48 370.787 338.239 370.787 339.15V345H369.801V329.805H370.787ZM49.9863 361.199C50.2663 361.199 50.5299 361.215 50.7773 361.248C51.0247 361.281 51.2559 361.326 51.4707 361.385L51.3145 362.293C51.0996 362.234 50.8815 362.192 50.6602 362.166C50.4388 362.133 50.2012 362.117 49.9473 362.117C49.446 362.117 48.9967 362.212 48.5996 362.4C48.209 362.589 47.877 362.859 47.6035 363.211C47.3301 363.562 47.1217 363.986 46.9785 364.48C46.8353 364.975 46.7637 365.529 46.7637 366.141V372H45.7676V361.385H46.6172L46.7148 363.387H46.7734C46.9362 362.977 47.1641 362.609 47.457 362.283C47.7565 361.951 48.1178 361.688 48.541 361.492C48.9642 361.297 49.446 361.199 49.9863 361.199ZM57.5742 361.18C58.4792 361.18 59.2311 361.391 59.8301 361.814C60.4355 362.238 60.8848 362.817 61.1777 363.553C61.4772 364.288 61.627 365.132 61.627 366.082V366.795H53.9609C53.9609 368.253 54.2962 369.373 54.9668 370.154C55.6439 370.936 56.6107 371.326 57.8672 371.326C58.5247 371.326 59.0944 371.274 59.5762 371.17C60.0645 371.059 60.6048 370.874 61.1973 370.613V371.521C60.6764 371.756 60.1556 371.925 59.6348 372.029C59.1139 372.14 58.515 372.195 57.8379 372.195C56.7637 372.195 55.862 371.974 55.1328 371.531C54.4102 371.082 53.8633 370.451 53.4922 369.637C53.1276 368.823 52.9453 367.872 52.9453 366.785C52.9453 365.724 53.1211 364.77 53.4727 363.924C53.8307 363.077 54.3516 362.41 55.0352 361.922C55.7253 361.427 56.5716 361.18 57.5742 361.18ZM57.5645 362.029C56.5488 362.029 55.7253 362.368 55.0938 363.045C54.4688 363.715 54.1009 364.686 53.9902 365.955H60.6016C60.6016 365.18 60.4909 364.497 60.2695 363.904C60.0482 363.312 59.7129 362.853 59.2637 362.527C58.821 362.195 58.2546 362.029 57.5645 362.029ZM68.8047 372.195C67.75 372.195 66.8581 371.977 66.1289 371.541C65.4062 371.098 64.8594 370.47 64.4883 369.656C64.1237 368.836 63.9414 367.866 63.9414 366.746C63.9414 365.581 64.153 364.585 64.5762 363.758C64.9993 362.924 65.5951 362.286 66.3633 361.844C67.1315 361.401 68.0332 361.18 69.0684 361.18C69.5762 361.18 70.0482 361.225 70.4844 361.316C70.9206 361.408 71.3145 361.535 71.666 361.697L71.4023 362.566C71.0378 362.404 70.6504 362.28 70.2402 362.195C69.8301 362.111 69.4362 362.068 69.0586 362.068C68.1862 362.068 67.444 362.26 66.832 362.645C66.2266 363.022 65.7611 363.562 65.4355 364.266C65.1165 364.962 64.957 365.786 64.957 366.736C64.957 367.628 65.0938 368.419 65.3672 369.109C65.6406 369.793 66.0605 370.333 66.627 370.73C67.1934 371.121 67.9193 371.316 68.8047 371.316C69.319 371.316 69.8073 371.264 70.2695 371.16C70.7383 371.056 71.1647 370.923 71.5488 370.76V371.658C71.2038 371.814 70.8034 371.941 70.3477 372.039C69.8984 372.143 69.3841 372.195 68.8047 372.195ZM76.9297 371.346C77.2357 371.346 77.5189 371.323 77.7793 371.277C78.0462 371.232 78.2806 371.173 78.4824 371.102V371.922C78.2741 371.993 78.0299 372.055 77.75 372.107C77.4701 372.166 77.1608 372.195 76.8223 372.195C76.2233 372.195 75.7253 372.085 75.3281 371.863C74.931 371.635 74.6315 371.294 74.4297 370.838C74.2279 370.376 74.127 369.79 74.127 369.08V362.205H72.5449V361.619L74.1172 361.316L74.459 358.816H75.1133V361.385H78.4238V362.205H75.1133V369.021C75.1133 369.783 75.2533 370.363 75.5332 370.76C75.8197 371.15 76.2852 371.346 76.9297 371.346ZM80.6016 371.307C80.6016 371.02 80.6667 370.802 80.7969 370.652C80.9271 370.496 81.1191 370.418 81.373 370.418C81.653 370.418 81.8581 370.496 81.9883 370.652C82.1185 370.802 82.1836 371.02 82.1836 371.307C82.1836 371.593 82.1185 371.814 81.9883 371.971C81.8581 372.127 81.653 372.205 81.373 372.205C81.1191 372.205 80.9271 372.127 80.7969 371.971C80.6667 371.814 80.6016 371.593 80.6016 371.307ZM99.2051 372L96.9492 364.871C96.8776 364.656 96.8125 364.451 96.7539 364.256C96.6953 364.061 96.64 363.872 96.5879 363.689C96.5358 363.507 96.487 363.331 96.4414 363.162C96.3958 362.986 96.3503 362.814 96.3047 362.645H96.2559C96.2103 362.814 96.1647 362.986 96.1191 363.162C96.0736 363.338 96.0247 363.52 95.9727 363.709C95.9206 363.898 95.8652 364.09 95.8066 364.285C95.748 364.48 95.6829 364.682 95.6113 364.891L93.2773 372H92.2617L89.2441 361.385H90.2891L92.1543 368.172C92.265 368.569 92.3594 368.924 92.4375 369.236C92.5156 369.549 92.584 369.832 92.6426 370.086C92.7012 370.34 92.7533 370.581 92.7988 370.809H92.8477C92.8867 370.646 92.929 370.477 92.9746 370.301C93.0202 370.118 93.069 369.923 93.1211 369.715C93.1732 369.507 93.235 369.285 93.3066 369.051C93.3783 368.816 93.4564 368.562 93.541 368.289L95.8164 361.385H96.793L98.9805 368.27C99.0846 368.602 99.179 368.921 99.2637 369.227C99.3548 369.526 99.4329 369.806 99.498 370.066C99.5697 370.327 99.6283 370.571 99.6738 370.799H99.7324C99.7585 370.584 99.7975 370.35 99.8496 370.096C99.9082 369.835 99.9766 369.546 100.055 369.227C100.139 368.908 100.234 368.556 100.338 368.172L102.135 361.385H103.131L100.25 372H99.2051ZM109.195 361.18C110.1 361.18 110.852 361.391 111.451 361.814C112.057 362.238 112.506 362.817 112.799 363.553C113.098 364.288 113.248 365.132 113.248 366.082V366.795H105.582C105.582 368.253 105.917 369.373 106.588 370.154C107.265 370.936 108.232 371.326 109.488 371.326C110.146 371.326 110.715 371.274 111.197 371.17C111.686 371.059 112.226 370.874 112.818 370.613V371.521C112.298 371.756 111.777 371.925 111.256 372.029C110.735 372.14 110.136 372.195 109.459 372.195C108.385 372.195 107.483 371.974 106.754 371.531C106.031 371.082 105.484 370.451 105.113 369.637C104.749 368.823 104.566 367.872 104.566 366.785C104.566 365.724 104.742 364.77 105.094 363.924C105.452 363.077 105.973 362.41 106.656 361.922C107.346 361.427 108.193 361.18 109.195 361.18ZM109.186 362.029C108.17 362.029 107.346 362.368 106.715 363.045C106.09 363.715 105.722 364.686 105.611 365.955H112.223C112.223 365.18 112.112 364.497 111.891 363.904C111.669 363.312 111.334 362.853 110.885 362.527C110.442 362.195 109.876 362.029 109.186 362.029ZM119.879 361.199C121.044 361.199 121.917 361.492 122.496 362.078C123.076 362.664 123.365 363.598 123.365 364.881V372H122.604L122.428 370.145H122.369C122.141 370.542 121.865 370.896 121.539 371.209C121.214 371.515 120.813 371.756 120.338 371.932C119.869 372.107 119.296 372.195 118.619 372.195C117.936 372.195 117.35 372.081 116.861 371.854C116.38 371.626 116.005 371.294 115.738 370.857C115.478 370.421 115.348 369.891 115.348 369.266C115.348 368.211 115.784 367.41 116.656 366.863C117.529 366.31 118.782 365.997 120.416 365.926L122.389 365.828V365.057C122.389 363.969 122.174 363.195 121.744 362.732C121.314 362.27 120.68 362.039 119.84 362.039C119.293 362.039 118.766 362.111 118.258 362.254C117.757 362.391 117.245 362.589 116.725 362.85L116.412 362.029C116.92 361.788 117.464 361.59 118.043 361.434C118.629 361.277 119.241 361.199 119.879 361.199ZM122.379 366.6L120.523 366.678C119.176 366.743 118.15 366.984 117.447 367.4C116.744 367.817 116.393 368.442 116.393 369.275C116.393 369.946 116.601 370.46 117.018 370.818C117.441 371.176 118.027 371.355 118.775 371.355C119.941 371.355 120.829 371.023 121.441 370.359C122.06 369.695 122.372 368.79 122.379 367.645V366.6ZM127.779 372H126.783V356.805H127.779V372ZM134.176 371.346C134.482 371.346 134.765 371.323 135.025 371.277C135.292 371.232 135.527 371.173 135.729 371.102V371.922C135.52 371.993 135.276 372.055 134.996 372.107C134.716 372.166 134.407 372.195 134.068 372.195C133.469 372.195 132.971 372.085 132.574 371.863C132.177 371.635 131.878 371.294 131.676 370.838C131.474 370.376 131.373 369.79 131.373 369.08V362.205H129.791V361.619L131.363 361.316L131.705 358.816H132.359V361.385H135.67V362.205H132.359V369.021C132.359 369.783 132.499 370.363 132.779 370.76C133.066 371.15 133.531 371.346 134.176 371.346ZM138.99 356.805V361.766C138.99 362.052 138.984 362.319 138.971 362.566C138.964 362.814 138.951 363.064 138.932 363.318H139C139.176 362.915 139.426 362.553 139.752 362.234C140.084 361.915 140.491 361.661 140.973 361.473C141.461 361.284 142.024 361.189 142.662 361.189C143.469 361.189 144.146 361.329 144.693 361.609C145.247 361.883 145.667 362.303 145.953 362.869C146.24 363.436 146.383 364.165 146.383 365.057V372H145.406V365.115C145.406 364.061 145.165 363.286 144.684 362.791C144.202 362.296 143.502 362.049 142.584 362.049C141.803 362.049 141.145 362.202 140.611 362.508C140.077 362.807 139.674 363.263 139.4 363.875C139.127 364.48 138.99 365.239 138.99 366.15V372H138.004V356.805H138.99Z" fill="white"/>
</g>
<g opacity="0.8" filter="url(#filter4_i_123_41)">
<path d="M55.8945 59H46.332V41.8672H55.8945V43.7305H48.4531V49.1211H55.4609V50.9609H48.4531V57.1367H55.8945V59ZM64.25 45.9219C65.7969 45.9219 66.9492 46.2695 67.707 46.9648C68.4648 47.6523 68.8438 48.7539 68.8438 50.2695V59H67.3438L66.9336 57.1133H66.8398C66.4805 57.582 66.1055 57.9727 65.7148 58.2852C65.3242 58.5977 64.8711 58.8359 64.3555 59C63.8477 59.1562 63.2266 59.2344 62.4922 59.2344C61.7109 59.2344 61.0156 59.0977 60.4062 58.8242C59.7969 58.5508 59.3164 58.1328 58.9648 57.5703C58.6211 57.0078 58.4492 56.2969 58.4492 55.4375C58.4492 54.1484 58.957 53.1641 59.9727 52.4844C60.9883 51.7969 62.5273 51.4219 64.5898 51.3594L66.8164 51.2656V50.4922C66.8164 49.4219 66.582 48.668 66.1133 48.2305C65.6445 47.793 64.9844 47.5742 64.1328 47.5742C63.4688 47.5742 62.832 47.6719 62.2227 47.8672C61.6133 48.0625 61.0312 48.293 60.4766 48.5586L59.832 47.0117C60.418 46.707 61.0898 46.4492 61.8477 46.2383C62.6133 46.0273 63.4141 45.9219 64.25 45.9219ZM66.793 52.6953L64.8828 52.7773C63.3203 52.832 62.2188 53.0898 61.5781 53.5508C60.9375 54.0039 60.6172 54.6406 60.6172 55.4609C60.6172 56.1797 60.832 56.7109 61.2617 57.0547C61.6992 57.3984 62.2773 57.5703 62.9961 57.5703C64.1055 57.5703 65.0156 57.2617 65.7266 56.6445C66.4375 56.0273 66.793 55.1016 66.793 53.8672V52.6953ZM78.7812 45.8984C79.0312 45.8984 79.293 45.9141 79.5664 45.9453C79.8477 45.9688 80.0977 46.0039 80.3164 46.0508L80.0703 47.9844C79.8672 47.9297 79.6367 47.8867 79.3789 47.8555C79.1211 47.8242 78.8828 47.8086 78.6641 47.8086C78.1562 47.8086 77.6719 47.9102 77.2109 48.1133C76.7578 48.3086 76.3594 48.5977 76.0156 48.9805C75.6719 49.3555 75.4023 49.8086 75.207 50.3398C75.0117 50.8711 74.9141 51.4688 74.9141 52.1328V59H72.8281V46.1328H74.5273L74.7734 48.4883H74.8555C75.1211 48.0117 75.4414 47.5781 75.8164 47.1875C76.1914 46.7969 76.625 46.4844 77.1172 46.25C77.6172 46.0156 78.1719 45.8984 78.7812 45.8984ZM88.9297 45.8984C90.4453 45.8984 91.5938 46.2734 92.375 47.0234C93.1641 47.7656 93.5586 48.9648 93.5586 50.6211V59H91.5078V50.8086C91.5078 49.7539 91.2695 48.9648 90.793 48.4414C90.3164 47.9102 89.5859 47.6445 88.6016 47.6445C87.2031 47.6445 86.2227 48.043 85.6602 48.8398C85.0977 49.6367 84.8164 50.7969 84.8164 52.3203V59H82.7422V46.1328H84.4062L84.7109 47.9727H84.8281C85.1016 47.5195 85.4492 47.1406 85.8711 46.8359C86.293 46.5312 86.7656 46.3008 87.2891 46.1445C87.8125 45.9805 88.3594 45.8984 88.9297 45.8984ZM114.512 46.1328V59H112.824L112.52 57.207H112.414C112.148 57.6523 111.805 58.0273 111.383 58.332C110.961 58.6289 110.484 58.8516 109.953 59C109.43 59.1562 108.871 59.2344 108.277 59.2344C107.27 59.2344 106.422 59.0703 105.734 58.7422C105.047 58.4141 104.527 57.9062 104.176 57.2188C103.824 56.5312 103.648 55.6445 103.648 54.5586V46.1328H105.758V54.3594C105.758 55.4141 105.992 56.2031 106.461 56.7266C106.93 57.25 107.652 57.5117 108.629 57.5117C109.559 57.5117 110.301 57.3359 110.855 56.9844C111.41 56.625 111.809 56.0977 112.051 55.4023C112.293 54.707 112.414 53.8555 112.414 52.8477V46.1328H114.512ZM124.742 45.8984C126.328 45.8984 127.594 46.4531 128.539 47.5625C129.492 48.6641 129.969 50.3203 129.969 52.5312C129.969 53.9922 129.75 55.2227 129.312 56.2227C128.883 57.2148 128.27 57.9648 127.473 58.4727C126.684 58.9805 125.754 59.2344 124.684 59.2344C124.012 59.2344 123.418 59.1445 122.902 58.9648C122.395 58.7852 121.957 58.5469 121.59 58.25C121.23 57.9453 120.93 57.6172 120.688 57.2656H120.547C120.57 57.5703 120.598 57.9336 120.629 58.3555C120.668 58.7773 120.688 59.1484 120.688 59.4688V64.7422H118.602V46.1328H120.312L120.594 48.0195H120.688C120.938 47.6289 121.238 47.2734 121.59 46.9531C121.949 46.6328 122.387 46.3789 122.902 46.1914C123.418 45.9961 124.031 45.8984 124.742 45.8984ZM124.332 47.6445C123.465 47.6445 122.766 47.8125 122.234 48.1484C121.703 48.4844 121.316 48.9883 121.074 49.6602C120.832 50.3242 120.703 51.1641 120.688 52.1797V52.5547C120.688 53.6172 120.801 54.5195 121.027 55.2617C121.262 55.9961 121.648 56.5547 122.188 56.9375C122.727 57.3203 123.449 57.5117 124.355 57.5117C125.129 57.5117 125.773 57.3047 126.289 56.8906C126.812 56.4688 127.199 55.8789 127.449 55.1211C127.707 54.3633 127.836 53.4922 127.836 52.5078C127.836 51.0078 127.547 49.8242 126.969 48.957C126.398 48.082 125.52 47.6445 124.332 47.6445ZM143.832 57.5352C144.16 57.5352 144.492 57.5078 144.828 57.4531C145.172 57.3984 145.457 57.3281 145.684 57.2422V58.8477C145.441 58.957 145.109 59.0469 144.688 59.1172C144.273 59.1953 143.863 59.2344 143.457 59.2344C142.77 59.2344 142.145 59.1172 141.582 58.8828C141.027 58.6406 140.582 58.2305 140.246 57.6523C139.91 57.0742 139.742 56.2773 139.742 55.2617V47.75H137.926V46.7539L139.777 45.957L140.574 43.1797H141.84V46.1328H145.59V47.75H141.84V55.2148C141.84 55.9883 142.02 56.5703 142.379 56.9609C142.746 57.3438 143.23 57.5352 143.832 57.5352ZM159.441 52.543C159.441 53.6055 159.301 54.5508 159.02 55.3789C158.746 56.207 158.348 56.9062 157.824 57.4766C157.309 58.0469 156.684 58.4844 155.949 58.7891C155.215 59.0859 154.383 59.2344 153.453 59.2344C152.594 59.2344 151.805 59.0859 151.086 58.7891C150.367 58.4844 149.746 58.0469 149.223 57.4766C148.699 56.9062 148.293 56.207 148.004 55.3789C147.715 54.5508 147.57 53.6055 147.57 52.543C147.57 51.1367 147.809 49.9375 148.285 48.9453C148.77 47.9531 149.457 47.1992 150.348 46.6836C151.238 46.1602 152.301 45.8984 153.535 45.8984C154.715 45.8984 155.746 46.1602 156.629 46.6836C157.512 47.207 158.199 47.9648 158.691 48.957C159.191 49.9492 159.441 51.1445 159.441 52.543ZM149.727 52.543C149.727 53.5586 149.859 54.4414 150.125 55.1914C150.391 55.9336 150.801 56.5078 151.355 56.9141C151.91 57.3125 152.625 57.5117 153.5 57.5117C154.375 57.5117 155.09 57.3125 155.645 56.9141C156.207 56.5078 156.621 55.9336 156.887 55.1914C157.152 54.4414 157.285 53.5586 157.285 52.543C157.285 51.5352 157.152 50.6641 156.887 49.9297C156.621 49.1953 156.211 48.6328 155.656 48.2422C155.102 47.8438 154.379 47.6445 153.488 47.6445C152.191 47.6445 151.238 48.0781 150.629 48.9453C150.027 49.8047 149.727 51.0039 149.727 52.543ZM169.637 59L176.07 44.9141H167.621V41.8672H179.914V44.1406L173.434 59H169.637ZM182.082 57.3242C182.082 56.5898 182.281 56.0742 182.68 55.7773C183.086 55.4805 183.574 55.332 184.145 55.332C184.699 55.332 185.176 55.4805 185.574 55.7773C185.98 56.0742 186.184 56.5898 186.184 57.3242C186.184 58.0273 185.98 58.5352 185.574 58.8477C185.176 59.1602 184.699 59.3164 184.145 59.3164C183.574 59.3164 183.086 59.1602 182.68 58.8477C182.281 58.5352 182.082 58.0273 182.082 57.3242ZM197.469 59H193.848V49.0859C193.848 48.8125 193.852 48.4766 193.859 48.0781C193.867 47.6719 193.879 47.2578 193.895 46.8359C193.91 46.4062 193.926 46.0195 193.941 45.6758C193.855 45.7773 193.68 45.9531 193.414 46.2031C193.156 46.4453 192.914 46.6641 192.688 46.8594L190.719 48.4414L188.973 46.2617L194.492 41.8672H197.469V59ZM214.133 50.4336C214.133 51.8164 214.023 53.0508 213.805 54.1367C213.594 55.2227 213.25 56.1445 212.773 56.9023C212.305 57.6602 211.688 58.2383 210.922 58.6367C210.156 59.0352 209.227 59.2344 208.133 59.2344C206.758 59.2344 205.629 58.8867 204.746 58.1914C203.863 57.4883 203.211 56.4805 202.789 55.168C202.367 53.8477 202.156 52.2695 202.156 50.4336C202.156 48.582 202.348 47 202.73 45.6875C203.121 44.3672 203.754 43.3555 204.629 42.6523C205.504 41.9492 206.672 41.5977 208.133 41.5977C209.5 41.5977 210.625 41.9492 211.508 42.6523C212.398 43.3477 213.059 44.3555 213.488 45.6758C213.918 46.9883 214.133 48.5742 214.133 50.4336ZM205.754 50.4336C205.754 51.7383 205.824 52.8281 205.965 53.7031C206.113 54.5703 206.359 55.2227 206.703 55.6602C207.047 56.0977 207.523 56.3164 208.133 56.3164C208.734 56.3164 209.207 56.1016 209.551 55.6719C209.902 55.2344 210.152 54.582 210.301 53.7148C210.449 52.8398 210.523 51.7461 210.523 50.4336C210.523 49.1289 210.449 48.0391 210.301 47.1641C210.152 46.2891 209.902 45.6328 209.551 45.1953C209.207 44.75 208.734 44.5273 208.133 44.5273C207.523 44.5273 207.047 44.75 206.703 45.1953C206.359 45.6328 206.113 46.2891 205.965 47.1641C205.824 48.0391 205.754 49.1289 205.754 50.4336ZM219.805 41.6211C221.148 41.6211 222.168 42.0898 222.863 43.0273C223.559 43.9648 223.906 45.2812 223.906 46.9766C223.906 48.6719 223.578 49.9961 222.922 50.9492C222.266 51.9023 221.227 52.3789 219.805 52.3789C218.484 52.3789 217.48 51.9023 216.793 50.9492C216.105 49.9961 215.762 48.6719 215.762 46.9766C215.762 45.2812 216.082 43.9648 216.723 43.0273C217.371 42.0898 218.398 41.6211 219.805 41.6211ZM219.828 44.0703C219.445 44.0703 219.164 44.3125 218.984 44.7969C218.805 45.2812 218.715 46.0156 218.715 47C218.715 47.9844 218.805 48.7227 218.984 49.2148C219.164 49.707 219.445 49.9531 219.828 49.9531C220.211 49.9531 220.492 49.7109 220.672 49.2266C220.859 48.7344 220.953 47.9922 220.953 47C220.953 46.0156 220.859 45.2812 220.672 44.7969C220.492 44.3125 220.211 44.0703 219.828 44.0703ZM231.969 41.8672L222.465 59H219.652L229.156 41.8672H231.969ZM231.805 48.4648C233.148 48.4648 234.168 48.9336 234.863 49.8711C235.559 50.8086 235.906 52.125 235.906 53.8203C235.906 55.5078 235.578 56.8281 234.922 57.7812C234.266 58.7344 233.227 59.2109 231.805 59.2109C230.484 59.2109 229.48 58.7344 228.793 57.7812C228.105 56.8281 227.762 55.5078 227.762 53.8203C227.762 52.125 228.082 50.8086 228.723 49.8711C229.371 48.9336 230.398 48.4648 231.805 48.4648ZM231.828 50.9141C231.445 50.9141 231.164 51.1562 230.984 51.6406C230.805 52.125 230.715 52.8594 230.715 53.8438C230.715 54.8281 230.805 55.5664 230.984 56.0586C231.164 56.5508 231.445 56.7969 231.828 56.7969C232.211 56.7969 232.492 56.5547 232.672 56.0703C232.859 55.5781 232.953 54.8359 232.953 53.8438C232.953 52.8594 232.859 52.125 232.672 51.6406C232.492 51.1562 232.211 50.9141 231.828 50.9141ZM244.719 40.7656L244.238 45.0781L248.609 43.8594L248.996 46.8125L245.012 47.0938L247.625 50.5742L244.965 51.9922L243.137 48.3242L241.531 51.9688L238.766 50.5742L241.355 47.0938L237.395 46.7891L237.852 43.8594L242.129 45.0781L241.648 40.7656H244.719ZM57.1836 85.543C57.1836 86.6055 57.043 87.5508 56.7617 88.3789C56.4883 89.207 56.0898 89.9062 55.5664 90.4766C55.0508 91.0469 54.4258 91.4844 53.6914 91.7891C52.957 92.0859 52.125 92.2344 51.1953 92.2344C50.3359 92.2344 49.5469 92.0859 48.8281 91.7891C48.1094 91.4844 47.4883 91.0469 46.9648 90.4766C46.4414 89.9062 46.0352 89.207 45.7461 88.3789C45.457 87.5508 45.3125 86.6055 45.3125 85.543C45.3125 84.1367 45.5508 82.9375 46.0273 81.9453C46.5117 80.9531 47.1992 80.1992 48.0898 79.6836C48.9805 79.1602 50.043 78.8984 51.2773 78.8984C52.457 78.8984 53.4883 79.1602 54.3711 79.6836C55.2539 80.207 55.9414 80.9648 56.4336 81.957C56.9336 82.9492 57.1836 84.1445 57.1836 85.543ZM47.4688 85.543C47.4688 86.5586 47.6016 87.4414 47.8672 88.1914C48.1328 88.9336 48.543 89.5078 49.0977 89.9141C49.6523 90.3125 50.3672 90.5117 51.2422 90.5117C52.1172 90.5117 52.832 90.3125 53.3867 89.9141C53.9492 89.5078 54.3633 88.9336 54.6289 88.1914C54.8945 87.4414 55.0273 86.5586 55.0273 85.543C55.0273 84.5352 54.8945 83.6641 54.6289 82.9297C54.3633 82.1953 53.9531 81.6328 53.3984 81.2422C52.8438 80.8438 52.1211 80.6445 51.2305 80.6445C49.9336 80.6445 48.9805 81.0781 48.3711 81.9453C47.7695 82.8047 47.4688 84.0039 47.4688 85.543ZM66.7109 78.8984C68.2266 78.8984 69.375 79.2734 70.1562 80.0234C70.9453 80.7656 71.3398 81.9648 71.3398 83.6211V92H69.2891V83.8086C69.2891 82.7539 69.0508 81.9648 68.5742 81.4414C68.0977 80.9102 67.3672 80.6445 66.3828 80.6445C64.9844 80.6445 64.0039 81.043 63.4414 81.8398C62.8789 82.6367 62.5977 83.7969 62.5977 85.3203V92H60.5234V79.1328H62.1875L62.4922 80.9727H62.6094C62.8828 80.5195 63.2305 80.1406 63.6523 79.8359C64.0742 79.5312 64.5469 79.3008 65.0703 79.1445C65.5938 78.9805 66.1406 78.8984 66.7109 78.8984ZM79.5547 79.1328H81.793L84.5938 86.5859C84.75 87 84.8945 87.4023 85.0273 87.793C85.1602 88.1836 85.2773 88.5586 85.3789 88.918C85.4883 89.2773 85.5742 89.625 85.6367 89.9609H85.707C85.8164 89.5703 85.9648 89.0664 86.1523 88.4492C86.3477 87.832 86.5586 87.207 86.7852 86.5742L89.4453 79.1328H91.6836L86.1055 93.875C85.8008 94.6719 85.4453 95.3633 85.0391 95.9492C84.6328 96.5352 84.1406 96.9844 83.5625 97.2969C82.9922 97.6172 82.3086 97.7773 81.5117 97.7773C81.1445 97.7773 80.8164 97.7539 80.5273 97.707C80.2461 97.668 80.0039 97.6211 79.8008 97.5664V95.9023C79.9727 95.9414 80.1797 95.9766 80.4219 96.0078C80.6719 96.0391 80.9297 96.0547 81.1953 96.0547C81.6797 96.0547 82.1016 95.9609 82.4609 95.7734C82.8203 95.5859 83.125 95.3164 83.375 94.9648C83.6328 94.6133 83.8555 94.1992 84.043 93.7227L84.6992 92.0117L79.5547 79.1328ZM104.879 85.543C104.879 86.6055 104.738 87.5508 104.457 88.3789C104.184 89.207 103.785 89.9062 103.262 90.4766C102.746 91.0469 102.121 91.4844 101.387 91.7891C100.652 92.0859 99.8203 92.2344 98.8906 92.2344C98.0312 92.2344 97.2422 92.0859 96.5234 91.7891C95.8047 91.4844 95.1836 91.0469 94.6602 90.4766C94.1367 89.9062 93.7305 89.207 93.4414 88.3789C93.1523 87.5508 93.0078 86.6055 93.0078 85.543C93.0078 84.1367 93.2461 82.9375 93.7227 81.9453C94.207 80.9531 94.8945 80.1992 95.7852 79.6836C96.6758 79.1602 97.7383 78.8984 98.9727 78.8984C100.152 78.8984 101.184 79.1602 102.066 79.6836C102.949 80.207 103.637 80.9648 104.129 81.957C104.629 82.9492 104.879 84.1445 104.879 85.543ZM95.1641 85.543C95.1641 86.5586 95.2969 87.4414 95.5625 88.1914C95.8281 88.9336 96.2383 89.5078 96.793 89.9141C97.3477 90.3125 98.0625 90.5117 98.9375 90.5117C99.8125 90.5117 100.527 90.3125 101.082 89.9141C101.645 89.5078 102.059 88.9336 102.324 88.1914C102.59 87.4414 102.723 86.5586 102.723 85.543C102.723 84.5352 102.59 83.6641 102.324 82.9297C102.059 82.1953 101.648 81.6328 101.094 81.2422C100.539 80.8438 99.8164 80.6445 98.9258 80.6445C97.6289 80.6445 96.6758 81.0781 96.0664 81.9453C95.4648 82.8047 95.1641 84.0039 95.1641 85.543ZM118.941 79.1328V92H117.254L116.949 90.207H116.844C116.578 90.6523 116.234 91.0273 115.812 91.332C115.391 91.6289 114.914 91.8516 114.383 92C113.859 92.1562 113.301 92.2344 112.707 92.2344C111.699 92.2344 110.852 92.0703 110.164 91.7422C109.477 91.4141 108.957 90.9062 108.605 90.2188C108.254 89.5312 108.078 88.6445 108.078 87.5586V79.1328H110.188V87.3594C110.188 88.4141 110.422 89.2031 110.891 89.7266C111.359 90.25 112.082 90.5117 113.059 90.5117C113.988 90.5117 114.73 90.3359 115.285 89.9844C115.84 89.625 116.238 89.0977 116.48 88.4023C116.723 87.707 116.844 86.8555 116.844 85.8477V79.1328H118.941ZM128.984 78.8984C129.234 78.8984 129.496 78.9141 129.77 78.9453C130.051 78.9688 130.301 79.0039 130.52 79.0508L130.273 80.9844C130.07 80.9297 129.84 80.8867 129.582 80.8555C129.324 80.8242 129.086 80.8086 128.867 80.8086C128.359 80.8086 127.875 80.9102 127.414 81.1133C126.961 81.3086 126.562 81.5977 126.219 81.9805C125.875 82.3555 125.605 82.8086 125.41 83.3398C125.215 83.8711 125.117 84.4688 125.117 85.1328V92H123.031V79.1328H124.73L124.977 81.4883H125.059C125.324 81.0117 125.645 80.5781 126.02 80.1875C126.395 79.7969 126.828 79.4844 127.32 79.25C127.82 79.0156 128.375 78.8984 128.984 78.8984ZM141.254 79.1328V92H139.18V79.1328H141.254ZM140.234 74.3047C140.578 74.3047 140.871 74.4102 141.113 74.6211C141.355 74.832 141.477 75.1641 141.477 75.6172C141.477 76.0703 141.355 76.4062 141.113 76.625C140.871 76.8359 140.578 76.9414 140.234 76.9414C139.883 76.9414 139.59 76.8359 139.355 76.625C139.121 76.4062 139.004 76.0703 139.004 75.6172C139.004 75.1641 139.121 74.832 139.355 74.6211C139.59 74.4102 139.883 74.3047 140.234 74.3047ZM149.879 92.2344C148.27 92.2344 146.988 91.6797 146.035 90.5703C145.09 89.4531 144.617 87.8008 144.617 85.6133C144.617 83.4023 145.098 81.7305 146.059 80.5977C147.027 79.4648 148.312 78.8984 149.914 78.8984C150.594 78.8984 151.184 78.9883 151.684 79.168C152.191 79.3477 152.629 79.5898 152.996 79.8945C153.363 80.1914 153.668 80.5273 153.91 80.9023H154.051C154.02 80.6602 153.984 80.3281 153.945 79.9062C153.914 79.4766 153.898 79.1172 153.898 78.8281V73.7656H155.984V92H154.32L153.992 90.1836H153.898C153.664 90.5664 153.359 90.9141 152.984 91.2266C152.617 91.5312 152.18 91.7773 151.672 91.9648C151.164 92.1445 150.566 92.2344 149.879 92.2344ZM150.254 90.5117C151.598 90.5117 152.547 90.1328 153.102 89.375C153.664 88.6094 153.945 87.4688 153.945 85.9531V85.6016C153.945 84 153.68 82.7695 153.148 81.9102C152.617 81.0508 151.652 80.6211 150.254 80.6211C149.09 80.6211 148.215 81.0703 147.629 81.9688C147.051 82.8672 146.762 84.0977 146.762 85.6602C146.762 87.2148 147.051 88.4141 147.629 89.2578C148.215 90.0938 149.09 90.5117 150.254 90.5117ZM162.172 92H160.086V73.7656H162.172V92ZM171.23 78.8984C172.332 78.8984 173.277 79.1406 174.066 79.625C174.855 80.1094 175.461 80.7891 175.883 81.6641C176.305 82.5312 176.516 83.5508 176.516 84.7227V85.9766H167.668C167.699 87.4453 168.07 88.5664 168.781 89.3398C169.492 90.1055 170.496 90.4883 171.793 90.4883C172.605 90.4883 173.328 90.4141 173.961 90.2656C174.594 90.1094 175.246 89.8867 175.918 89.5977V91.3906C175.27 91.6875 174.625 91.9023 173.984 92.0352C173.344 92.168 172.582 92.2344 171.699 92.2344C170.465 92.2344 169.383 91.9844 168.453 91.4844C167.531 90.9766 166.812 90.2344 166.297 89.2578C165.781 88.2812 165.523 87.082 165.523 85.6602C165.523 84.2695 165.758 83.0664 166.227 82.0508C166.695 81.0352 167.355 80.2578 168.207 79.7188C169.066 79.1719 170.074 78.8984 171.23 78.8984ZM171.207 80.5742C170.199 80.5742 169.391 80.9062 168.781 81.5703C168.18 82.2266 167.824 83.1523 167.715 84.3477H174.359C174.352 83.6055 174.234 82.9492 174.008 82.3789C173.781 81.8086 173.438 81.3672 172.977 81.0547C172.516 80.7344 171.926 80.5742 171.207 80.5742ZM191.188 92.2344C190.023 92.2344 188.996 91.9961 188.105 91.5195C187.223 91.043 186.535 90.3164 186.043 89.3398C185.551 88.3633 185.305 87.1289 185.305 85.6367C185.305 84.082 185.566 82.8086 186.09 81.8164C186.613 80.8242 187.332 80.0898 188.246 79.6133C189.168 79.1367 190.215 78.8984 191.387 78.8984C192.051 78.8984 192.684 78.9648 193.285 79.0977C193.887 79.2305 194.383 79.3984 194.773 79.6016L194.152 81.3242C193.746 81.1602 193.289 81.0156 192.781 80.8906C192.273 80.7578 191.793 80.6914 191.34 80.6914C190.473 80.6914 189.75 80.8828 189.172 81.2656C188.602 81.6406 188.172 82.1914 187.883 82.918C187.602 83.6445 187.461 84.543 187.461 85.6133C187.461 86.6367 187.598 87.5117 187.871 88.2383C188.152 88.957 188.57 89.5078 189.125 89.8906C189.68 90.2656 190.371 90.4531 191.199 90.4531C191.887 90.4531 192.504 90.3789 193.051 90.2305C193.605 90.0742 194.109 89.8945 194.562 89.6914V91.5312C194.117 91.7578 193.629 91.9297 193.098 92.0469C192.566 92.1719 191.93 92.2344 191.188 92.2344ZM202.461 78.9219C204.008 78.9219 205.16 79.2695 205.918 79.9648C206.676 80.6523 207.055 81.7539 207.055 83.2695V92H205.555L205.145 90.1133H205.051C204.691 90.582 204.316 90.9727 203.926 91.2852C203.535 91.5977 203.082 91.8359 202.566 92C202.059 92.1562 201.438 92.2344 200.703 92.2344C199.922 92.2344 199.227 92.0977 198.617 91.8242C198.008 91.5508 197.527 91.1328 197.176 90.5703C196.832 90.0078 196.66 89.2969 196.66 88.4375C196.66 87.1484 197.168 86.1641 198.184 85.4844C199.199 84.7969 200.738 84.4219 202.801 84.3594L205.027 84.2656V83.4922C205.027 82.4219 204.793 81.668 204.324 81.2305C203.855 80.793 203.195 80.5742 202.344 80.5742C201.68 80.5742 201.043 80.6719 200.434 80.8672C199.824 81.0625 199.242 81.293 198.688 81.5586L198.043 80.0117C198.629 79.707 199.301 79.4492 200.059 79.2383C200.824 79.0273 201.625 78.9219 202.461 78.9219ZM205.004 85.6953L203.094 85.7773C201.531 85.832 200.43 86.0898 199.789 86.5508C199.148 87.0039 198.828 87.6406 198.828 88.4609C198.828 89.1797 199.043 89.7109 199.473 90.0547C199.91 90.3984 200.488 90.5703 201.207 90.5703C202.316 90.5703 203.227 90.2617 203.938 89.6445C204.648 89.0273 205.004 88.1016 205.004 86.8672V85.6953ZM219.418 88.4492C219.418 89.2773 219.211 89.9727 218.797 90.5352C218.383 91.0977 217.793 91.5234 217.027 91.8125C216.262 92.0938 215.344 92.2344 214.273 92.2344C213.375 92.2344 212.598 92.1641 211.941 92.0234C211.285 91.8828 210.703 91.6836 210.195 91.4258V89.5391C210.734 89.8047 211.371 90.043 212.105 90.2539C212.84 90.4648 213.582 90.5703 214.332 90.5703C215.402 90.5703 216.18 90.3984 216.664 90.0547C217.148 89.7031 217.391 89.2305 217.391 88.6367C217.391 88.293 217.293 87.9922 217.098 87.7344C216.91 87.4688 216.582 87.2109 216.113 86.9609C215.652 86.7109 215.008 86.4297 214.18 86.1172C213.359 85.8047 212.652 85.4922 212.059 85.1797C211.465 84.8672 211.008 84.4883 210.688 84.043C210.375 83.5898 210.219 83.0078 210.219 82.2969C210.219 81.2031 210.66 80.3633 211.543 79.7773C212.426 79.1914 213.59 78.8984 215.035 78.8984C215.809 78.8984 216.535 78.9766 217.215 79.1328C217.902 79.2812 218.547 79.4883 219.148 79.7539L218.457 81.4062C217.91 81.1719 217.336 80.9766 216.734 80.8203C216.141 80.6641 215.531 80.5859 214.906 80.5859C214.039 80.5859 213.375 80.7266 212.914 81.0078C212.453 81.2891 212.223 81.6797 212.223 82.1797C212.223 82.5625 212.328 82.8789 212.539 83.1289C212.758 83.3789 213.109 83.6172 213.594 83.8438C214.078 84.0625 214.723 84.3242 215.527 84.6289C216.324 84.9258 217.012 85.2344 217.59 85.5547C218.176 85.875 218.625 86.2617 218.938 86.7148C219.258 87.168 219.418 87.7461 219.418 88.4492ZM224.598 73.7656V79.0742C224.598 79.4102 224.59 79.75 224.574 80.0938C224.559 80.4297 224.531 80.7305 224.492 80.9961H224.621C224.887 80.543 225.223 80.1641 225.629 79.8594C226.043 79.5469 226.508 79.3125 227.023 79.1562C227.547 79 228.098 78.9219 228.676 78.9219C229.699 78.9219 230.559 79.0859 231.254 79.4141C231.949 79.7422 232.469 80.25 232.812 80.9375C233.164 81.625 233.34 82.5195 233.34 83.6211V92H231.289V83.8086C231.289 82.7539 231.051 81.9648 230.574 81.4414C230.098 80.9102 229.367 80.6445 228.383 80.6445C227.445 80.6445 226.699 80.8242 226.145 81.1836C225.598 81.543 225.203 82.0742 224.961 82.7773C224.719 83.4727 224.598 84.3242 224.598 85.332V92H222.523V73.7656H224.598Z" fill="white"/>
</g>
</g>
</g>
<rect x="0.5" y="0.5" width="651" height="408" rx="32.5" stroke="url(#paint7_linear_123_41)" stroke-opacity="0.4"/>
<defs>
<filter id="filter0_d_123_41" x="-6" y="-2" width="664" height="421" filterUnits="userSpaceOnUse" color-interpolation-filters="sRGB">
<feFlood flood-opacity="0" result="BackgroundImageFix"/>
<feColorMatrix in="SourceAlpha" type="matrix" values="0 0 0 0 0 0 0 0 0 0 0 0 0 0 0 0 0 0 127 0" result="hardAlpha"/>
<feOffset dy="4"/>
<feGaussianBlur stdDeviation="2"/>
<feComposite in2="hardAlpha" operator="out"/>
<feColorMatrix type="matrix" values="0 0 0 0 0 0 0 0 0 0 0 0 0 0 0 0 0 0 0.25 0"/>
<feBlend mode="normal" in2="BackgroundImageFix" result="effect1_dropShadow_123_41"/>
<feBlend mode="normal" in="SourceGraphic" in2="effect1_dropShadow_123_41" result="shape"/>
</filter>
<filter id="filter1_d_123_41" x="-6" y="-2" width="664" height="421" filterUnits="userSpaceOnUse" color-interpolation-filters="sRGB">
<feFlood flood-opacity="0" result="BackgroundImageFix"/>
<feColorMatrix in="SourceAlpha" type="matrix" values="0 0 0 0 0 0 0 0 0 0 0 0 0 0 0 0 0 0 127 0" result="hardAlpha"/>
<feOffset dy="4"/>
<feGaussianBlur stdDeviation="2"/>
<feComposite in2="hardAlpha" operator="out"/>
<feColorMatrix type="matrix" values="0 0 0 0 0 0 0 0 0 0 0 0 0 0 0 0 0 0 0.25 0"/>
<feBlend mode="normal" in2="BackgroundImageFix" result="effect1_dropShadow_123_41"/>
<feBlend mode="normal" in="SourceGraphic" in2="effect1_dropShadow_123_41" result="shape"/>
</filter>
<filter id="filter2_i_123_41" x="0.75" y="150.099" width="650.5" height="262.151" filterUnits="userSpaceOnUse" color-interpolation-filters="sRGB">
<feFlood flood-opacity="0" result="BackgroundImageFix"/>
<feBlend mode="normal" in="SourceGraphic" in2="BackgroundImageFix" result="shape"/>
<feColorMatrix in="SourceAlpha" type="matrix" values="0 0 0 0 0 0 0 0 0 0 0 0 0 0 0 0 0 0 127 0" result="hardAlpha"/>
<feOffset dy="4"/>
<feGaussianBlur stdDeviation="2"/>
<feComposite in2="hardAlpha" operator="arithmetic" k2="-1" k3="1"/>
<feColorMatrix type="matrix" values="0 0 0 0 0 0 0 0 0 0 0 0 0 0 0 0 0 0 0.25 0"/>
<feBlend mode="normal" in2="shape" result="effect1_innerShadow_123_41"/>
</filter>
<filter id="filter3_i_123_41" x="45.2402" y="329.697" width="332.939" height="46.5078" filterUnits="userSpaceOnUse" color-interpolation-filters="sRGB">
<feFlood flood-opacity="0" result="BackgroundImageFix"/>
<feBlend mode="normal" in="SourceGraphic" in2="BackgroundImageFix" result="shape"/>
<feColorMatrix in="SourceAlpha" type="matrix" values="0 0 0 0 0 0 0 0 0 0 0 0 0 0 0 0 0 0 127 0" result="hardAlpha"/>
<feOffset dy="4"/>
<feGaussianBlur stdDeviation="2"/>
<feComposite in2="hardAlpha" operator="arithmetic" k2="-1" k3="1"/>
<feColorMatrix type="matrix" values="0 0 0 0 0 0 0 0 0 0 0 0 0 0 0 0 0 0 0.25 0"/>
<feBlend mode="normal" in2="shape" result="effect1_innerShadow_123_41"/>
</filter>
<filter id="filter4_i_123_41" x="45.3125" y="40.7656" width="203.684" height="61.0117" filterUnits="userSpaceOnUse" color-interpolation-filters="sRGB">
<feFlood flood-opacity="0" result="BackgroundImageFix"/>
<feBlend mode="normal" in="SourceGraphic" in2="BackgroundImageFix" result="shape"/>
<feColorMatrix in="SourceAlpha" type="matrix" values="0 0 0 0 0 0 0 0 0 0 0 0 0 0 0 0 0 0 127 0" result="hardAlpha"/>
<feOffset dy="4"/>
<feGaussianBlur stdDeviation="2"/>
<feComposite in2="hardAlpha" operator="arithmetic" k2="-1" k3="1"/>
<feColorMatrix type="matrix" values="0 0 0 0 0 0 0 0 0 0 0 0 0 0 0 0 0 0 0.25 0"/>
<feBlend mode="normal" in2="shape" result="effect1_innerShadow_123_41"/>
</filter>
<linearGradient id="paint0_linear_123_41" x1="503" y1="294" x2="33" y2="-11.5" gradientUnits="userSpaceOnUse">
<stop stop-color="#F1F1F5"/>
<stop offset="0.964316" stop-color="#F1F1F5" stop-opacity="0"/>
</linearGradient>
<linearGradient id="paint1_linear_123_41" x1="651" y1="133" x2="0.999987" y2="134.5" gradientUnits="userSpaceOnUse">
<stop stop-color="white"/>
<stop offset="1" stop-color="white" stop-opacity="0"/>
</linearGradient>
<linearGradient id="paint2_linear_123_41" x1="643" y1="315.5" x2="-104.5" y2="315.5" gradientUnits="userSpaceOnUse">
<stop stop-color="#806666"/>
<stop offset="1" stop-color="#AC751D" stop-opacity="0"/>
</linearGradient>
<linearGradient id="paint3_linear_123_41" x1="651" y1="129" x2="0.999969" y2="239.5" gradientUnits="userSpaceOnUse">
<stop stop-color="#806666"/>
<stop offset="1" stop-color="#AC751D" stop-opacity="0"/>
</linearGradient>
<linearGradient id="paint4_linear_123_41" x1="640.5" y1="268.003" x2="301.536" y2="268.001" gradientUnits="userSpaceOnUse">
<stop stop-color="white" stop-opacity="0.64"/>
<stop offset="0.379573" stop-color="white" stop-opacity="0.4"/>
<stop offset="1" stop-color="white" stop-opacity="0"/>
</linearGradient>
<linearGradient id="paint5_linear_123_41" x1="646" y1="69" x2="302.536" y2="69" gradientUnits="userSpaceOnUse">
<stop stop-color="white" stop-opacity="0.64"/>
<stop offset="0.2537" stop-color="white" stop-opacity="0.4"/>
<stop offset="0.643229" stop-color="white" stop-opacity="0"/>
</linearGradient>
<linearGradient id="paint6_linear_123_41" x1="325.5" y1="259" x2="1" y2="259" gradientUnits="userSpaceOnUse">
<stop offset="0.573867" stop-color="white"/>
<stop offset="1" stop-color="white" stop-opacity="0"/>
</linearGradient>
<linearGradient id="paint7_linear_123_41" x1="651" y1="205" x2="1.00001" y2="205" gradientUnits="userSpaceOnUse">
<stop stop-color="#B4B8BD"/>
<stop offset="1" stop-color="white" stop-opacity="0"/>
</linearGradient>
<clipPath id="clip0_123_41">
<rect x="1" y="1" width="650" height="407" rx="32" fill="white"/>
</clipPath>
</defs>
</svg>
